<ttFont>
    <TTGlyph name=".notdef" xMin="180" yMin="0" xMax="570" yMax="701">
      <contour>
        <pt x="234" y="651" on="1"/>
        <pt x="234" y="50" on="1"/>
        <pt x="516" y="50" on="1"/>
        <pt x="516" y="651" on="1"/>
      </contour>
      <contour>
        <pt x="180" y="0" on="1"/>
        <pt x="180" y="701" on="1"/>
        <pt x="570" y="701" on="1"/>
        <pt x="570" y="0" on="1"/>
      </contour>
    </TTGlyph>
    <TTGlyph name="A" xMin="10" yMin="0" xMax="633" yMax="570">
      <contour>
        <pt x="633" y="20" on="1"/>
        <pt x="633" y="0" on="1"/>
        <pt x="370" y="0" on="1"/>
        <pt x="370" y="20" on="1"/>
        <pt x="429" y="20" on="1"/>
        <pt x="362" y="159" on="1"/>
        <pt x="160" y="159" on="1"/>
        <pt x="102" y="20" on="1"/>
        <pt x="181" y="20" on="1"/>
        <pt x="181" y="0" on="1"/>
        <pt x="10" y="0" on="1"/>
        <pt x="10" y="20" on="1"/>
        <pt x="77" y="20" on="1"/>
        <pt x="306" y="570" on="1"/>
        <pt x="331" y="570" on="1"/>
        <pt x="585" y="20" on="1"/>
      </contour>
      <contour>
        <pt x="169" y="180" on="1"/>
        <pt x="352" y="180" on="1"/>
        <pt x="254" y="384" on="1"/>
      </contour>
    </TTGlyph>
    <TTGlyph name="AE" xMin="0" yMin="0" xMax="800" yMax="560">
      <contour>
        <pt x="780" y="190" on="1"/>
        <pt x="800" y="190" on="1"/>
        <pt x="800" y="0" on="1"/>
        <pt x="340" y="0" on="1"/>
        <pt x="340" y="20" on="1"/>
        <pt x="400" y="20" on="1"/>
        <pt x="400" y="189" on="1"/>
        <pt x="200" y="189" on="1"/>
        <pt x="98" y="20" on="1"/>
        <pt x="171" y="20" on="1"/>
        <pt x="171" y="0" on="1"/>
        <pt x="0" y="0" on="1"/>
        <pt x="0" y="20" on="1"/>
        <pt x="71" y="20" on="1"/>
        <pt x="383" y="539" on="1"/>
        <pt x="320" y="539" on="1"/>
        <pt x="320" y="560" on="1"/>
        <pt x="790" y="560" on="1"/>
        <pt x="790" y="390" on="1"/>
        <pt x="770" y="390" on="1"/>
        <pt x="770" y="479" on="0"/>
        <pt x="699" y="540" on="0"/>
        <pt x="620" y="540" on="1"/>
        <pt x="550" y="540" on="1"/>
        <pt x="550" y="300" on="1"/>
        <pt x="570" y="300" on="1"/>
        <pt x="642" y="300" on="0"/>
        <pt x="680" y="336" on="0"/>
        <pt x="680" y="390" on="1"/>
        <pt x="700" y="390" on="1"/>
        <pt x="700" y="190" on="1"/>
        <pt x="680" y="190" on="1"/>
        <pt x="680" y="246" on="0"/>
        <pt x="642" y="280" on="0"/>
        <pt x="570" y="280" on="1"/>
        <pt x="550" y="280" on="1"/>
        <pt x="550" y="20" on="1"/>
        <pt x="630" y="20" on="1"/>
        <pt x="780" y="20" on="0"/>
      </contour>
      <contour>
        <pt x="400" y="210" on="1"/>
        <pt x="400" y="522" on="1"/>
        <pt x="212" y="210" on="1"/>
      </contour>
    </TTGlyph>
    <TTGlyph name="AEacute" xMin="0" yMin="0" xMax="800" yMax="760">
      <contour>
        <pt x="780" y="190" on="1"/>
        <pt x="800" y="190" on="1"/>
        <pt x="800" y="0" on="1"/>
        <pt x="340" y="0" on="1"/>
        <pt x="340" y="20" on="1"/>
        <pt x="400" y="20" on="1"/>
        <pt x="400" y="189" on="1"/>
        <pt x="200" y="189" on="1"/>
        <pt x="98" y="20" on="1"/>
        <pt x="171" y="20" on="1"/>
        <pt x="171" y="0" on="1"/>
        <pt x="0" y="0" on="1"/>
        <pt x="0" y="20" on="1"/>
        <pt x="71" y="20" on="1"/>
        <pt x="383" y="539" on="1"/>
        <pt x="320" y="539" on="1"/>
        <pt x="320" y="560" on="1"/>
        <pt x="790" y="560" on="1"/>
        <pt x="790" y="390" on="1"/>
        <pt x="770" y="390" on="1"/>
        <pt x="770" y="479" on="0"/>
        <pt x="699" y="540" on="0"/>
        <pt x="620" y="540" on="1"/>
        <pt x="550" y="540" on="1"/>
        <pt x="550" y="300" on="1"/>
        <pt x="570" y="300" on="1"/>
        <pt x="642" y="300" on="0"/>
        <pt x="680" y="336" on="0"/>
        <pt x="680" y="390" on="1"/>
        <pt x="700" y="390" on="1"/>
        <pt x="700" y="190" on="1"/>
        <pt x="680" y="190" on="1"/>
        <pt x="680" y="246" on="0"/>
        <pt x="642" y="280" on="0"/>
        <pt x="570" y="280" on="1"/>
        <pt x="550" y="280" on="1"/>
        <pt x="550" y="20" on="1"/>
        <pt x="630" y="20" on="1"/>
        <pt x="780" y="20" on="0"/>
      </contour>
      <contour>
        <pt x="400" y="210" on="1"/>
        <pt x="400" y="522" on="1"/>
        <pt x="212" y="210" on="1"/>
      </contour>
      <contour>
        <pt x="483" y="601" on="1"/>
        <pt x="469" y="611" on="1"/>
        <pt x="486" y="636" on="0"/>
        <pt x="495" y="710" on="0"/>
        <pt x="523" y="749" on="0"/>
        <pt x="565" y="760" on="0"/>
        <pt x="581" y="750" on="1"/>
        <pt x="602" y="741" on="0"/>
        <pt x="612" y="692" on="0"/>
        <pt x="582" y="650" on="0"/>
        <pt x="502" y="628" on="0"/>
      </contour>
    </TTGlyph>
    <TTGlyph name="Aacute" xMin="10" yMin="0" xMax="633" yMax="760">
      <contour>
        <pt x="633" y="20" on="1"/>
        <pt x="633" y="0" on="1"/>
        <pt x="370" y="0" on="1"/>
        <pt x="370" y="20" on="1"/>
        <pt x="429" y="20" on="1"/>
        <pt x="362" y="159" on="1"/>
        <pt x="160" y="159" on="1"/>
        <pt x="102" y="20" on="1"/>
        <pt x="181" y="20" on="1"/>
        <pt x="181" y="0" on="1"/>
        <pt x="10" y="0" on="1"/>
        <pt x="10" y="20" on="1"/>
        <pt x="77" y="20" on="1"/>
        <pt x="306" y="570" on="1"/>
        <pt x="331" y="570" on="1"/>
        <pt x="585" y="20" on="1"/>
      </contour>
      <contour>
        <pt x="169" y="180" on="1"/>
        <pt x="352" y="180" on="1"/>
        <pt x="254" y="384" on="1"/>
      </contour>
      <contour>
        <pt x="321" y="601" on="1"/>
        <pt x="307" y="611" on="1"/>
        <pt x="324" y="636" on="0"/>
        <pt x="333" y="710" on="0"/>
        <pt x="361" y="749" on="0"/>
        <pt x="403" y="760" on="0"/>
        <pt x="419" y="750" on="1"/>
        <pt x="440" y="741" on="0"/>
        <pt x="450" y="692" on="0"/>
        <pt x="420" y="650" on="0"/>
        <pt x="340" y="628" on="0"/>
      </contour>
    </TTGlyph>
    <TTGlyph name="Abreve" xMin="10" yMin="0" xMax="633" yMax="745">
      <contour>
        <pt x="633" y="20" on="1"/>
        <pt x="633" y="0" on="1"/>
        <pt x="370" y="0" on="1"/>
        <pt x="370" y="20" on="1"/>
        <pt x="429" y="20" on="1"/>
        <pt x="362" y="159" on="1"/>
        <pt x="160" y="159" on="1"/>
        <pt x="102" y="20" on="1"/>
        <pt x="181" y="20" on="1"/>
        <pt x="181" y="0" on="1"/>
        <pt x="10" y="0" on="1"/>
        <pt x="10" y="20" on="1"/>
        <pt x="77" y="20" on="1"/>
        <pt x="306" y="570" on="1"/>
        <pt x="331" y="570" on="1"/>
        <pt x="585" y="20" on="1"/>
      </contour>
      <contour>
        <pt x="169" y="180" on="1"/>
        <pt x="352" y="180" on="1"/>
        <pt x="254" y="384" on="1"/>
      </contour>
      <contour>
        <pt x="384" y="745" on="1"/>
        <pt x="404" y="745" on="1"/>
        <pt x="404" y="685" on="0"/>
        <pt x="363" y="620" on="0"/>
        <pt x="313" y="620" on="1"/>
        <pt x="220" y="620" on="0"/>
        <pt x="220" y="745" on="1"/>
        <pt x="240" y="745" on="1"/>
        <pt x="240" y="696" on="0"/>
        <pt x="384" y="696" on="0"/>
      </contour>
    </TTGlyph>
    <TTGlyph name="Acircumflex" xMin="10" yMin="0" xMax="633" yMax="751">
      <contour>
        <pt x="633" y="20" on="1"/>
        <pt x="633" y="0" on="1"/>
        <pt x="370" y="0" on="1"/>
        <pt x="370" y="20" on="1"/>
        <pt x="429" y="20" on="1"/>
        <pt x="362" y="159" on="1"/>
        <pt x="160" y="159" on="1"/>
        <pt x="102" y="20" on="1"/>
        <pt x="181" y="20" on="1"/>
        <pt x="181" y="0" on="1"/>
        <pt x="10" y="0" on="1"/>
        <pt x="10" y="20" on="1"/>
        <pt x="77" y="20" on="1"/>
        <pt x="306" y="570" on="1"/>
        <pt x="331" y="570" on="1"/>
        <pt x="585" y="20" on="1"/>
      </contour>
      <contour>
        <pt x="169" y="180" on="1"/>
        <pt x="352" y="180" on="1"/>
        <pt x="254" y="384" on="1"/>
      </contour>
      <contour>
        <pt x="321" y="654" on="1"/>
        <pt x="233" y="614" on="1"/>
        <pt x="224" y="623" on="1"/>
        <pt x="311" y="751" on="1"/>
        <pt x="330" y="751" on="1"/>
        <pt x="418" y="623" on="1"/>
        <pt x="409" y="614" on="1"/>
      </contour>
    </TTGlyph>
    <TTGlyph name="Adieresis" xMin="10" yMin="0" xMax="633" yMax="745">
      <contour>
        <pt x="633" y="20" on="1"/>
        <pt x="633" y="0" on="1"/>
        <pt x="370" y="0" on="1"/>
        <pt x="370" y="20" on="1"/>
        <pt x="429" y="20" on="1"/>
        <pt x="362" y="159" on="1"/>
        <pt x="160" y="159" on="1"/>
        <pt x="102" y="20" on="1"/>
        <pt x="181" y="20" on="1"/>
        <pt x="181" y="0" on="1"/>
        <pt x="10" y="0" on="1"/>
        <pt x="10" y="20" on="1"/>
        <pt x="77" y="20" on="1"/>
        <pt x="306" y="570" on="1"/>
        <pt x="331" y="570" on="1"/>
        <pt x="585" y="20" on="1"/>
      </contour>
      <contour>
        <pt x="169" y="180" on="1"/>
        <pt x="352" y="180" on="1"/>
        <pt x="254" y="384" on="1"/>
      </contour>
      <contour>
        <pt x="296" y="657" on="0"/>
        <pt x="260" y="621" on="0"/>
        <pt x="209" y="621" on="0"/>
        <pt x="171" y="657" on="0"/>
        <pt x="171" y="708" on="0"/>
        <pt x="209" y="745" on="0"/>
        <pt x="260" y="745" on="0"/>
        <pt x="296" y="708" on="0"/>
      </contour>
      <contour>
        <pt x="467" y="656" on="0"/>
        <pt x="432" y="621" on="0"/>
        <pt x="380" y="621" on="0"/>
        <pt x="344" y="657" on="0"/>
        <pt x="344" y="708" on="0"/>
        <pt x="380" y="745" on="0"/>
        <pt x="432" y="745" on="0"/>
        <pt x="467" y="709" on="0"/>
      </contour>
    </TTGlyph>
    <TTGlyph name="Agrave" xMin="10" yMin="0" xMax="633" yMax="760">
      <contour>
        <pt x="633" y="20" on="1"/>
        <pt x="633" y="0" on="1"/>
        <pt x="370" y="0" on="1"/>
        <pt x="370" y="20" on="1"/>
        <pt x="429" y="20" on="1"/>
        <pt x="362" y="159" on="1"/>
        <pt x="160" y="159" on="1"/>
        <pt x="102" y="20" on="1"/>
        <pt x="181" y="20" on="1"/>
        <pt x="181" y="0" on="1"/>
        <pt x="10" y="0" on="1"/>
        <pt x="10" y="20" on="1"/>
        <pt x="77" y="20" on="1"/>
        <pt x="306" y="570" on="1"/>
        <pt x="331" y="570" on="1"/>
        <pt x="585" y="20" on="1"/>
      </contour>
      <contour>
        <pt x="169" y="180" on="1"/>
        <pt x="352" y="180" on="1"/>
        <pt x="254" y="384" on="1"/>
      </contour>
      <contour>
        <pt x="332" y="611" on="1"/>
        <pt x="318" y="601" on="1"/>
        <pt x="299" y="628" on="0"/>
        <pt x="219" y="650" on="0"/>
        <pt x="189" y="692" on="0"/>
        <pt x="199" y="741" on="0"/>
        <pt x="220" y="750" on="1"/>
        <pt x="236" y="760" on="0"/>
        <pt x="278" y="749" on="0"/>
        <pt x="306" y="710" on="0"/>
        <pt x="315" y="636" on="0"/>
      </contour>
    </TTGlyph>
    <TTGlyph name="Amacron" xMin="10" yMin="0" xMax="633" yMax="707">
      <contour>
        <pt x="633" y="20" on="1"/>
        <pt x="633" y="0" on="1"/>
        <pt x="370" y="0" on="1"/>
        <pt x="370" y="20" on="1"/>
        <pt x="429" y="20" on="1"/>
        <pt x="362" y="159" on="1"/>
        <pt x="160" y="159" on="1"/>
        <pt x="102" y="20" on="1"/>
        <pt x="181" y="20" on="1"/>
        <pt x="181" y="0" on="1"/>
        <pt x="10" y="0" on="1"/>
        <pt x="10" y="20" on="1"/>
        <pt x="77" y="20" on="1"/>
        <pt x="306" y="570" on="1"/>
        <pt x="331" y="570" on="1"/>
        <pt x="585" y="20" on="1"/>
      </contour>
      <contour>
        <pt x="169" y="180" on="1"/>
        <pt x="352" y="180" on="1"/>
        <pt x="254" y="384" on="1"/>
      </contour>
      <contour>
        <pt x="420" y="707" on="1"/>
        <pt x="420" y="657" on="1"/>
        <pt x="220" y="657" on="1"/>
        <pt x="220" y="707" on="1"/>
      </contour>
    </TTGlyph>
    <TTGlyph name="Aogonek" xMin="10" yMin="-177" xMax="633" yMax="570">
      <contour>
        <pt x="633" y="0" on="1"/>
        <pt x="552" y="0" on="1"/>
        <pt x="488" y="-88" on="0"/>
        <pt x="532" y="-121" on="1"/>
        <pt x="563" y="-142" on="0"/>
        <pt x="588" y="-119" on="1"/>
        <pt x="598" y="-131" on="1"/>
        <pt x="562" y="-177" on="0"/>
        <pt x="516" y="-177" on="1"/>
        <pt x="473" y="-177" on="0"/>
        <pt x="457" y="-148" on="1"/>
        <pt x="439" y="-116" on="0"/>
        <pt x="472" y="-64" on="1"/>
        <pt x="490" y="-34" on="0"/>
        <pt x="526" y="0" on="1"/>
        <pt x="370" y="0" on="1"/>
        <pt x="370" y="20" on="1"/>
        <pt x="429" y="20" on="1"/>
        <pt x="362" y="159" on="1"/>
        <pt x="160" y="159" on="1"/>
        <pt x="102" y="20" on="1"/>
        <pt x="181" y="20" on="1"/>
        <pt x="181" y="0" on="1"/>
        <pt x="10" y="0" on="1"/>
        <pt x="10" y="20" on="1"/>
        <pt x="77" y="20" on="1"/>
        <pt x="306" y="570" on="1"/>
        <pt x="331" y="570" on="1"/>
        <pt x="585" y="20" on="1"/>
        <pt x="633" y="20" on="1"/>
      </contour>
      <contour>
        <pt x="169" y="180" on="1"/>
        <pt x="352" y="180" on="1"/>
        <pt x="254" y="384" on="1"/>
      </contour>
    </TTGlyph>
    <TTGlyph name="Aring" xMin="10" yMin="0" xMax="633" yMax="767">
      <contour>
        <pt x="633" y="20" on="1"/>
        <pt x="633" y="0" on="1"/>
        <pt x="370" y="0" on="1"/>
        <pt x="370" y="20" on="1"/>
        <pt x="429" y="20" on="1"/>
        <pt x="362" y="159" on="1"/>
        <pt x="160" y="159" on="1"/>
        <pt x="102" y="20" on="1"/>
        <pt x="181" y="20" on="1"/>
        <pt x="181" y="0" on="1"/>
        <pt x="10" y="0" on="1"/>
        <pt x="10" y="20" on="1"/>
        <pt x="77" y="20" on="1"/>
        <pt x="306" y="570" on="1"/>
        <pt x="331" y="570" on="1"/>
        <pt x="585" y="20" on="1"/>
      </contour>
      <contour>
        <pt x="169" y="180" on="1"/>
        <pt x="352" y="180" on="1"/>
        <pt x="254" y="384" on="1"/>
      </contour>
      <contour>
        <pt x="400" y="648" on="0"/>
        <pt x="350" y="598" on="0"/>
        <pt x="281" y="598" on="0"/>
        <pt x="232" y="647" on="0"/>
        <pt x="232" y="717" on="0"/>
        <pt x="281" y="767" on="0"/>
        <pt x="350" y="767" on="0"/>
        <pt x="400" y="716" on="0"/>
      </contour>
      <contour>
        <pt x="334" y="727" on="0"/>
        <pt x="296" y="727" on="0"/>
        <pt x="272" y="701" on="0"/>
        <pt x="272" y="664" on="0"/>
        <pt x="297" y="635" on="0"/>
        <pt x="333" y="635" on="0"/>
        <pt x="359" y="664" on="0"/>
        <pt x="359" y="701" on="0"/>
      </contour>
    </TTGlyph>
    <TTGlyph name="Atilde" xMin="10" yMin="0" xMax="633" yMax="726">
      <contour>
        <pt x="633" y="20" on="1"/>
        <pt x="633" y="0" on="1"/>
        <pt x="370" y="0" on="1"/>
        <pt x="370" y="20" on="1"/>
        <pt x="429" y="20" on="1"/>
        <pt x="362" y="159" on="1"/>
        <pt x="160" y="159" on="1"/>
        <pt x="102" y="20" on="1"/>
        <pt x="181" y="20" on="1"/>
        <pt x="181" y="0" on="1"/>
        <pt x="10" y="0" on="1"/>
        <pt x="10" y="20" on="1"/>
        <pt x="77" y="20" on="1"/>
        <pt x="306" y="570" on="1"/>
        <pt x="331" y="570" on="1"/>
        <pt x="585" y="20" on="1"/>
      </contour>
      <contour>
        <pt x="169" y="180" on="1"/>
        <pt x="352" y="180" on="1"/>
        <pt x="254" y="384" on="1"/>
      </contour>
      <contour>
        <pt x="400" y="721" on="1"/>
        <pt x="420" y="721" on="1"/>
        <pt x="420" y="625" on="0"/>
        <pt x="352" y="625" on="1"/>
        <pt x="332" y="625" on="0"/>
        <pt x="280" y="657" on="0"/>
        <pt x="266" y="657" on="1"/>
        <pt x="242" y="657" on="0"/>
        <pt x="242" y="630" on="1"/>
        <pt x="222" y="630" on="1"/>
        <pt x="222" y="726" on="0"/>
        <pt x="289" y="726" on="1"/>
        <pt x="308" y="726" on="0"/>
        <pt x="360" y="695" on="0"/>
        <pt x="374" y="695" on="1"/>
        <pt x="400" y="695" on="0"/>
      </contour>
    </TTGlyph>
    <TTGlyph name="B" xMin="40" yMin="0" xMax="576" yMax="560">
      <contour>
        <pt x="240" y="306" on="1"/>
        <pt x="271" y="306" on="1"/>
        <pt x="392" y="306" on="0"/>
        <pt x="392" y="421" on="1"/>
        <pt x="392" y="540" on="0"/>
        <pt x="271" y="540" on="1"/>
        <pt x="240" y="540" on="1"/>
      </contour>
      <contour>
        <pt x="240" y="20" on="1"/>
        <pt x="296" y="20" on="1"/>
        <pt x="356" y="20" on="0"/>
        <pt x="426" y="82" on="0"/>
        <pt x="426" y="141" on="1"/>
        <pt x="426" y="224" on="0"/>
        <pt x="344" y="286" on="0"/>
        <pt x="272" y="286" on="1"/>
        <pt x="240" y="286" on="1"/>
      </contour>
      <contour>
        <pt x="40" y="0" on="1"/>
        <pt x="40" y="20" on="1"/>
        <pt x="90" y="20" on="1"/>
        <pt x="90" y="540" on="1"/>
        <pt x="40" y="540" on="1"/>
        <pt x="40" y="560" on="1"/>
        <pt x="292" y="560" on="1"/>
        <pt x="416" y="560" on="0"/>
        <pt x="533" y="484" on="0"/>
        <pt x="533" y="418" on="1"/>
        <pt x="533" y="365" on="0"/>
        <pt x="464" y="298" on="0"/>
        <pt x="406" y="298" on="1"/>
        <pt x="406" y="292" on="1"/>
        <pt x="478" y="292" on="0"/>
        <pt x="576" y="215" on="0"/>
        <pt x="576" y="73" on="0"/>
        <pt x="462" y="0" on="0"/>
        <pt x="356" y="0" on="1"/>
      </contour>
    </TTGlyph>
    <TTGlyph name="C" xMin="25" yMin="-15" xMax="535" yMax="573">
      <contour>
        <pt x="525" y="337" on="1"/>
        <pt x="505" y="337" on="1"/>
        <pt x="505" y="417" on="0"/>
        <pt x="403" y="553" on="0"/>
        <pt x="308" y="553" on="1"/>
        <pt x="255" y="553" on="0"/>
        <pt x="186" y="429" on="0"/>
        <pt x="186" y="129" on="0"/>
        <pt x="255" y="5" on="0"/>
        <pt x="402" y="5" on="0"/>
        <pt x="503" y="97" on="0"/>
        <pt x="515" y="181" on="1"/>
        <pt x="535" y="181" on="1"/>
        <pt x="521" y="82" on="0"/>
        <pt x="410" y="-15" on="0"/>
        <pt x="333" y="-15" on="1"/>
        <pt x="184" y="-15" on="0"/>
        <pt x="25" y="128" on="0"/>
        <pt x="25" y="433" on="0"/>
        <pt x="180" y="573" on="0"/>
        <pt x="308" y="573" on="1"/>
        <pt x="377" y="573" on="0"/>
        <pt x="442" y="536" on="1"/>
        <pt x="463" y="523" on="0"/>
        <pt x="490" y="523" on="0"/>
        <pt x="506" y="548" on="0"/>
        <pt x="506" y="560" on="1"/>
        <pt x="525" y="560" on="1"/>
      </contour>
    </TTGlyph>
    <TTGlyph name="Cacute" xMin="25" yMin="-15" xMax="535" yMax="760">
      <contour>
        <pt x="525" y="337" on="1"/>
        <pt x="505" y="337" on="1"/>
        <pt x="505" y="417" on="0"/>
        <pt x="403" y="553" on="0"/>
        <pt x="308" y="553" on="1"/>
        <pt x="255" y="553" on="0"/>
        <pt x="186" y="429" on="0"/>
        <pt x="186" y="129" on="0"/>
        <pt x="255" y="5" on="0"/>
        <pt x="402" y="5" on="0"/>
        <pt x="503" y="97" on="0"/>
        <pt x="515" y="181" on="1"/>
        <pt x="535" y="181" on="1"/>
        <pt x="521" y="82" on="0"/>
        <pt x="410" y="-15" on="0"/>
        <pt x="333" y="-15" on="1"/>
        <pt x="184" y="-15" on="0"/>
        <pt x="25" y="128" on="0"/>
        <pt x="25" y="433" on="0"/>
        <pt x="180" y="573" on="0"/>
        <pt x="308" y="573" on="1"/>
        <pt x="377" y="573" on="0"/>
        <pt x="442" y="536" on="1"/>
        <pt x="463" y="523" on="0"/>
        <pt x="490" y="523" on="0"/>
        <pt x="506" y="548" on="0"/>
        <pt x="506" y="560" on="1"/>
        <pt x="525" y="560" on="1"/>
      </contour>
      <contour>
        <pt x="292" y="601" on="1"/>
        <pt x="278" y="611" on="1"/>
        <pt x="295" y="636" on="0"/>
        <pt x="304" y="710" on="0"/>
        <pt x="332" y="749" on="0"/>
        <pt x="374" y="760" on="0"/>
        <pt x="390" y="750" on="1"/>
        <pt x="411" y="741" on="0"/>
        <pt x="421" y="692" on="0"/>
        <pt x="391" y="650" on="0"/>
        <pt x="311" y="628" on="0"/>
      </contour>
    </TTGlyph>
    <TTGlyph name="Ccaron" xMin="25" yMin="-15" xMax="535" yMax="751">
      <contour>
        <pt x="525" y="337" on="1"/>
        <pt x="505" y="337" on="1"/>
        <pt x="505" y="417" on="0"/>
        <pt x="403" y="553" on="0"/>
        <pt x="308" y="553" on="1"/>
        <pt x="255" y="553" on="0"/>
        <pt x="186" y="429" on="0"/>
        <pt x="186" y="129" on="0"/>
        <pt x="255" y="5" on="0"/>
        <pt x="402" y="5" on="0"/>
        <pt x="503" y="97" on="0"/>
        <pt x="515" y="181" on="1"/>
        <pt x="535" y="181" on="1"/>
        <pt x="521" y="82" on="0"/>
        <pt x="410" y="-15" on="0"/>
        <pt x="333" y="-15" on="1"/>
        <pt x="184" y="-15" on="0"/>
        <pt x="25" y="128" on="0"/>
        <pt x="25" y="433" on="0"/>
        <pt x="180" y="573" on="0"/>
        <pt x="308" y="573" on="1"/>
        <pt x="377" y="573" on="0"/>
        <pt x="442" y="536" on="1"/>
        <pt x="463" y="523" on="0"/>
        <pt x="490" y="523" on="0"/>
        <pt x="506" y="548" on="0"/>
        <pt x="506" y="560" on="1"/>
        <pt x="525" y="560" on="1"/>
      </contour>
      <contour>
        <pt x="229" y="751" on="1"/>
        <pt x="317" y="711" on="1"/>
        <pt x="405" y="751" on="1"/>
        <pt x="414" y="742" on="1"/>
        <pt x="326" y="614" on="1"/>
        <pt x="307" y="614" on="1"/>
        <pt x="220" y="742" on="1"/>
      </contour>
    </TTGlyph>
    <TTGlyph name="Ccedilla" xMin="25" yMin="-242" xMax="535" yMax="573">
      <contour>
        <pt x="333" y="-15" on="1"/>
        <pt x="184" y="-15" on="0"/>
        <pt x="25" y="128" on="0"/>
        <pt x="25" y="433" on="0"/>
        <pt x="180" y="573" on="0"/>
        <pt x="308" y="573" on="1"/>
        <pt x="377" y="573" on="0"/>
        <pt x="442" y="536" on="1"/>
        <pt x="463" y="523" on="0"/>
        <pt x="490" y="523" on="0"/>
        <pt x="506" y="548" on="0"/>
        <pt x="506" y="560" on="1"/>
        <pt x="525" y="560" on="1"/>
        <pt x="525" y="337" on="1"/>
        <pt x="505" y="337" on="1"/>
        <pt x="505" y="417" on="0"/>
        <pt x="403" y="553" on="0"/>
        <pt x="308" y="553" on="1"/>
        <pt x="255" y="553" on="0"/>
        <pt x="186" y="429" on="0"/>
        <pt x="186" y="129" on="0"/>
        <pt x="255" y="5" on="0"/>
        <pt x="402" y="5" on="0"/>
        <pt x="503" y="97" on="0"/>
        <pt x="515" y="181" on="1"/>
        <pt x="535" y="181" on="1"/>
        <pt x="523" y="92" on="0"/>
        <pt x="430" y="-4" on="0"/>
        <pt x="363" y="-13" on="1"/>
        <pt x="327" y="-77" on="1"/>
        <pt x="377" y="-78" on="0"/>
        <pt x="442" y="-123" on="0"/>
        <pt x="438" y="-160" on="1"/>
        <pt x="430" y="-242" on="0"/>
        <pt x="337" y="-238" on="1"/>
        <pt x="308" y="-237" on="0"/>
        <pt x="264" y="-214" on="0"/>
        <pt x="257" y="-203" on="1"/>
        <pt x="250" y="-192" on="1"/>
        <pt x="266" y="-177" on="1"/>
        <pt x="289" y="-217" on="0"/>
        <pt x="362" y="-212" on="0"/>
        <pt x="370" y="-171" on="1"/>
        <pt x="376" y="-135" on="0"/>
        <pt x="326" y="-92" on="0"/>
        <pt x="292" y="-92" on="1"/>
        <pt x="334" y="-15" on="1"/>
      </contour>
    </TTGlyph>
    <TTGlyph name="Cdotaccent" xMin="25" yMin="-15" xMax="535" yMax="745">
      <contour>
        <pt x="525" y="337" on="1"/>
        <pt x="505" y="337" on="1"/>
        <pt x="505" y="417" on="0"/>
        <pt x="403" y="553" on="0"/>
        <pt x="308" y="553" on="1"/>
        <pt x="255" y="553" on="0"/>
        <pt x="186" y="429" on="0"/>
        <pt x="186" y="129" on="0"/>
        <pt x="255" y="5" on="0"/>
        <pt x="402" y="5" on="0"/>
        <pt x="503" y="97" on="0"/>
        <pt x="515" y="181" on="1"/>
        <pt x="535" y="181" on="1"/>
        <pt x="521" y="82" on="0"/>
        <pt x="410" y="-15" on="0"/>
        <pt x="333" y="-15" on="1"/>
        <pt x="184" y="-15" on="0"/>
        <pt x="25" y="128" on="0"/>
        <pt x="25" y="433" on="0"/>
        <pt x="180" y="573" on="0"/>
        <pt x="308" y="573" on="1"/>
        <pt x="377" y="573" on="0"/>
        <pt x="442" y="536" on="1"/>
        <pt x="463" y="523" on="0"/>
        <pt x="490" y="523" on="0"/>
        <pt x="506" y="548" on="0"/>
        <pt x="506" y="560" on="1"/>
        <pt x="525" y="560" on="1"/>
      </contour>
      <contour>
        <pt x="315" y="745" on="0"/>
        <pt x="351" y="708" on="0"/>
        <pt x="351" y="657" on="0"/>
        <pt x="315" y="621" on="0"/>
        <pt x="264" y="621" on="0"/>
        <pt x="226" y="657" on="0"/>
        <pt x="226" y="708" on="0"/>
        <pt x="264" y="745" on="0"/>
      </contour>
    </TTGlyph>
    <TTGlyph name="D" xMin="40" yMin="0" xMax="595" yMax="560">
      <contour>
        <pt x="290" y="0" on="1"/>
        <pt x="40" y="0" on="1"/>
        <pt x="40" y="20" on="1"/>
        <pt x="90" y="20" on="1"/>
        <pt x="90" y="540" on="1"/>
        <pt x="40" y="540" on="1"/>
        <pt x="40" y="560" on="1"/>
        <pt x="290" y="560" on="1"/>
        <pt x="364" y="560" on="0"/>
        <pt x="483" y="511" on="0"/>
        <pt x="520" y="471" on="1"/>
        <pt x="595" y="388" on="0"/>
        <pt x="595" y="283" on="1"/>
        <pt x="595" y="141" on="0"/>
        <pt x="445" y="0" on="0"/>
      </contour>
      <contour>
        <pt x="240" y="20" on="1"/>
        <pt x="348" y="20" on="0"/>
        <pt x="444" y="137" on="0"/>
        <pt x="444" y="402" on="0"/>
        <pt x="340" y="540" on="0"/>
        <pt x="240" y="540" on="1"/>
      </contour>
    </TTGlyph>
    <TTGlyph name="Dcaron" xMin="40" yMin="0" xMax="595" yMax="751">
      <contour>
        <pt x="189" y="751" on="1"/>
        <pt x="277" y="711" on="1"/>
        <pt x="365" y="751" on="1"/>
        <pt x="374" y="742" on="1"/>
        <pt x="286" y="614" on="1"/>
        <pt x="267" y="614" on="1"/>
        <pt x="180" y="742" on="1"/>
      </contour>
      <contour>
        <pt x="290" y="0" on="1"/>
        <pt x="40" y="0" on="1"/>
        <pt x="40" y="20" on="1"/>
        <pt x="90" y="20" on="1"/>
        <pt x="90" y="540" on="1"/>
        <pt x="40" y="540" on="1"/>
        <pt x="40" y="560" on="1"/>
        <pt x="290" y="560" on="1"/>
        <pt x="364" y="560" on="0"/>
        <pt x="483" y="511" on="0"/>
        <pt x="520" y="471" on="1"/>
        <pt x="595" y="388" on="0"/>
        <pt x="595" y="283" on="1"/>
        <pt x="595" y="141" on="0"/>
        <pt x="445" y="0" on="0"/>
      </contour>
      <contour>
        <pt x="240" y="20" on="1"/>
        <pt x="348" y="20" on="0"/>
        <pt x="444" y="137" on="0"/>
        <pt x="444" y="402" on="0"/>
        <pt x="340" y="540" on="0"/>
        <pt x="240" y="540" on="1"/>
      </contour>
    </TTGlyph>
    <TTGlyph name="Dcroat" xMin="40" yMin="0" xMax="595" yMax="560">
      <contour>
        <pt x="40" y="560" on="1"/>
        <pt x="290" y="560" on="1"/>
        <pt x="364" y="560" on="0"/>
        <pt x="483" y="511" on="0"/>
        <pt x="520" y="471" on="1"/>
        <pt x="595" y="388" on="0"/>
        <pt x="595" y="283" on="1"/>
        <pt x="595" y="141" on="0"/>
        <pt x="445" y="0" on="0"/>
        <pt x="290" y="0" on="1"/>
        <pt x="40" y="0" on="1"/>
        <pt x="40" y="20" on="1"/>
        <pt x="90" y="20" on="1"/>
        <pt x="90" y="278" on="1"/>
        <pt x="40" y="278" on="1"/>
        <pt x="40" y="298" on="1"/>
        <pt x="90" y="298" on="1"/>
        <pt x="90" y="540" on="1"/>
        <pt x="40" y="540" on="1"/>
      </contour>
      <contour>
        <pt x="240" y="278" on="1"/>
        <pt x="240" y="20" on="1"/>
        <pt x="348" y="20" on="0"/>
        <pt x="444" y="137" on="0"/>
        <pt x="444" y="402" on="0"/>
        <pt x="340" y="540" on="0"/>
        <pt x="240" y="540" on="1"/>
        <pt x="240" y="298" on="1"/>
        <pt x="357" y="298" on="1"/>
        <pt x="357" y="278" on="1"/>
      </contour>
    </TTGlyph>
    <TTGlyph name="E" xMin="40" yMin="0" xMax="510" yMax="560">
      <contour>
        <pt x="340" y="20" on="1"/>
        <pt x="490" y="20" on="0"/>
        <pt x="490" y="190" on="1"/>
        <pt x="510" y="190" on="1"/>
        <pt x="510" y="0" on="1"/>
        <pt x="40" y="0" on="1"/>
        <pt x="40" y="20" on="1"/>
        <pt x="90" y="20" on="1"/>
        <pt x="90" y="540" on="1"/>
        <pt x="40" y="540" on="1"/>
        <pt x="40" y="560" on="1"/>
        <pt x="500" y="560" on="1"/>
        <pt x="500" y="390" on="1"/>
        <pt x="480" y="390" on="1"/>
        <pt x="480" y="479" on="0"/>
        <pt x="409" y="540" on="0"/>
        <pt x="330" y="540" on="1"/>
        <pt x="240" y="540" on="1"/>
        <pt x="240" y="300" on="1"/>
        <pt x="280" y="300" on="1"/>
        <pt x="352" y="300" on="0"/>
        <pt x="390" y="336" on="0"/>
        <pt x="390" y="390" on="1"/>
        <pt x="410" y="390" on="1"/>
        <pt x="410" y="190" on="1"/>
        <pt x="390" y="190" on="1"/>
        <pt x="390" y="246" on="0"/>
        <pt x="352" y="280" on="0"/>
        <pt x="280" y="280" on="1"/>
        <pt x="240" y="280" on="1"/>
        <pt x="240" y="20" on="1"/>
      </contour>
    </TTGlyph>
    <TTGlyph name="Eacute" xMin="40" yMin="0" xMax="510" yMax="760">
      <contour>
        <pt x="258" y="611" on="1"/>
        <pt x="275" y="636" on="0"/>
        <pt x="284" y="710" on="0"/>
        <pt x="312" y="749" on="0"/>
        <pt x="354" y="760" on="0"/>
        <pt x="370" y="750" on="1"/>
        <pt x="391" y="741" on="0"/>
        <pt x="401" y="692" on="0"/>
        <pt x="371" y="650" on="0"/>
        <pt x="291" y="628" on="0"/>
        <pt x="272" y="601" on="1"/>
      </contour>
      <contour>
        <pt x="340" y="20" on="1"/>
        <pt x="490" y="20" on="0"/>
        <pt x="490" y="190" on="1"/>
        <pt x="510" y="190" on="1"/>
        <pt x="510" y="0" on="1"/>
        <pt x="40" y="0" on="1"/>
        <pt x="40" y="20" on="1"/>
        <pt x="90" y="20" on="1"/>
        <pt x="90" y="540" on="1"/>
        <pt x="40" y="540" on="1"/>
        <pt x="40" y="560" on="1"/>
        <pt x="500" y="560" on="1"/>
        <pt x="500" y="390" on="1"/>
        <pt x="480" y="390" on="1"/>
        <pt x="480" y="479" on="0"/>
        <pt x="409" y="540" on="0"/>
        <pt x="330" y="540" on="1"/>
        <pt x="240" y="540" on="1"/>
        <pt x="240" y="300" on="1"/>
        <pt x="280" y="300" on="1"/>
        <pt x="352" y="300" on="0"/>
        <pt x="390" y="336" on="0"/>
        <pt x="390" y="390" on="1"/>
        <pt x="410" y="390" on="1"/>
        <pt x="410" y="190" on="1"/>
        <pt x="390" y="190" on="1"/>
        <pt x="390" y="246" on="0"/>
        <pt x="352" y="280" on="0"/>
        <pt x="280" y="280" on="1"/>
        <pt x="240" y="280" on="1"/>
        <pt x="240" y="20" on="1"/>
      </contour>
    </TTGlyph>
    <TTGlyph name="Ebreve" xMin="40" yMin="0" xMax="510" yMax="745">
      <contour>
        <pt x="220" y="745" on="1"/>
        <pt x="220" y="696" on="0"/>
        <pt x="364" y="696" on="0"/>
        <pt x="364" y="745" on="1"/>
        <pt x="384" y="745" on="1"/>
        <pt x="384" y="685" on="0"/>
        <pt x="343" y="620" on="0"/>
        <pt x="293" y="620" on="1"/>
        <pt x="200" y="620" on="0"/>
        <pt x="200" y="745" on="1"/>
      </contour>
      <contour>
        <pt x="340" y="20" on="1"/>
        <pt x="490" y="20" on="0"/>
        <pt x="490" y="190" on="1"/>
        <pt x="510" y="190" on="1"/>
        <pt x="510" y="0" on="1"/>
        <pt x="40" y="0" on="1"/>
        <pt x="40" y="20" on="1"/>
        <pt x="90" y="20" on="1"/>
        <pt x="90" y="540" on="1"/>
        <pt x="40" y="540" on="1"/>
        <pt x="40" y="560" on="1"/>
        <pt x="500" y="560" on="1"/>
        <pt x="500" y="390" on="1"/>
        <pt x="480" y="390" on="1"/>
        <pt x="480" y="479" on="0"/>
        <pt x="409" y="540" on="0"/>
        <pt x="330" y="540" on="1"/>
        <pt x="240" y="540" on="1"/>
        <pt x="240" y="300" on="1"/>
        <pt x="280" y="300" on="1"/>
        <pt x="352" y="300" on="0"/>
        <pt x="390" y="336" on="0"/>
        <pt x="390" y="390" on="1"/>
        <pt x="410" y="390" on="1"/>
        <pt x="410" y="190" on="1"/>
        <pt x="390" y="190" on="1"/>
        <pt x="390" y="246" on="0"/>
        <pt x="352" y="280" on="0"/>
        <pt x="280" y="280" on="1"/>
        <pt x="240" y="280" on="1"/>
        <pt x="240" y="20" on="1"/>
      </contour>
    </TTGlyph>
    <TTGlyph name="Ecaron" xMin="40" yMin="0" xMax="510" yMax="751">
      <contour>
        <pt x="209" y="751" on="1"/>
        <pt x="297" y="711" on="1"/>
        <pt x="385" y="751" on="1"/>
        <pt x="394" y="742" on="1"/>
        <pt x="306" y="614" on="1"/>
        <pt x="287" y="614" on="1"/>
        <pt x="200" y="742" on="1"/>
      </contour>
      <contour>
        <pt x="340" y="20" on="1"/>
        <pt x="490" y="20" on="0"/>
        <pt x="490" y="190" on="1"/>
        <pt x="510" y="190" on="1"/>
        <pt x="510" y="0" on="1"/>
        <pt x="40" y="0" on="1"/>
        <pt x="40" y="20" on="1"/>
        <pt x="90" y="20" on="1"/>
        <pt x="90" y="540" on="1"/>
        <pt x="40" y="540" on="1"/>
        <pt x="40" y="560" on="1"/>
        <pt x="500" y="560" on="1"/>
        <pt x="500" y="390" on="1"/>
        <pt x="480" y="390" on="1"/>
        <pt x="480" y="479" on="0"/>
        <pt x="409" y="540" on="0"/>
        <pt x="330" y="540" on="1"/>
        <pt x="240" y="540" on="1"/>
        <pt x="240" y="300" on="1"/>
        <pt x="280" y="300" on="1"/>
        <pt x="352" y="300" on="0"/>
        <pt x="390" y="336" on="0"/>
        <pt x="390" y="390" on="1"/>
        <pt x="410" y="390" on="1"/>
        <pt x="410" y="190" on="1"/>
        <pt x="390" y="190" on="1"/>
        <pt x="390" y="246" on="0"/>
        <pt x="352" y="280" on="0"/>
        <pt x="280" y="280" on="1"/>
        <pt x="240" y="280" on="1"/>
        <pt x="240" y="20" on="1"/>
      </contour>
    </TTGlyph>
    <TTGlyph name="Ecircumflex" xMin="40" yMin="0" xMax="510" yMax="751">
      <contour>
        <pt x="207" y="614" on="1"/>
        <pt x="198" y="623" on="1"/>
        <pt x="285" y="751" on="1"/>
        <pt x="304" y="751" on="1"/>
        <pt x="392" y="623" on="1"/>
        <pt x="383" y="614" on="1"/>
        <pt x="295" y="654" on="1"/>
      </contour>
      <contour>
        <pt x="340" y="20" on="1"/>
        <pt x="490" y="20" on="0"/>
        <pt x="490" y="190" on="1"/>
        <pt x="510" y="190" on="1"/>
        <pt x="510" y="0" on="1"/>
        <pt x="40" y="0" on="1"/>
        <pt x="40" y="20" on="1"/>
        <pt x="90" y="20" on="1"/>
        <pt x="90" y="540" on="1"/>
        <pt x="40" y="540" on="1"/>
        <pt x="40" y="560" on="1"/>
        <pt x="500" y="560" on="1"/>
        <pt x="500" y="390" on="1"/>
        <pt x="480" y="390" on="1"/>
        <pt x="480" y="479" on="0"/>
        <pt x="409" y="540" on="0"/>
        <pt x="330" y="540" on="1"/>
        <pt x="240" y="540" on="1"/>
        <pt x="240" y="300" on="1"/>
        <pt x="280" y="300" on="1"/>
        <pt x="352" y="300" on="0"/>
        <pt x="390" y="336" on="0"/>
        <pt x="390" y="390" on="1"/>
        <pt x="410" y="390" on="1"/>
        <pt x="410" y="190" on="1"/>
        <pt x="390" y="190" on="1"/>
        <pt x="390" y="246" on="0"/>
        <pt x="352" y="280" on="0"/>
        <pt x="280" y="280" on="1"/>
        <pt x="240" y="280" on="1"/>
        <pt x="240" y="20" on="1"/>
      </contour>
    </TTGlyph>
    <TTGlyph name="Edieresis" xMin="40" yMin="0" xMax="510" yMax="745">
      <contour>
        <pt x="229" y="745" on="0"/>
        <pt x="265" y="708" on="0"/>
        <pt x="265" y="657" on="0"/>
        <pt x="229" y="621" on="0"/>
        <pt x="178" y="621" on="0"/>
        <pt x="140" y="657" on="0"/>
        <pt x="140" y="708" on="0"/>
        <pt x="178" y="745" on="0"/>
      </contour>
      <contour>
        <pt x="401" y="745" on="0"/>
        <pt x="436" y="709" on="0"/>
        <pt x="436" y="656" on="0"/>
        <pt x="401" y="621" on="0"/>
        <pt x="349" y="621" on="0"/>
        <pt x="313" y="657" on="0"/>
        <pt x="313" y="708" on="0"/>
        <pt x="349" y="745" on="0"/>
      </contour>
      <contour>
        <pt x="340" y="20" on="1"/>
        <pt x="490" y="20" on="0"/>
        <pt x="490" y="190" on="1"/>
        <pt x="510" y="190" on="1"/>
        <pt x="510" y="0" on="1"/>
        <pt x="40" y="0" on="1"/>
        <pt x="40" y="20" on="1"/>
        <pt x="90" y="20" on="1"/>
        <pt x="90" y="540" on="1"/>
        <pt x="40" y="540" on="1"/>
        <pt x="40" y="560" on="1"/>
        <pt x="500" y="560" on="1"/>
        <pt x="500" y="390" on="1"/>
        <pt x="480" y="390" on="1"/>
        <pt x="480" y="479" on="0"/>
        <pt x="409" y="540" on="0"/>
        <pt x="330" y="540" on="1"/>
        <pt x="240" y="540" on="1"/>
        <pt x="240" y="300" on="1"/>
        <pt x="280" y="300" on="1"/>
        <pt x="352" y="300" on="0"/>
        <pt x="390" y="336" on="0"/>
        <pt x="390" y="390" on="1"/>
        <pt x="410" y="390" on="1"/>
        <pt x="410" y="190" on="1"/>
        <pt x="390" y="190" on="1"/>
        <pt x="390" y="246" on="0"/>
        <pt x="352" y="280" on="0"/>
        <pt x="280" y="280" on="1"/>
        <pt x="240" y="280" on="1"/>
        <pt x="240" y="20" on="1"/>
      </contour>
    </TTGlyph>
    <TTGlyph name="Edotaccent" xMin="40" yMin="0" xMax="510" yMax="745">
      <contour>
        <pt x="328" y="745" on="0"/>
        <pt x="364" y="708" on="0"/>
        <pt x="364" y="657" on="0"/>
        <pt x="328" y="621" on="0"/>
        <pt x="277" y="621" on="0"/>
        <pt x="239" y="657" on="0"/>
        <pt x="239" y="708" on="0"/>
        <pt x="277" y="745" on="0"/>
      </contour>
      <contour>
        <pt x="340" y="20" on="1"/>
        <pt x="490" y="20" on="0"/>
        <pt x="490" y="190" on="1"/>
        <pt x="510" y="190" on="1"/>
        <pt x="510" y="0" on="1"/>
        <pt x="40" y="0" on="1"/>
        <pt x="40" y="20" on="1"/>
        <pt x="90" y="20" on="1"/>
        <pt x="90" y="540" on="1"/>
        <pt x="40" y="540" on="1"/>
        <pt x="40" y="560" on="1"/>
        <pt x="500" y="560" on="1"/>
        <pt x="500" y="390" on="1"/>
        <pt x="480" y="390" on="1"/>
        <pt x="480" y="479" on="0"/>
        <pt x="409" y="540" on="0"/>
        <pt x="330" y="540" on="1"/>
        <pt x="240" y="540" on="1"/>
        <pt x="240" y="300" on="1"/>
        <pt x="280" y="300" on="1"/>
        <pt x="352" y="300" on="0"/>
        <pt x="390" y="336" on="0"/>
        <pt x="390" y="390" on="1"/>
        <pt x="410" y="390" on="1"/>
        <pt x="410" y="190" on="1"/>
        <pt x="390" y="190" on="1"/>
        <pt x="390" y="246" on="0"/>
        <pt x="352" y="280" on="0"/>
        <pt x="280" y="280" on="1"/>
        <pt x="240" y="280" on="1"/>
        <pt x="240" y="20" on="1"/>
      </contour>
    </TTGlyph>
    <TTGlyph name="Egrave" xMin="40" yMin="0" xMax="510" yMax="760">
      <contour>
        <pt x="329" y="611" on="1"/>
        <pt x="315" y="601" on="1"/>
        <pt x="296" y="628" on="0"/>
        <pt x="216" y="650" on="0"/>
        <pt x="186" y="692" on="0"/>
        <pt x="196" y="741" on="0"/>
        <pt x="217" y="750" on="1"/>
        <pt x="233" y="760" on="0"/>
        <pt x="275" y="749" on="0"/>
        <pt x="303" y="710" on="0"/>
        <pt x="312" y="636" on="0"/>
      </contour>
      <contour>
        <pt x="340" y="20" on="1"/>
        <pt x="490" y="20" on="0"/>
        <pt x="490" y="190" on="1"/>
        <pt x="510" y="190" on="1"/>
        <pt x="510" y="0" on="1"/>
        <pt x="40" y="0" on="1"/>
        <pt x="40" y="20" on="1"/>
        <pt x="90" y="20" on="1"/>
        <pt x="90" y="540" on="1"/>
        <pt x="40" y="540" on="1"/>
        <pt x="40" y="560" on="1"/>
        <pt x="500" y="560" on="1"/>
        <pt x="500" y="390" on="1"/>
        <pt x="480" y="390" on="1"/>
        <pt x="480" y="479" on="0"/>
        <pt x="409" y="540" on="0"/>
        <pt x="330" y="540" on="1"/>
        <pt x="240" y="540" on="1"/>
        <pt x="240" y="300" on="1"/>
        <pt x="280" y="300" on="1"/>
        <pt x="352" y="300" on="0"/>
        <pt x="390" y="336" on="0"/>
        <pt x="390" y="390" on="1"/>
        <pt x="410" y="390" on="1"/>
        <pt x="410" y="190" on="1"/>
        <pt x="390" y="190" on="1"/>
        <pt x="390" y="246" on="0"/>
        <pt x="352" y="280" on="0"/>
        <pt x="280" y="280" on="1"/>
        <pt x="240" y="280" on="1"/>
        <pt x="240" y="20" on="1"/>
      </contour>
    </TTGlyph>
    <TTGlyph name="Emacron" xMin="40" yMin="0" xMax="510" yMax="707">
      <contour>
        <pt x="390" y="707" on="1"/>
        <pt x="390" y="657" on="1"/>
        <pt x="190" y="657" on="1"/>
        <pt x="190" y="707" on="1"/>
      </contour>
      <contour>
        <pt x="340" y="20" on="1"/>
        <pt x="490" y="20" on="0"/>
        <pt x="490" y="190" on="1"/>
        <pt x="510" y="190" on="1"/>
        <pt x="510" y="0" on="1"/>
        <pt x="40" y="0" on="1"/>
        <pt x="40" y="20" on="1"/>
        <pt x="90" y="20" on="1"/>
        <pt x="90" y="540" on="1"/>
        <pt x="40" y="540" on="1"/>
        <pt x="40" y="560" on="1"/>
        <pt x="500" y="560" on="1"/>
        <pt x="500" y="390" on="1"/>
        <pt x="480" y="390" on="1"/>
        <pt x="480" y="479" on="0"/>
        <pt x="409" y="540" on="0"/>
        <pt x="330" y="540" on="1"/>
        <pt x="240" y="540" on="1"/>
        <pt x="240" y="300" on="1"/>
        <pt x="280" y="300" on="1"/>
        <pt x="352" y="300" on="0"/>
        <pt x="390" y="336" on="0"/>
        <pt x="390" y="390" on="1"/>
        <pt x="410" y="390" on="1"/>
        <pt x="410" y="190" on="1"/>
        <pt x="390" y="190" on="1"/>
        <pt x="390" y="246" on="0"/>
        <pt x="352" y="280" on="0"/>
        <pt x="280" y="280" on="1"/>
        <pt x="240" y="280" on="1"/>
        <pt x="240" y="20" on="1"/>
      </contour>
    </TTGlyph>
    <TTGlyph name="Eng" xMin="40" yMin="-252" xMax="598" yMax="560">
      <contour>
        <pt x="410" y="-252" on="1"/>
        <pt x="377" y="-252" on="0"/>
        <pt x="330" y="-208" on="0"/>
        <pt x="330" y="-138" on="0"/>
        <pt x="368" y="-98" on="0"/>
        <pt x="426" y="-98" on="0"/>
        <pt x="459" y="-122" on="0"/>
        <pt x="480" y="-145" on="0"/>
        <pt x="487" y="-145" on="1"/>
        <pt x="508" y="-145" on="0"/>
        <pt x="508" y="-70" on="1"/>
        <pt x="508" y="-42" on="1"/>
        <pt x="508" y="-10" on="0"/>
        <pt x="490" y="12" on="1"/>
        <pt x="120" y="471" on="1"/>
        <pt x="120" y="20" on="1"/>
        <pt x="200" y="20" on="1"/>
        <pt x="200" y="0" on="1"/>
        <pt x="40" y="0" on="1"/>
        <pt x="40" y="20" on="1"/>
        <pt x="100" y="20" on="1"/>
        <pt x="100" y="496" on="1"/>
        <pt x="68" y="540" on="0"/>
        <pt x="40" y="540" on="1"/>
        <pt x="40" y="560" on="1"/>
        <pt x="227" y="560" on="1"/>
        <pt x="508" y="227" on="1"/>
        <pt x="508" y="540" on="1"/>
        <pt x="428" y="540" on="1"/>
        <pt x="428" y="560" on="1"/>
        <pt x="598" y="560" on="1"/>
        <pt x="598" y="540" on="1"/>
        <pt x="528" y="540" on="1"/>
        <pt x="528" y="-71" on="1"/>
        <pt x="528" y="-252" on="0"/>
      </contour>
    </TTGlyph>
    <TTGlyph name="Eogonek" xMin="40" yMin="-177" xMax="510" yMax="560">
      <contour>
        <pt x="510" y="0" on="1"/>
        <pt x="402" y="0" on="1"/>
        <pt x="338" y="-88" on="0"/>
        <pt x="382" y="-121" on="1"/>
        <pt x="413" y="-142" on="0"/>
        <pt x="438" y="-119" on="1"/>
        <pt x="448" y="-131" on="1"/>
        <pt x="412" y="-177" on="0"/>
        <pt x="366" y="-177" on="1"/>
        <pt x="323" y="-177" on="0"/>
        <pt x="307" y="-148" on="1"/>
        <pt x="289" y="-116" on="0"/>
        <pt x="322" y="-64" on="1"/>
        <pt x="340" y="-34" on="0"/>
        <pt x="376" y="0" on="1"/>
        <pt x="40" y="0" on="1"/>
        <pt x="40" y="20" on="1"/>
        <pt x="90" y="20" on="1"/>
        <pt x="90" y="540" on="1"/>
        <pt x="40" y="540" on="1"/>
        <pt x="40" y="560" on="1"/>
        <pt x="500" y="560" on="1"/>
        <pt x="500" y="390" on="1"/>
        <pt x="480" y="390" on="1"/>
        <pt x="480" y="479" on="0"/>
        <pt x="409" y="540" on="0"/>
        <pt x="330" y="540" on="1"/>
        <pt x="240" y="540" on="1"/>
        <pt x="240" y="300" on="1"/>
        <pt x="280" y="300" on="1"/>
        <pt x="352" y="300" on="0"/>
        <pt x="390" y="336" on="0"/>
        <pt x="390" y="390" on="1"/>
        <pt x="410" y="390" on="1"/>
        <pt x="410" y="190" on="1"/>
        <pt x="390" y="190" on="1"/>
        <pt x="390" y="246" on="0"/>
        <pt x="352" y="280" on="0"/>
        <pt x="280" y="280" on="1"/>
        <pt x="240" y="280" on="1"/>
        <pt x="240" y="20" on="1"/>
        <pt x="340" y="20" on="1"/>
        <pt x="490" y="20" on="0"/>
        <pt x="490" y="190" on="1"/>
        <pt x="510" y="190" on="1"/>
      </contour>
    </TTGlyph>
    <TTGlyph name="Eth" xMin="40" yMin="0" xMax="595" yMax="560">
      <contour>
        <pt x="40" y="560" on="1"/>
        <pt x="290" y="560" on="1"/>
        <pt x="364" y="560" on="0"/>
        <pt x="483" y="511" on="0"/>
        <pt x="520" y="471" on="1"/>
        <pt x="595" y="388" on="0"/>
        <pt x="595" y="283" on="1"/>
        <pt x="595" y="141" on="0"/>
        <pt x="445" y="0" on="0"/>
        <pt x="290" y="0" on="1"/>
        <pt x="40" y="0" on="1"/>
        <pt x="40" y="20" on="1"/>
        <pt x="90" y="20" on="1"/>
        <pt x="90" y="278" on="1"/>
        <pt x="40" y="278" on="1"/>
        <pt x="40" y="298" on="1"/>
        <pt x="90" y="298" on="1"/>
        <pt x="90" y="540" on="1"/>
        <pt x="40" y="540" on="1"/>
      </contour>
      <contour>
        <pt x="240" y="278" on="1"/>
        <pt x="240" y="20" on="1"/>
        <pt x="348" y="20" on="0"/>
        <pt x="444" y="137" on="0"/>
        <pt x="444" y="402" on="0"/>
        <pt x="340" y="540" on="0"/>
        <pt x="240" y="540" on="1"/>
        <pt x="240" y="298" on="1"/>
        <pt x="357" y="298" on="1"/>
        <pt x="357" y="278" on="1"/>
      </contour>
    </TTGlyph>
    <TTGlyph name="Euro" xMin="20" yMin="-13" xMax="567" yMax="571">
      <contour>
        <pt x="407" y="199" on="1"/>
        <pt x="255" y="199" on="1"/>
        <pt x="266" y="108" on="0"/>
        <pt x="344" y="7" on="0"/>
        <pt x="407" y="7" on="1"/>
        <pt x="438" y="7" on="0"/>
        <pt x="477" y="29" on="0"/>
        <pt x="477" y="48" on="1"/>
        <pt x="477" y="58" on="0"/>
        <pt x="434" y="92" on="0"/>
        <pt x="434" y="140" on="0"/>
        <pt x="471" y="173" on="0"/>
        <pt x="531" y="173" on="0"/>
        <pt x="567" y="132" on="0"/>
        <pt x="567" y="103" on="1"/>
        <pt x="567" y="50" on="0"/>
        <pt x="470" y="-13" on="0"/>
        <pt x="396" y="-13" on="1"/>
        <pt x="271" y="-13" on="0"/>
        <pt x="105" y="93" on="0"/>
        <pt x="83" y="199" on="1"/>
        <pt x="20" y="199" on="1"/>
        <pt x="20" y="219" on="1"/>
        <pt x="80" y="219" on="1"/>
        <pt x="76" y="242" on="0"/>
        <pt x="76" y="310" on="0"/>
        <pt x="84" y="348" on="1"/>
        <pt x="20" y="348" on="1"/>
        <pt x="20" y="368" on="1"/>
        <pt x="89" y="368" on="1"/>
        <pt x="117" y="465" on="0"/>
        <pt x="281" y="571" on="0"/>
        <pt x="396" y="571" on="1"/>
        <pt x="470" y="571" on="0"/>
        <pt x="567" y="508" on="0"/>
        <pt x="567" y="455" on="1"/>
        <pt x="567" y="426" on="0"/>
        <pt x="531" y="385" on="0"/>
        <pt x="471" y="385" on="0"/>
        <pt x="434" y="418" on="0"/>
        <pt x="434" y="466" on="0"/>
        <pt x="477" y="500" on="0"/>
        <pt x="477" y="510" on="1"/>
        <pt x="477" y="529" on="0"/>
        <pt x="438" y="551" on="0"/>
        <pt x="407" y="551" on="1"/>
        <pt x="347" y="551" on="0"/>
        <pt x="271" y="454" on="0"/>
        <pt x="258" y="368" on="1"/>
        <pt x="407" y="368" on="1"/>
        <pt x="407" y="348" on="1"/>
        <pt x="255" y="348" on="1"/>
        <pt x="251" y="317" on="0"/>
        <pt x="251" y="253" on="0"/>
        <pt x="253" y="219" on="1"/>
        <pt x="407" y="219" on="1"/>
      </contour>
    </TTGlyph>
    <TTGlyph name="F" xMin="40" yMin="0" xMax="500" yMax="560">
      <contour>
        <pt x="500" y="560" on="1"/>
        <pt x="500" y="390" on="1"/>
        <pt x="480" y="390" on="1"/>
        <pt x="480" y="479" on="0"/>
        <pt x="409" y="540" on="0"/>
        <pt x="330" y="540" on="1"/>
        <pt x="240" y="540" on="1"/>
        <pt x="240" y="278" on="1"/>
        <pt x="280" y="278" on="1"/>
        <pt x="352" y="278" on="0"/>
        <pt x="390" y="314" on="0"/>
        <pt x="390" y="368" on="1"/>
        <pt x="410" y="368" on="1"/>
        <pt x="410" y="168" on="1"/>
        <pt x="390" y="168" on="1"/>
        <pt x="390" y="224" on="0"/>
        <pt x="352" y="258" on="0"/>
        <pt x="280" y="258" on="1"/>
        <pt x="240" y="258" on="1"/>
        <pt x="240" y="20" on="1"/>
        <pt x="300" y="20" on="1"/>
        <pt x="300" y="0" on="1"/>
        <pt x="40" y="0" on="1"/>
        <pt x="40" y="20" on="1"/>
        <pt x="90" y="20" on="1"/>
        <pt x="90" y="540" on="1"/>
        <pt x="40" y="540" on="1"/>
        <pt x="40" y="560" on="1"/>
      </contour>
    </TTGlyph>
    <TTGlyph name="G" xMin="30" yMin="-15" xMax="588" yMax="573">
      <contour>
        <pt x="522" y="23" on="0"/>
        <pt x="496" y="54" on="0"/>
        <pt x="455" y="54" on="0"/>
        <pt x="412" y="20" on="0"/>
        <pt x="355" y="-15" on="0"/>
        <pt x="315" y="-15" on="1"/>
        <pt x="179" y="-15" on="0"/>
        <pt x="30" y="125" on="0"/>
        <pt x="30" y="270" on="1"/>
        <pt x="30" y="573" on="0"/>
        <pt x="313" y="573" on="1"/>
        <pt x="364" y="573" on="0"/>
        <pt x="471" y="523" on="0"/>
        <pt x="495" y="523" on="0"/>
        <pt x="511" y="548" on="0"/>
        <pt x="511" y="560" on="1"/>
        <pt x="530" y="560" on="1"/>
        <pt x="530" y="357" on="1"/>
        <pt x="510" y="357" on="1"/>
        <pt x="510" y="433" on="0"/>
        <pt x="391" y="553" on="0"/>
        <pt x="313" y="553" on="1"/>
        <pt x="253" y="553" on="0"/>
        <pt x="191" y="424" on="0"/>
        <pt x="191" y="127" on="0"/>
        <pt x="254" y="5" on="0"/>
        <pt x="315" y="5" on="1"/>
        <pt x="411" y="5" on="0"/>
        <pt x="411" y="176" on="1"/>
        <pt x="411" y="250" on="1"/>
        <pt x="348" y="250" on="1"/>
        <pt x="348" y="270" on="1"/>
        <pt x="588" y="270" on="1"/>
        <pt x="588" y="250" on="1"/>
        <pt x="541" y="250" on="1"/>
        <pt x="541" y="0" on="1"/>
        <pt x="522" y="0" on="1"/>
      </contour>
    </TTGlyph>
    <TTGlyph name="Gbreve" xMin="30" yMin="-15" xMax="588" yMax="745">
      <contour>
        <pt x="237" y="745" on="1"/>
        <pt x="237" y="696" on="0"/>
        <pt x="381" y="696" on="0"/>
        <pt x="381" y="745" on="1"/>
        <pt x="401" y="745" on="1"/>
        <pt x="401" y="685" on="0"/>
        <pt x="360" y="620" on="0"/>
        <pt x="310" y="620" on="1"/>
        <pt x="217" y="620" on="0"/>
        <pt x="217" y="745" on="1"/>
      </contour>
      <contour>
        <pt x="522" y="23" on="0"/>
        <pt x="496" y="54" on="0"/>
        <pt x="455" y="54" on="0"/>
        <pt x="412" y="20" on="0"/>
        <pt x="355" y="-15" on="0"/>
        <pt x="315" y="-15" on="1"/>
        <pt x="179" y="-15" on="0"/>
        <pt x="30" y="125" on="0"/>
        <pt x="30" y="270" on="1"/>
        <pt x="30" y="573" on="0"/>
        <pt x="313" y="573" on="1"/>
        <pt x="364" y="573" on="0"/>
        <pt x="471" y="523" on="0"/>
        <pt x="495" y="523" on="0"/>
        <pt x="511" y="548" on="0"/>
        <pt x="511" y="560" on="1"/>
        <pt x="530" y="560" on="1"/>
        <pt x="530" y="357" on="1"/>
        <pt x="510" y="357" on="1"/>
        <pt x="510" y="433" on="0"/>
        <pt x="391" y="553" on="0"/>
        <pt x="313" y="553" on="1"/>
        <pt x="253" y="553" on="0"/>
        <pt x="191" y="424" on="0"/>
        <pt x="191" y="127" on="0"/>
        <pt x="254" y="5" on="0"/>
        <pt x="315" y="5" on="1"/>
        <pt x="411" y="5" on="0"/>
        <pt x="411" y="176" on="1"/>
        <pt x="411" y="250" on="1"/>
        <pt x="348" y="250" on="1"/>
        <pt x="348" y="270" on="1"/>
        <pt x="588" y="270" on="1"/>
        <pt x="588" y="250" on="1"/>
        <pt x="541" y="250" on="1"/>
        <pt x="541" y="0" on="1"/>
        <pt x="522" y="0" on="1"/>
      </contour>
    </TTGlyph>
    <TTGlyph name="Gcircumflex" xMin="30" yMin="-15" xMax="588" yMax="751">
      <contour>
        <pt x="221" y="614" on="1"/>
        <pt x="212" y="623" on="1"/>
        <pt x="299" y="751" on="1"/>
        <pt x="318" y="751" on="1"/>
        <pt x="406" y="623" on="1"/>
        <pt x="397" y="614" on="1"/>
        <pt x="309" y="654" on="1"/>
      </contour>
      <contour>
        <pt x="522" y="23" on="0"/>
        <pt x="496" y="54" on="0"/>
        <pt x="455" y="54" on="0"/>
        <pt x="412" y="20" on="0"/>
        <pt x="355" y="-15" on="0"/>
        <pt x="315" y="-15" on="1"/>
        <pt x="179" y="-15" on="0"/>
        <pt x="30" y="125" on="0"/>
        <pt x="30" y="270" on="1"/>
        <pt x="30" y="573" on="0"/>
        <pt x="313" y="573" on="1"/>
        <pt x="364" y="573" on="0"/>
        <pt x="471" y="523" on="0"/>
        <pt x="495" y="523" on="0"/>
        <pt x="511" y="548" on="0"/>
        <pt x="511" y="560" on="1"/>
        <pt x="530" y="560" on="1"/>
        <pt x="530" y="357" on="1"/>
        <pt x="510" y="357" on="1"/>
        <pt x="510" y="433" on="0"/>
        <pt x="391" y="553" on="0"/>
        <pt x="313" y="553" on="1"/>
        <pt x="253" y="553" on="0"/>
        <pt x="191" y="424" on="0"/>
        <pt x="191" y="127" on="0"/>
        <pt x="254" y="5" on="0"/>
        <pt x="315" y="5" on="1"/>
        <pt x="411" y="5" on="0"/>
        <pt x="411" y="176" on="1"/>
        <pt x="411" y="250" on="1"/>
        <pt x="348" y="250" on="1"/>
        <pt x="348" y="270" on="1"/>
        <pt x="588" y="270" on="1"/>
        <pt x="588" y="250" on="1"/>
        <pt x="541" y="250" on="1"/>
        <pt x="541" y="0" on="1"/>
        <pt x="522" y="0" on="1"/>
      </contour>
    </TTGlyph>
    <TTGlyph name="Gdotaccent" xMin="30" yMin="-15" xMax="588" yMax="745">
      <contour>
        <pt x="335" y="745" on="0"/>
        <pt x="371" y="708" on="0"/>
        <pt x="371" y="657" on="0"/>
        <pt x="335" y="621" on="0"/>
        <pt x="284" y="621" on="0"/>
        <pt x="246" y="657" on="0"/>
        <pt x="246" y="708" on="0"/>
        <pt x="284" y="745" on="0"/>
      </contour>
      <contour>
        <pt x="522" y="23" on="0"/>
        <pt x="496" y="54" on="0"/>
        <pt x="455" y="54" on="0"/>
        <pt x="412" y="20" on="0"/>
        <pt x="355" y="-15" on="0"/>
        <pt x="315" y="-15" on="1"/>
        <pt x="179" y="-15" on="0"/>
        <pt x="30" y="125" on="0"/>
        <pt x="30" y="270" on="1"/>
        <pt x="30" y="573" on="0"/>
        <pt x="313" y="573" on="1"/>
        <pt x="364" y="573" on="0"/>
        <pt x="471" y="523" on="0"/>
        <pt x="495" y="523" on="0"/>
        <pt x="511" y="548" on="0"/>
        <pt x="511" y="560" on="1"/>
        <pt x="530" y="560" on="1"/>
        <pt x="530" y="357" on="1"/>
        <pt x="510" y="357" on="1"/>
        <pt x="510" y="433" on="0"/>
        <pt x="391" y="553" on="0"/>
        <pt x="313" y="553" on="1"/>
        <pt x="253" y="553" on="0"/>
        <pt x="191" y="424" on="0"/>
        <pt x="191" y="127" on="0"/>
        <pt x="254" y="5" on="0"/>
        <pt x="315" y="5" on="1"/>
        <pt x="411" y="5" on="0"/>
        <pt x="411" y="176" on="1"/>
        <pt x="411" y="250" on="1"/>
        <pt x="348" y="250" on="1"/>
        <pt x="348" y="270" on="1"/>
        <pt x="588" y="270" on="1"/>
        <pt x="588" y="250" on="1"/>
        <pt x="541" y="250" on="1"/>
        <pt x="541" y="0" on="1"/>
        <pt x="522" y="0" on="1"/>
      </contour>
    </TTGlyph>
    <TTGlyph name="H" xMin="30" yMin="0" xMax="627" yMax="560">
      <contour>
        <pt x="627" y="540" on="1"/>
        <pt x="577" y="540" on="1"/>
        <pt x="577" y="20" on="1"/>
        <pt x="627" y="20" on="1"/>
        <pt x="627" y="0" on="1"/>
        <pt x="377" y="0" on="1"/>
        <pt x="377" y="20" on="1"/>
        <pt x="427" y="20" on="1"/>
        <pt x="427" y="288" on="1"/>
        <pt x="230" y="288" on="1"/>
        <pt x="230" y="20" on="1"/>
        <pt x="280" y="20" on="1"/>
        <pt x="280" y="0" on="1"/>
        <pt x="30" y="0" on="1"/>
        <pt x="30" y="20" on="1"/>
        <pt x="80" y="20" on="1"/>
        <pt x="80" y="540" on="1"/>
        <pt x="30" y="540" on="1"/>
        <pt x="30" y="560" on="1"/>
        <pt x="280" y="560" on="1"/>
        <pt x="280" y="540" on="1"/>
        <pt x="230" y="540" on="1"/>
        <pt x="230" y="308" on="1"/>
        <pt x="427" y="308" on="1"/>
        <pt x="427" y="540" on="1"/>
        <pt x="377" y="540" on="1"/>
        <pt x="377" y="560" on="1"/>
        <pt x="627" y="560" on="1"/>
      </contour>
    </TTGlyph>
    <TTGlyph name="Hbar" xMin="40" yMin="0" xMax="637" yMax="560">
      <contour>
        <pt x="637" y="540" on="1"/>
        <pt x="587" y="540" on="1"/>
        <pt x="587" y="438" on="1"/>
        <pt x="637" y="438" on="1"/>
        <pt x="637" y="418" on="1"/>
        <pt x="587" y="418" on="1"/>
        <pt x="587" y="20" on="1"/>
        <pt x="637" y="20" on="1"/>
        <pt x="637" y="0" on="1"/>
        <pt x="387" y="0" on="1"/>
        <pt x="387" y="20" on="1"/>
        <pt x="437" y="20" on="1"/>
        <pt x="437" y="288" on="1"/>
        <pt x="240" y="288" on="1"/>
        <pt x="240" y="20" on="1"/>
        <pt x="290" y="20" on="1"/>
        <pt x="290" y="0" on="1"/>
        <pt x="40" y="0" on="1"/>
        <pt x="40" y="20" on="1"/>
        <pt x="90" y="20" on="1"/>
        <pt x="90" y="418" on="1"/>
        <pt x="40" y="418" on="1"/>
        <pt x="40" y="438" on="1"/>
        <pt x="90" y="438" on="1"/>
        <pt x="90" y="540" on="1"/>
        <pt x="40" y="540" on="1"/>
        <pt x="40" y="560" on="1"/>
        <pt x="290" y="560" on="1"/>
        <pt x="290" y="540" on="1"/>
        <pt x="240" y="540" on="1"/>
        <pt x="240" y="438" on="1"/>
        <pt x="437" y="438" on="1"/>
        <pt x="437" y="540" on="1"/>
        <pt x="387" y="540" on="1"/>
        <pt x="387" y="560" on="1"/>
        <pt x="637" y="560" on="1"/>
      </contour>
      <contour>
        <pt x="437" y="308" on="1"/>
        <pt x="437" y="418" on="1"/>
        <pt x="240" y="418" on="1"/>
        <pt x="240" y="308" on="1"/>
      </contour>
    </TTGlyph>
    <TTGlyph name="I" xMin="40" yMin="0" xMax="290" yMax="560">
      <contour>
        <pt x="290" y="0" on="1"/>
        <pt x="40" y="0" on="1"/>
        <pt x="40" y="20" on="1"/>
        <pt x="90" y="20" on="1"/>
        <pt x="90" y="540" on="1"/>
        <pt x="40" y="540" on="1"/>
        <pt x="40" y="560" on="1"/>
        <pt x="290" y="560" on="1"/>
        <pt x="290" y="540" on="1"/>
        <pt x="240" y="540" on="1"/>
        <pt x="240" y="20" on="1"/>
        <pt x="290" y="20" on="1"/>
      </contour>
    </TTGlyph>
    <TTGlyph name="IJ" xMin="40" yMin="0" xMax="802" yMax="560">
      <contour>
        <pt x="802" y="560" on="1"/>
        <pt x="802" y="540" on="1"/>
        <pt x="752" y="540" on="1"/>
        <pt x="752" y="206" on="1"/>
        <pt x="752" y="109" on="0"/>
        <pt x="634" y="0" on="0"/>
        <pt x="516" y="0" on="1"/>
        <pt x="437" y="0" on="0"/>
        <pt x="342" y="72" on="0"/>
        <pt x="342" y="140" on="1"/>
        <pt x="342" y="177" on="0"/>
        <pt x="389" y="232" on="0"/>
        <pt x="455" y="232" on="0"/>
        <pt x="494" y="191" on="0"/>
        <pt x="494" y="160" on="1"/>
        <pt x="494" y="111" on="0"/>
        <pt x="442" y="95" on="1"/>
        <pt x="436" y="93" on="0"/>
        <pt x="415" y="88" on="0"/>
        <pt x="410" y="86" on="1"/>
        <pt x="397" y="83" on="0"/>
        <pt x="397" y="51" on="0"/>
        <pt x="450" y="23" on="0"/>
        <pt x="483" y="23" on="1"/>
        <pt x="602" y="23" on="0"/>
        <pt x="602" y="197" on="1"/>
        <pt x="602" y="540" on="1"/>
        <pt x="552" y="540" on="1"/>
        <pt x="552" y="560" on="1"/>
      </contour>
      <contour>
        <pt x="290" y="560" on="1"/>
        <pt x="290" y="540" on="1"/>
        <pt x="240" y="540" on="1"/>
        <pt x="240" y="20" on="1"/>
        <pt x="290" y="20" on="1"/>
        <pt x="290" y="0" on="1"/>
        <pt x="40" y="0" on="1"/>
        <pt x="40" y="20" on="1"/>
        <pt x="90" y="20" on="1"/>
        <pt x="90" y="540" on="1"/>
        <pt x="40" y="540" on="1"/>
        <pt x="40" y="560" on="1"/>
      </contour>
    </TTGlyph>
    <TTGlyph name="Iacute" xMin="40" yMin="0" xMax="290" yMax="760">
      <contour>
        <pt x="122" y="611" on="1"/>
        <pt x="139" y="636" on="0"/>
        <pt x="148" y="710" on="0"/>
        <pt x="176" y="749" on="0"/>
        <pt x="218" y="760" on="0"/>
        <pt x="234" y="750" on="1"/>
        <pt x="255" y="741" on="0"/>
        <pt x="265" y="692" on="0"/>
        <pt x="235" y="650" on="0"/>
        <pt x="155" y="628" on="0"/>
        <pt x="136" y="601" on="1"/>
      </contour>
      <contour>
        <pt x="290" y="0" on="1"/>
        <pt x="40" y="0" on="1"/>
        <pt x="40" y="20" on="1"/>
        <pt x="90" y="20" on="1"/>
        <pt x="90" y="540" on="1"/>
        <pt x="40" y="540" on="1"/>
        <pt x="40" y="560" on="1"/>
        <pt x="290" y="560" on="1"/>
        <pt x="290" y="540" on="1"/>
        <pt x="240" y="540" on="1"/>
        <pt x="240" y="20" on="1"/>
        <pt x="290" y="20" on="1"/>
      </contour>
    </TTGlyph>
    <TTGlyph name="Ibreve" xMin="40" yMin="0" xMax="290" yMax="745">
      <contour>
        <pt x="88" y="745" on="1"/>
        <pt x="88" y="696" on="0"/>
        <pt x="232" y="696" on="0"/>
        <pt x="232" y="745" on="1"/>
        <pt x="252" y="745" on="1"/>
        <pt x="252" y="685" on="0"/>
        <pt x="211" y="620" on="0"/>
        <pt x="161" y="620" on="1"/>
        <pt x="68" y="620" on="0"/>
        <pt x="68" y="745" on="1"/>
      </contour>
      <contour>
        <pt x="290" y="0" on="1"/>
        <pt x="40" y="0" on="1"/>
        <pt x="40" y="20" on="1"/>
        <pt x="90" y="20" on="1"/>
        <pt x="90" y="540" on="1"/>
        <pt x="40" y="540" on="1"/>
        <pt x="40" y="560" on="1"/>
        <pt x="290" y="560" on="1"/>
        <pt x="290" y="540" on="1"/>
        <pt x="240" y="540" on="1"/>
        <pt x="240" y="20" on="1"/>
        <pt x="290" y="20" on="1"/>
      </contour>
    </TTGlyph>
    <TTGlyph name="Icircumflex" xMin="40" yMin="0" xMax="290" yMax="751">
      <contour>
        <pt x="67" y="614" on="1"/>
        <pt x="58" y="623" on="1"/>
        <pt x="145" y="751" on="1"/>
        <pt x="164" y="751" on="1"/>
        <pt x="252" y="623" on="1"/>
        <pt x="243" y="614" on="1"/>
        <pt x="155" y="654" on="1"/>
      </contour>
      <contour>
        <pt x="290" y="0" on="1"/>
        <pt x="40" y="0" on="1"/>
        <pt x="40" y="20" on="1"/>
        <pt x="90" y="20" on="1"/>
        <pt x="90" y="540" on="1"/>
        <pt x="40" y="540" on="1"/>
        <pt x="40" y="560" on="1"/>
        <pt x="290" y="560" on="1"/>
        <pt x="290" y="540" on="1"/>
        <pt x="240" y="540" on="1"/>
        <pt x="240" y="20" on="1"/>
        <pt x="290" y="20" on="1"/>
      </contour>
    </TTGlyph>
    <TTGlyph name="Idieresis" xMin="7" yMin="0" xMax="303" yMax="744">
      <contour>
        <pt x="96" y="744" on="0"/>
        <pt x="132" y="707" on="0"/>
        <pt x="132" y="656" on="0"/>
        <pt x="96" y="620" on="0"/>
        <pt x="45" y="620" on="0"/>
        <pt x="7" y="656" on="0"/>
        <pt x="7" y="707" on="0"/>
        <pt x="45" y="744" on="0"/>
      </contour>
      <contour>
        <pt x="268" y="744" on="0"/>
        <pt x="303" y="708" on="0"/>
        <pt x="303" y="655" on="0"/>
        <pt x="268" y="620" on="0"/>
        <pt x="216" y="620" on="0"/>
        <pt x="180" y="656" on="0"/>
        <pt x="180" y="707" on="0"/>
        <pt x="216" y="744" on="0"/>
      </contour>
      <contour>
        <pt x="290" y="0" on="1"/>
        <pt x="40" y="0" on="1"/>
        <pt x="40" y="20" on="1"/>
        <pt x="90" y="20" on="1"/>
        <pt x="90" y="540" on="1"/>
        <pt x="40" y="540" on="1"/>
        <pt x="40" y="560" on="1"/>
        <pt x="290" y="560" on="1"/>
        <pt x="290" y="540" on="1"/>
        <pt x="240" y="540" on="1"/>
        <pt x="240" y="20" on="1"/>
        <pt x="290" y="20" on="1"/>
      </contour>
    </TTGlyph>
    <TTGlyph name="Idotaccent" xMin="40" yMin="0" xMax="290" yMax="745">
      <contour>
        <pt x="181" y="745" on="0"/>
        <pt x="217" y="708" on="0"/>
        <pt x="217" y="657" on="0"/>
        <pt x="181" y="621" on="0"/>
        <pt x="130" y="621" on="0"/>
        <pt x="92" y="657" on="0"/>
        <pt x="92" y="708" on="0"/>
        <pt x="130" y="745" on="0"/>
      </contour>
      <contour>
        <pt x="290" y="0" on="1"/>
        <pt x="40" y="0" on="1"/>
        <pt x="40" y="20" on="1"/>
        <pt x="90" y="20" on="1"/>
        <pt x="90" y="540" on="1"/>
        <pt x="40" y="540" on="1"/>
        <pt x="40" y="560" on="1"/>
        <pt x="290" y="560" on="1"/>
        <pt x="290" y="540" on="1"/>
        <pt x="240" y="540" on="1"/>
        <pt x="240" y="20" on="1"/>
        <pt x="290" y="20" on="1"/>
      </contour>
    </TTGlyph>
    <TTGlyph name="Igrave" xMin="40" yMin="0" xMax="290" yMax="760">
      <contour>
        <pt x="189" y="611" on="1"/>
        <pt x="175" y="601" on="1"/>
        <pt x="156" y="628" on="0"/>
        <pt x="76" y="650" on="0"/>
        <pt x="46" y="692" on="0"/>
        <pt x="56" y="741" on="0"/>
        <pt x="77" y="750" on="1"/>
        <pt x="93" y="760" on="0"/>
        <pt x="135" y="749" on="0"/>
        <pt x="163" y="710" on="0"/>
        <pt x="172" y="636" on="0"/>
      </contour>
      <contour>
        <pt x="290" y="0" on="1"/>
        <pt x="40" y="0" on="1"/>
        <pt x="40" y="20" on="1"/>
        <pt x="90" y="20" on="1"/>
        <pt x="90" y="540" on="1"/>
        <pt x="40" y="540" on="1"/>
        <pt x="40" y="560" on="1"/>
        <pt x="290" y="560" on="1"/>
        <pt x="290" y="540" on="1"/>
        <pt x="240" y="540" on="1"/>
        <pt x="240" y="20" on="1"/>
        <pt x="290" y="20" on="1"/>
      </contour>
    </TTGlyph>
    <TTGlyph name="Imacron" xMin="40" yMin="0" xMax="290" yMax="707">
      <contour>
        <pt x="255" y="707" on="1"/>
        <pt x="255" y="657" on="1"/>
        <pt x="55" y="657" on="1"/>
        <pt x="55" y="707" on="1"/>
      </contour>
      <contour>
        <pt x="290" y="0" on="1"/>
        <pt x="40" y="0" on="1"/>
        <pt x="40" y="20" on="1"/>
        <pt x="90" y="20" on="1"/>
        <pt x="90" y="540" on="1"/>
        <pt x="40" y="540" on="1"/>
        <pt x="40" y="560" on="1"/>
        <pt x="290" y="560" on="1"/>
        <pt x="290" y="540" on="1"/>
        <pt x="240" y="540" on="1"/>
        <pt x="240" y="20" on="1"/>
        <pt x="290" y="20" on="1"/>
      </contour>
    </TTGlyph>
    <TTGlyph name="Iogonek" xMin="40" yMin="-177" xMax="290" yMax="560">
      <contour>
        <pt x="290" y="540" on="1"/>
        <pt x="240" y="540" on="1"/>
        <pt x="240" y="20" on="1"/>
        <pt x="290" y="20" on="1"/>
        <pt x="290" y="0" on="1"/>
        <pt x="182" y="0" on="1"/>
        <pt x="118" y="-88" on="0"/>
        <pt x="162" y="-121" on="1"/>
        <pt x="193" y="-142" on="0"/>
        <pt x="218" y="-119" on="1"/>
        <pt x="228" y="-131" on="1"/>
        <pt x="192" y="-177" on="0"/>
        <pt x="146" y="-177" on="1"/>
        <pt x="103" y="-177" on="0"/>
        <pt x="87" y="-148" on="1"/>
        <pt x="69" y="-116" on="0"/>
        <pt x="102" y="-64" on="1"/>
        <pt x="120" y="-34" on="0"/>
        <pt x="156" y="0" on="1"/>
        <pt x="40" y="0" on="1"/>
        <pt x="40" y="20" on="1"/>
        <pt x="90" y="20" on="1"/>
        <pt x="90" y="540" on="1"/>
        <pt x="40" y="540" on="1"/>
        <pt x="40" y="560" on="1"/>
        <pt x="290" y="560" on="1"/>
      </contour>
    </TTGlyph>
    <TTGlyph name="Itilde" xMin="40" yMin="0" xMax="290" yMax="726">
      <contour>
        <pt x="84" y="630" on="1"/>
        <pt x="64" y="630" on="1"/>
        <pt x="64" y="726" on="0"/>
        <pt x="131" y="726" on="1"/>
        <pt x="150" y="726" on="0"/>
        <pt x="202" y="695" on="0"/>
        <pt x="216" y="695" on="1"/>
        <pt x="242" y="695" on="0"/>
        <pt x="242" y="721" on="1"/>
        <pt x="262" y="721" on="1"/>
        <pt x="262" y="625" on="0"/>
        <pt x="194" y="625" on="1"/>
        <pt x="174" y="625" on="0"/>
        <pt x="122" y="657" on="0"/>
        <pt x="108" y="657" on="1"/>
        <pt x="84" y="657" on="0"/>
      </contour>
      <contour>
        <pt x="290" y="0" on="1"/>
        <pt x="40" y="0" on="1"/>
        <pt x="40" y="20" on="1"/>
        <pt x="90" y="20" on="1"/>
        <pt x="90" y="540" on="1"/>
        <pt x="40" y="540" on="1"/>
        <pt x="40" y="560" on="1"/>
        <pt x="290" y="560" on="1"/>
        <pt x="290" y="540" on="1"/>
        <pt x="240" y="540" on="1"/>
        <pt x="240" y="20" on="1"/>
        <pt x="290" y="20" on="1"/>
      </contour>
    </TTGlyph>
    <TTGlyph name="J" xMin="10" yMin="0" xMax="470" yMax="560">
      <contour>
        <pt x="184" y="0" on="1"/>
        <pt x="105" y="0" on="0"/>
        <pt x="10" y="72" on="0"/>
        <pt x="10" y="140" on="1"/>
        <pt x="10" y="177" on="0"/>
        <pt x="57" y="232" on="0"/>
        <pt x="123" y="232" on="0"/>
        <pt x="162" y="191" on="0"/>
        <pt x="162" y="160" on="1"/>
        <pt x="162" y="111" on="0"/>
        <pt x="110" y="95" on="1"/>
        <pt x="104" y="93" on="0"/>
        <pt x="83" y="88" on="0"/>
        <pt x="78" y="86" on="1"/>
        <pt x="65" y="83" on="0"/>
        <pt x="65" y="51" on="0"/>
        <pt x="118" y="23" on="0"/>
        <pt x="151" y="23" on="1"/>
        <pt x="270" y="23" on="0"/>
        <pt x="270" y="197" on="1"/>
        <pt x="270" y="540" on="1"/>
        <pt x="220" y="540" on="1"/>
        <pt x="220" y="560" on="1"/>
        <pt x="470" y="560" on="1"/>
        <pt x="470" y="540" on="1"/>
        <pt x="420" y="540" on="1"/>
        <pt x="420" y="206" on="1"/>
        <pt x="420" y="109" on="0"/>
        <pt x="302" y="0" on="0"/>
      </contour>
    </TTGlyph>
    <TTGlyph name="Jcircumflex" xMin="10" yMin="0" xMax="470" yMax="751">
      <contour>
        <pt x="259" y="614" on="1"/>
        <pt x="250" y="623" on="1"/>
        <pt x="337" y="751" on="1"/>
        <pt x="356" y="751" on="1"/>
        <pt x="444" y="623" on="1"/>
        <pt x="435" y="614" on="1"/>
        <pt x="347" y="654" on="1"/>
      </contour>
      <contour>
        <pt x="184" y="0" on="1"/>
        <pt x="105" y="0" on="0"/>
        <pt x="10" y="72" on="0"/>
        <pt x="10" y="140" on="1"/>
        <pt x="10" y="177" on="0"/>
        <pt x="57" y="232" on="0"/>
        <pt x="123" y="232" on="0"/>
        <pt x="162" y="191" on="0"/>
        <pt x="162" y="160" on="1"/>
        <pt x="162" y="111" on="0"/>
        <pt x="110" y="95" on="1"/>
        <pt x="104" y="93" on="0"/>
        <pt x="83" y="88" on="0"/>
        <pt x="78" y="86" on="1"/>
        <pt x="65" y="83" on="0"/>
        <pt x="65" y="51" on="0"/>
        <pt x="118" y="23" on="0"/>
        <pt x="151" y="23" on="1"/>
        <pt x="270" y="23" on="0"/>
        <pt x="270" y="197" on="1"/>
        <pt x="270" y="540" on="1"/>
        <pt x="220" y="540" on="1"/>
        <pt x="220" y="560" on="1"/>
        <pt x="470" y="560" on="1"/>
        <pt x="470" y="540" on="1"/>
        <pt x="420" y="540" on="1"/>
        <pt x="420" y="206" on="1"/>
        <pt x="420" y="109" on="0"/>
        <pt x="302" y="0" on="0"/>
      </contour>
    </TTGlyph>
    <TTGlyph name="K" xMin="40" yMin="0" xMax="630" yMax="560">
      <contour>
        <pt x="630" y="20" on="1"/>
        <pt x="630" y="0" on="1"/>
        <pt x="370" y="0" on="1"/>
        <pt x="370" y="20" on="1"/>
        <pt x="415" y="20" on="1"/>
        <pt x="282" y="263" on="1"/>
        <pt x="240" y="210" on="1"/>
        <pt x="240" y="20" on="1"/>
        <pt x="290" y="20" on="1"/>
        <pt x="290" y="0" on="1"/>
        <pt x="40" y="0" on="1"/>
        <pt x="40" y="20" on="1"/>
        <pt x="90" y="20" on="1"/>
        <pt x="90" y="540" on="1"/>
        <pt x="40" y="540" on="1"/>
        <pt x="40" y="560" on="1"/>
        <pt x="290" y="560" on="1"/>
        <pt x="290" y="540" on="1"/>
        <pt x="240" y="540" on="1"/>
        <pt x="240" y="245" on="1"/>
        <pt x="472" y="540" on="1"/>
        <pt x="380" y="540" on="1"/>
        <pt x="380" y="560" on="1"/>
        <pt x="584" y="560" on="1"/>
        <pt x="584" y="540" on="1"/>
        <pt x="499" y="540" on="1"/>
        <pt x="381" y="390" on="1"/>
        <pt x="587" y="20" on="1"/>
      </contour>
    </TTGlyph>
    <TTGlyph name="L" xMin="40" yMin="0" xMax="510" yMax="560">
      <contour>
        <pt x="490" y="190" on="1"/>
        <pt x="510" y="190" on="1"/>
        <pt x="510" y="0" on="1"/>
        <pt x="40" y="0" on="1"/>
        <pt x="40" y="20" on="1"/>
        <pt x="90" y="20" on="1"/>
        <pt x="90" y="540" on="1"/>
        <pt x="40" y="540" on="1"/>
        <pt x="40" y="560" on="1"/>
        <pt x="300" y="560" on="1"/>
        <pt x="300" y="540" on="1"/>
        <pt x="240" y="540" on="1"/>
        <pt x="240" y="20" on="1"/>
        <pt x="340" y="20" on="1"/>
        <pt x="374" y="20" on="0"/>
        <pt x="419" y="30" on="0"/>
        <pt x="443" y="46" on="1"/>
        <pt x="490" y="77" on="0"/>
      </contour>
    </TTGlyph>
    <TTGlyph name="Lacute" xMin="40" yMin="0" xMax="510" yMax="760">
      <contour>
        <pt x="490" y="190" on="1"/>
        <pt x="510" y="190" on="1"/>
        <pt x="510" y="0" on="1"/>
        <pt x="40" y="0" on="1"/>
        <pt x="40" y="20" on="1"/>
        <pt x="90" y="20" on="1"/>
        <pt x="90" y="540" on="1"/>
        <pt x="40" y="540" on="1"/>
        <pt x="40" y="560" on="1"/>
        <pt x="300" y="560" on="1"/>
        <pt x="300" y="540" on="1"/>
        <pt x="240" y="540" on="1"/>
        <pt x="240" y="20" on="1"/>
        <pt x="340" y="20" on="1"/>
        <pt x="374" y="20" on="0"/>
        <pt x="419" y="30" on="0"/>
        <pt x="443" y="46" on="1"/>
        <pt x="490" y="77" on="0"/>
      </contour>
      <contour>
        <pt x="132" y="601" on="1"/>
        <pt x="118" y="611" on="1"/>
        <pt x="135" y="636" on="0"/>
        <pt x="144" y="710" on="0"/>
        <pt x="172" y="749" on="0"/>
        <pt x="214" y="760" on="0"/>
        <pt x="230" y="750" on="1"/>
        <pt x="251" y="741" on="0"/>
        <pt x="261" y="692" on="0"/>
        <pt x="231" y="650" on="0"/>
        <pt x="151" y="628" on="0"/>
      </contour>
    </TTGlyph>
    <TTGlyph name="Lcaron" xMin="40" yMin="0" xMax="510" yMax="570">
      <contour>
        <pt x="490" y="190" on="1"/>
        <pt x="510" y="190" on="1"/>
        <pt x="510" y="0" on="1"/>
        <pt x="40" y="0" on="1"/>
        <pt x="40" y="20" on="1"/>
        <pt x="90" y="20" on="1"/>
        <pt x="90" y="540" on="1"/>
        <pt x="40" y="540" on="1"/>
        <pt x="40" y="560" on="1"/>
        <pt x="300" y="560" on="1"/>
        <pt x="300" y="540" on="1"/>
        <pt x="240" y="540" on="1"/>
        <pt x="240" y="20" on="1"/>
        <pt x="340" y="20" on="1"/>
        <pt x="374" y="20" on="0"/>
        <pt x="419" y="30" on="0"/>
        <pt x="443" y="46" on="1"/>
        <pt x="490" y="77" on="0"/>
      </contour>
      <contour>
        <pt x="447" y="475" on="1"/>
        <pt x="423" y="471" on="1"/>
        <pt x="405" y="471" on="0"/>
        <pt x="378" y="496" on="0"/>
        <pt x="378" y="540" on="0"/>
        <pt x="408" y="570" on="0"/>
        <pt x="460" y="570" on="0"/>
        <pt x="493" y="530" on="0"/>
        <pt x="493" y="504" on="1"/>
        <pt x="493" y="421" on="0"/>
        <pt x="404" y="379" on="1"/>
        <pt x="396" y="395" on="1"/>
        <pt x="458" y="429" on="0"/>
        <pt x="458" y="465" on="1"/>
        <pt x="458" y="475" on="0"/>
      </contour>
    </TTGlyph>
    <TTGlyph name="Ldot" xMin="40" yMin="0" xMax="510" yMax="560">
      <contour>
        <pt x="490" y="190" on="1"/>
        <pt x="510" y="190" on="1"/>
        <pt x="510" y="0" on="1"/>
        <pt x="40" y="0" on="1"/>
        <pt x="40" y="20" on="1"/>
        <pt x="90" y="20" on="1"/>
        <pt x="90" y="540" on="1"/>
        <pt x="40" y="540" on="1"/>
        <pt x="40" y="560" on="1"/>
        <pt x="300" y="560" on="1"/>
        <pt x="300" y="540" on="1"/>
        <pt x="240" y="540" on="1"/>
        <pt x="240" y="20" on="1"/>
        <pt x="340" y="20" on="1"/>
        <pt x="374" y="20" on="0"/>
        <pt x="419" y="30" on="0"/>
        <pt x="443" y="46" on="1"/>
        <pt x="490" y="77" on="0"/>
      </contour>
      <contour>
        <pt x="448" y="283" on="0"/>
        <pt x="406" y="240" on="0"/>
        <pt x="347" y="240" on="0"/>
        <pt x="304" y="283" on="0"/>
        <pt x="304" y="341" on="0"/>
        <pt x="347" y="384" on="0"/>
        <pt x="406" y="384" on="0"/>
        <pt x="448" y="341" on="0"/>
      </contour>
    </TTGlyph>
    <TTGlyph name="Lslash" xMin="20" yMin="0" xMax="510" yMax="560">
      <contour>
        <pt x="490" y="190" on="1"/>
        <pt x="510" y="190" on="1"/>
        <pt x="510" y="0" on="1"/>
        <pt x="40" y="0" on="1"/>
        <pt x="40" y="20" on="1"/>
        <pt x="90" y="20" on="1"/>
        <pt x="90" y="292" on="1"/>
        <pt x="20" y="255" on="1"/>
        <pt x="20" y="280" on="1"/>
        <pt x="90" y="317" on="1"/>
        <pt x="90" y="540" on="1"/>
        <pt x="40" y="540" on="1"/>
        <pt x="40" y="560" on="1"/>
        <pt x="300" y="560" on="1"/>
        <pt x="300" y="540" on="1"/>
        <pt x="240" y="540" on="1"/>
        <pt x="240" y="396" on="1"/>
        <pt x="380" y="470" on="1"/>
        <pt x="380" y="445" on="1"/>
        <pt x="240" y="371" on="1"/>
        <pt x="240" y="20" on="1"/>
        <pt x="340" y="20" on="1"/>
        <pt x="374" y="20" on="0"/>
        <pt x="419" y="30" on="0"/>
        <pt x="443" y="46" on="1"/>
        <pt x="490" y="77" on="0"/>
      </contour>
    </TTGlyph>
    <TTGlyph name="M" xMin="30" yMin="-10" xMax="754" yMax="560">
      <contour>
        <pt x="754" y="540" on="1"/>
        <pt x="704" y="540" on="1"/>
        <pt x="704" y="20" on="1"/>
        <pt x="754" y="20" on="1"/>
        <pt x="754" y="0" on="1"/>
        <pt x="504" y="0" on="1"/>
        <pt x="504" y="20" on="1"/>
        <pt x="554" y="20" on="1"/>
        <pt x="554" y="503" on="1"/>
        <pt x="356" y="-10" on="1"/>
        <pt x="333" y="-10" on="1"/>
        <pt x="111" y="517" on="1"/>
        <pt x="111" y="20" on="1"/>
        <pt x="191" y="20" on="1"/>
        <pt x="191" y="0" on="1"/>
        <pt x="31" y="0" on="1"/>
        <pt x="31" y="20" on="1"/>
        <pt x="91" y="20" on="1"/>
        <pt x="91" y="540" on="1"/>
        <pt x="30" y="540" on="1"/>
        <pt x="30" y="560" on="1"/>
        <pt x="253" y="560" on="1"/>
        <pt x="409" y="185" on="1"/>
        <pt x="554" y="560" on="1"/>
        <pt x="754" y="560" on="1"/>
      </contour>
    </TTGlyph>
    <TTGlyph name="N" xMin="20" yMin="-10" xMax="578" yMax="560">
      <contour>
        <pt x="100" y="20" on="1"/>
        <pt x="180" y="20" on="1"/>
        <pt x="180" y="0" on="1"/>
        <pt x="20" y="0" on="1"/>
        <pt x="20" y="20" on="1"/>
        <pt x="80" y="20" on="1"/>
        <pt x="80" y="496" on="1"/>
        <pt x="48" y="540" on="0"/>
        <pt x="20" y="540" on="1"/>
        <pt x="20" y="560" on="1"/>
        <pt x="207" y="560" on="1"/>
        <pt x="488" y="227" on="1"/>
        <pt x="488" y="540" on="1"/>
        <pt x="408" y="540" on="1"/>
        <pt x="408" y="560" on="1"/>
        <pt x="578" y="560" on="1"/>
        <pt x="578" y="540" on="1"/>
        <pt x="508" y="540" on="1"/>
        <pt x="508" y="-10" on="1"/>
        <pt x="488" y="-10" on="1"/>
        <pt x="100" y="471" on="1"/>
      </contour>
    </TTGlyph>
    <TTGlyph name="Nacute" xMin="20" yMin="-10" xMax="578" yMax="760">
      <contour>
        <pt x="288" y="611" on="1"/>
        <pt x="305" y="636" on="0"/>
        <pt x="314" y="710" on="0"/>
        <pt x="342" y="749" on="0"/>
        <pt x="384" y="760" on="0"/>
        <pt x="400" y="750" on="1"/>
        <pt x="421" y="741" on="0"/>
        <pt x="431" y="692" on="0"/>
        <pt x="401" y="650" on="0"/>
        <pt x="321" y="628" on="0"/>
        <pt x="302" y="601" on="1"/>
      </contour>
      <contour>
        <pt x="100" y="20" on="1"/>
        <pt x="180" y="20" on="1"/>
        <pt x="180" y="0" on="1"/>
        <pt x="20" y="0" on="1"/>
        <pt x="20" y="20" on="1"/>
        <pt x="80" y="20" on="1"/>
        <pt x="80" y="496" on="1"/>
        <pt x="48" y="540" on="0"/>
        <pt x="20" y="540" on="1"/>
        <pt x="20" y="560" on="1"/>
        <pt x="207" y="560" on="1"/>
        <pt x="488" y="227" on="1"/>
        <pt x="488" y="540" on="1"/>
        <pt x="408" y="540" on="1"/>
        <pt x="408" y="560" on="1"/>
        <pt x="578" y="560" on="1"/>
        <pt x="578" y="540" on="1"/>
        <pt x="508" y="540" on="1"/>
        <pt x="508" y="-10" on="1"/>
        <pt x="488" y="-10" on="1"/>
        <pt x="100" y="471" on="1"/>
      </contour>
    </TTGlyph>
    <TTGlyph name="Ncaron" xMin="20" yMin="-10" xMax="578" yMax="751">
      <contour>
        <pt x="229" y="751" on="1"/>
        <pt x="317" y="711" on="1"/>
        <pt x="405" y="751" on="1"/>
        <pt x="414" y="742" on="1"/>
        <pt x="326" y="614" on="1"/>
        <pt x="307" y="614" on="1"/>
        <pt x="220" y="742" on="1"/>
      </contour>
      <contour>
        <pt x="100" y="20" on="1"/>
        <pt x="180" y="20" on="1"/>
        <pt x="180" y="0" on="1"/>
        <pt x="20" y="0" on="1"/>
        <pt x="20" y="20" on="1"/>
        <pt x="80" y="20" on="1"/>
        <pt x="80" y="496" on="1"/>
        <pt x="48" y="540" on="0"/>
        <pt x="20" y="540" on="1"/>
        <pt x="20" y="560" on="1"/>
        <pt x="207" y="560" on="1"/>
        <pt x="488" y="227" on="1"/>
        <pt x="488" y="540" on="1"/>
        <pt x="408" y="540" on="1"/>
        <pt x="408" y="560" on="1"/>
        <pt x="578" y="560" on="1"/>
        <pt x="578" y="540" on="1"/>
        <pt x="508" y="540" on="1"/>
        <pt x="508" y="-10" on="1"/>
        <pt x="488" y="-10" on="1"/>
        <pt x="100" y="471" on="1"/>
      </contour>
    </TTGlyph>
    <TTGlyph name="Ntilde" xMin="20" yMin="-10" xMax="578" yMax="726">
      <contour>
        <pt x="100" y="20" on="1"/>
        <pt x="180" y="20" on="1"/>
        <pt x="180" y="0" on="1"/>
        <pt x="20" y="0" on="1"/>
        <pt x="20" y="20" on="1"/>
        <pt x="80" y="20" on="1"/>
        <pt x="80" y="496" on="1"/>
        <pt x="48" y="540" on="0"/>
        <pt x="20" y="540" on="1"/>
        <pt x="20" y="560" on="1"/>
        <pt x="207" y="560" on="1"/>
        <pt x="488" y="227" on="1"/>
        <pt x="488" y="540" on="1"/>
        <pt x="408" y="540" on="1"/>
        <pt x="408" y="560" on="1"/>
        <pt x="578" y="560" on="1"/>
        <pt x="578" y="540" on="1"/>
        <pt x="508" y="540" on="1"/>
        <pt x="508" y="-10" on="1"/>
        <pt x="488" y="-10" on="1"/>
        <pt x="100" y="471" on="1"/>
      </contour>
      <contour>
        <pt x="237" y="630" on="1"/>
        <pt x="217" y="630" on="1"/>
        <pt x="217" y="726" on="0"/>
        <pt x="284" y="726" on="1"/>
        <pt x="303" y="726" on="0"/>
        <pt x="355" y="695" on="0"/>
        <pt x="369" y="695" on="1"/>
        <pt x="395" y="695" on="0"/>
        <pt x="395" y="721" on="1"/>
        <pt x="415" y="721" on="1"/>
        <pt x="415" y="625" on="0"/>
        <pt x="347" y="625" on="1"/>
        <pt x="327" y="625" on="0"/>
        <pt x="275" y="657" on="0"/>
        <pt x="261" y="657" on="1"/>
        <pt x="237" y="657" on="0"/>
      </contour>
    </TTGlyph>
    <TTGlyph name="O" xMin="20" yMin="-10" xMax="602" yMax="572">
      <contour>
        <pt x="441" y="409" on="0"/>
        <pt x="372" y="552" on="0"/>
        <pt x="251" y="552" on="0"/>
        <pt x="181" y="408" on="0"/>
        <pt x="181" y="150" on="0"/>
        <pt x="248" y="10" on="0"/>
        <pt x="311" y="10" on="1"/>
        <pt x="441" y="10" on="0"/>
        <pt x="441" y="281" on="1"/>
      </contour>
      <contour>
        <pt x="602" y="138" on="0"/>
        <pt x="440" y="-10" on="0"/>
        <pt x="180" y="-10" on="0"/>
        <pt x="20" y="137" on="0"/>
        <pt x="20" y="412" on="0"/>
        <pt x="180" y="572" on="0"/>
        <pt x="445" y="572" on="0"/>
        <pt x="602" y="413" on="0"/>
      </contour>
    </TTGlyph>
    <TTGlyph name="OE" xMin="29" yMin="0" xMax="770" yMax="560">
      <contour>
        <pt x="750" y="190" on="1"/>
        <pt x="770" y="190" on="1"/>
        <pt x="770" y="0" on="1"/>
        <pt x="321" y="0" on="1"/>
        <pt x="189" y="0" on="0"/>
        <pt x="30" y="135" on="0"/>
        <pt x="29" y="406" on="0"/>
        <pt x="188" y="560" on="0"/>
        <pt x="321" y="560" on="1"/>
        <pt x="760" y="560" on="1"/>
        <pt x="760" y="390" on="1"/>
        <pt x="740" y="390" on="1"/>
        <pt x="740" y="479" on="0"/>
        <pt x="669" y="540" on="0"/>
        <pt x="590" y="540" on="1"/>
        <pt x="520" y="540" on="1"/>
        <pt x="520" y="300" on="1"/>
        <pt x="540" y="300" on="1"/>
        <pt x="612" y="300" on="0"/>
        <pt x="650" y="336" on="0"/>
        <pt x="650" y="390" on="1"/>
        <pt x="670" y="390" on="1"/>
        <pt x="670" y="190" on="1"/>
        <pt x="650" y="190" on="1"/>
        <pt x="650" y="246" on="0"/>
        <pt x="612" y="280" on="0"/>
        <pt x="540" y="280" on="1"/>
        <pt x="520" y="280" on="1"/>
        <pt x="520" y="20" on="1"/>
        <pt x="600" y="20" on="1"/>
        <pt x="750" y="20" on="0"/>
      </contour>
      <contour>
        <pt x="370" y="20" on="1"/>
        <pt x="370" y="540" on="1"/>
        <pt x="321" y="540" on="1"/>
        <pt x="260" y="540" on="0"/>
        <pt x="190" y="402" on="0"/>
        <pt x="191" y="148" on="0"/>
        <pt x="258" y="20" on="0"/>
        <pt x="321" y="20" on="1"/>
      </contour>
    </TTGlyph>
    <TTGlyph name="Oacute" xMin="20" yMin="-10" xMax="602" yMax="760">
      <contour>
        <pt x="298" y="611" on="1"/>
        <pt x="315" y="636" on="0"/>
        <pt x="324" y="710" on="0"/>
        <pt x="352" y="749" on="0"/>
        <pt x="394" y="760" on="0"/>
        <pt x="410" y="750" on="1"/>
        <pt x="431" y="741" on="0"/>
        <pt x="441" y="692" on="0"/>
        <pt x="411" y="650" on="0"/>
        <pt x="331" y="628" on="0"/>
        <pt x="312" y="601" on="1"/>
      </contour>
      <contour>
        <pt x="441" y="409" on="0"/>
        <pt x="372" y="552" on="0"/>
        <pt x="251" y="552" on="0"/>
        <pt x="181" y="408" on="0"/>
        <pt x="181" y="150" on="0"/>
        <pt x="248" y="10" on="0"/>
        <pt x="311" y="10" on="1"/>
        <pt x="441" y="10" on="0"/>
        <pt x="441" y="281" on="1"/>
      </contour>
      <contour>
        <pt x="602" y="138" on="0"/>
        <pt x="440" y="-10" on="0"/>
        <pt x="180" y="-10" on="0"/>
        <pt x="20" y="137" on="0"/>
        <pt x="20" y="412" on="0"/>
        <pt x="180" y="572" on="0"/>
        <pt x="445" y="572" on="0"/>
        <pt x="602" y="413" on="0"/>
      </contour>
    </TTGlyph>
    <TTGlyph name="Obreve" xMin="20" yMin="-10" xMax="602" yMax="745">
      <contour>
        <pt x="239" y="745" on="1"/>
        <pt x="239" y="696" on="0"/>
        <pt x="383" y="696" on="0"/>
        <pt x="383" y="745" on="1"/>
        <pt x="403" y="745" on="1"/>
        <pt x="403" y="685" on="0"/>
        <pt x="362" y="620" on="0"/>
        <pt x="312" y="620" on="1"/>
        <pt x="219" y="620" on="0"/>
        <pt x="219" y="745" on="1"/>
      </contour>
      <contour>
        <pt x="441" y="409" on="0"/>
        <pt x="372" y="552" on="0"/>
        <pt x="251" y="552" on="0"/>
        <pt x="181" y="408" on="0"/>
        <pt x="181" y="150" on="0"/>
        <pt x="248" y="10" on="0"/>
        <pt x="311" y="10" on="1"/>
        <pt x="441" y="10" on="0"/>
        <pt x="441" y="281" on="1"/>
      </contour>
      <contour>
        <pt x="602" y="138" on="0"/>
        <pt x="440" y="-10" on="0"/>
        <pt x="180" y="-10" on="0"/>
        <pt x="20" y="137" on="0"/>
        <pt x="20" y="412" on="0"/>
        <pt x="180" y="572" on="0"/>
        <pt x="445" y="572" on="0"/>
        <pt x="602" y="413" on="0"/>
      </contour>
    </TTGlyph>
    <TTGlyph name="Ocircumflex" xMin="20" yMin="-10" xMax="602" yMax="751">
      <contour>
        <pt x="223" y="614" on="1"/>
        <pt x="214" y="623" on="1"/>
        <pt x="301" y="751" on="1"/>
        <pt x="320" y="751" on="1"/>
        <pt x="408" y="623" on="1"/>
        <pt x="399" y="614" on="1"/>
        <pt x="311" y="654" on="1"/>
      </contour>
      <contour>
        <pt x="441" y="409" on="0"/>
        <pt x="372" y="552" on="0"/>
        <pt x="251" y="552" on="0"/>
        <pt x="181" y="408" on="0"/>
        <pt x="181" y="150" on="0"/>
        <pt x="248" y="10" on="0"/>
        <pt x="311" y="10" on="1"/>
        <pt x="441" y="10" on="0"/>
        <pt x="441" y="281" on="1"/>
      </contour>
      <contour>
        <pt x="602" y="138" on="0"/>
        <pt x="440" y="-10" on="0"/>
        <pt x="180" y="-10" on="0"/>
        <pt x="20" y="137" on="0"/>
        <pt x="20" y="412" on="0"/>
        <pt x="180" y="572" on="0"/>
        <pt x="445" y="572" on="0"/>
        <pt x="602" y="413" on="0"/>
      </contour>
    </TTGlyph>
    <TTGlyph name="Odieresis" xMin="20" yMin="-10" xMax="602" yMax="745">
      <contour>
        <pt x="248" y="745" on="0"/>
        <pt x="284" y="708" on="0"/>
        <pt x="284" y="657" on="0"/>
        <pt x="248" y="621" on="0"/>
        <pt x="197" y="621" on="0"/>
        <pt x="159" y="657" on="0"/>
        <pt x="159" y="708" on="0"/>
        <pt x="197" y="745" on="0"/>
      </contour>
      <contour>
        <pt x="420" y="745" on="0"/>
        <pt x="455" y="709" on="0"/>
        <pt x="455" y="656" on="0"/>
        <pt x="420" y="621" on="0"/>
        <pt x="368" y="621" on="0"/>
        <pt x="332" y="657" on="0"/>
        <pt x="332" y="708" on="0"/>
        <pt x="368" y="745" on="0"/>
      </contour>
      <contour>
        <pt x="441" y="409" on="0"/>
        <pt x="372" y="552" on="0"/>
        <pt x="251" y="552" on="0"/>
        <pt x="181" y="408" on="0"/>
        <pt x="181" y="150" on="0"/>
        <pt x="248" y="10" on="0"/>
        <pt x="311" y="10" on="1"/>
        <pt x="441" y="10" on="0"/>
        <pt x="441" y="281" on="1"/>
      </contour>
      <contour>
        <pt x="602" y="138" on="0"/>
        <pt x="440" y="-10" on="0"/>
        <pt x="180" y="-10" on="0"/>
        <pt x="20" y="137" on="0"/>
        <pt x="20" y="412" on="0"/>
        <pt x="180" y="572" on="0"/>
        <pt x="445" y="572" on="0"/>
        <pt x="602" y="413" on="0"/>
      </contour>
    </TTGlyph>
    <TTGlyph name="Ograve" xMin="20" yMin="-10" xMax="602" yMax="760">
      <contour>
        <pt x="326" y="611" on="1"/>
        <pt x="312" y="601" on="1"/>
        <pt x="293" y="628" on="0"/>
        <pt x="213" y="650" on="0"/>
        <pt x="183" y="692" on="0"/>
        <pt x="193" y="741" on="0"/>
        <pt x="214" y="750" on="1"/>
        <pt x="230" y="760" on="0"/>
        <pt x="272" y="749" on="0"/>
        <pt x="300" y="710" on="0"/>
        <pt x="309" y="636" on="0"/>
      </contour>
      <contour>
        <pt x="441" y="409" on="0"/>
        <pt x="372" y="552" on="0"/>
        <pt x="251" y="552" on="0"/>
        <pt x="181" y="408" on="0"/>
        <pt x="181" y="150" on="0"/>
        <pt x="248" y="10" on="0"/>
        <pt x="311" y="10" on="1"/>
        <pt x="441" y="10" on="0"/>
        <pt x="441" y="281" on="1"/>
      </contour>
      <contour>
        <pt x="602" y="138" on="0"/>
        <pt x="440" y="-10" on="0"/>
        <pt x="180" y="-10" on="0"/>
        <pt x="20" y="137" on="0"/>
        <pt x="20" y="412" on="0"/>
        <pt x="180" y="572" on="0"/>
        <pt x="445" y="572" on="0"/>
        <pt x="602" y="413" on="0"/>
      </contour>
    </TTGlyph>
    <TTGlyph name="Ohungarumlaut" xMin="20" yMin="-10" xMax="602" yMax="779">
      <contour>
        <pt x="230" y="610" on="1"/>
        <pt x="240" y="638" on="0"/>
        <pt x="229" y="713" on="0"/>
        <pt x="247" y="757" on="0"/>
        <pt x="284" y="779" on="0"/>
        <pt x="302" y="774" on="1"/>
        <pt x="325" y="770" on="0"/>
        <pt x="347" y="725" on="0"/>
        <pt x="329" y="677" on="0"/>
        <pt x="257" y="635" on="0"/>
        <pt x="246" y="604" on="1"/>
      </contour>
      <contour>
        <pt x="380" y="610" on="1"/>
        <pt x="390" y="638" on="0"/>
        <pt x="379" y="713" on="0"/>
        <pt x="397" y="757" on="0"/>
        <pt x="434" y="779" on="0"/>
        <pt x="452" y="774" on="1"/>
        <pt x="475" y="770" on="0"/>
        <pt x="497" y="725" on="0"/>
        <pt x="479" y="677" on="0"/>
        <pt x="407" y="635" on="0"/>
        <pt x="396" y="604" on="1"/>
      </contour>
      <contour>
        <pt x="441" y="409" on="0"/>
        <pt x="372" y="552" on="0"/>
        <pt x="251" y="552" on="0"/>
        <pt x="181" y="408" on="0"/>
        <pt x="181" y="150" on="0"/>
        <pt x="248" y="10" on="0"/>
        <pt x="311" y="10" on="1"/>
        <pt x="441" y="10" on="0"/>
        <pt x="441" y="281" on="1"/>
      </contour>
      <contour>
        <pt x="602" y="138" on="0"/>
        <pt x="440" y="-10" on="0"/>
        <pt x="180" y="-10" on="0"/>
        <pt x="20" y="137" on="0"/>
        <pt x="20" y="412" on="0"/>
        <pt x="180" y="572" on="0"/>
        <pt x="445" y="572" on="0"/>
        <pt x="602" y="413" on="0"/>
      </contour>
    </TTGlyph>
    <TTGlyph name="Omacron" xMin="20" yMin="-10" xMax="602" yMax="707">
      <contour>
        <pt x="410" y="707" on="1"/>
        <pt x="410" y="657" on="1"/>
        <pt x="210" y="657" on="1"/>
        <pt x="210" y="707" on="1"/>
      </contour>
      <contour>
        <pt x="441" y="409" on="0"/>
        <pt x="372" y="552" on="0"/>
        <pt x="251" y="552" on="0"/>
        <pt x="181" y="408" on="0"/>
        <pt x="181" y="150" on="0"/>
        <pt x="248" y="10" on="0"/>
        <pt x="311" y="10" on="1"/>
        <pt x="441" y="10" on="0"/>
        <pt x="441" y="281" on="1"/>
      </contour>
      <contour>
        <pt x="602" y="138" on="0"/>
        <pt x="440" y="-10" on="0"/>
        <pt x="180" y="-10" on="0"/>
        <pt x="20" y="137" on="0"/>
        <pt x="20" y="412" on="0"/>
        <pt x="180" y="572" on="0"/>
        <pt x="445" y="572" on="0"/>
        <pt x="602" y="413" on="0"/>
      </contour>
    </TTGlyph>
    <TTGlyph name="Oslash" xMin="60" yMin="-10" xMax="642" yMax="572">
      <contour>
        <pt x="570" y="486" on="1"/>
        <pt x="642" y="406" on="0"/>
        <pt x="642" y="138" on="0"/>
        <pt x="480" y="-10" on="0"/>
        <pt x="221" y="-10" on="0"/>
        <pt x="144" y="60" on="1"/>
        <pt x="74" y="-10" on="1"/>
        <pt x="60" y="5" on="1"/>
        <pt x="129" y="74" on="1"/>
        <pt x="60" y="151" on="0"/>
        <pt x="60" y="412" on="0"/>
        <pt x="220" y="572" on="0"/>
        <pt x="478" y="572" on="0"/>
        <pt x="555" y="500" on="1"/>
        <pt x="627" y="572" on="1"/>
        <pt x="642" y="558" on="1"/>
      </contour>
      <contour>
        <pt x="351" y="552" on="1"/>
        <pt x="291" y="552" on="0"/>
        <pt x="221" y="408" on="0"/>
        <pt x="221" y="281" on="1"/>
        <pt x="221" y="218" on="0"/>
        <pt x="228" y="173" on="1"/>
        <pt x="469" y="414" on="1"/>
        <pt x="438" y="552" on="0"/>
      </contour>
      <contour>
        <pt x="351" y="10" on="1"/>
        <pt x="481" y="10" on="0"/>
        <pt x="481" y="281" on="1"/>
        <pt x="481" y="338" on="0"/>
        <pt x="473" y="389" on="1"/>
        <pt x="233" y="149" on="1"/>
        <pt x="260" y="10" on="0"/>
      </contour>
    </TTGlyph>
    <TTGlyph name="Oslashacute" xMin="60" yMin="-10" xMax="642" yMax="760">
      <contour>
        <pt x="570" y="486" on="1"/>
        <pt x="642" y="406" on="0"/>
        <pt x="642" y="138" on="0"/>
        <pt x="480" y="-10" on="0"/>
        <pt x="221" y="-10" on="0"/>
        <pt x="144" y="60" on="1"/>
        <pt x="74" y="-10" on="1"/>
        <pt x="60" y="5" on="1"/>
        <pt x="129" y="74" on="1"/>
        <pt x="60" y="151" on="0"/>
        <pt x="60" y="412" on="0"/>
        <pt x="220" y="572" on="0"/>
        <pt x="478" y="572" on="0"/>
        <pt x="555" y="500" on="1"/>
        <pt x="627" y="572" on="1"/>
        <pt x="642" y="558" on="1"/>
      </contour>
      <contour>
        <pt x="351" y="552" on="1"/>
        <pt x="291" y="552" on="0"/>
        <pt x="221" y="408" on="0"/>
        <pt x="221" y="281" on="1"/>
        <pt x="221" y="218" on="0"/>
        <pt x="228" y="173" on="1"/>
        <pt x="469" y="414" on="1"/>
        <pt x="438" y="552" on="0"/>
      </contour>
      <contour>
        <pt x="351" y="10" on="1"/>
        <pt x="481" y="10" on="0"/>
        <pt x="481" y="281" on="1"/>
        <pt x="481" y="338" on="0"/>
        <pt x="473" y="389" on="1"/>
        <pt x="233" y="149" on="1"/>
        <pt x="260" y="10" on="0"/>
      </contour>
      <contour>
        <pt x="355" y="601" on="1"/>
        <pt x="341" y="611" on="1"/>
        <pt x="358" y="636" on="0"/>
        <pt x="367" y="710" on="0"/>
        <pt x="395" y="749" on="0"/>
        <pt x="437" y="760" on="0"/>
        <pt x="453" y="750" on="1"/>
        <pt x="474" y="741" on="0"/>
        <pt x="484" y="692" on="0"/>
        <pt x="454" y="650" on="0"/>
        <pt x="374" y="628" on="0"/>
      </contour>
    </TTGlyph>
    <TTGlyph name="Otilde" xMin="20" yMin="-10" xMax="602" yMax="726">
      <contour>
        <pt x="232" y="630" on="1"/>
        <pt x="212" y="630" on="1"/>
        <pt x="212" y="726" on="0"/>
        <pt x="279" y="726" on="1"/>
        <pt x="298" y="726" on="0"/>
        <pt x="350" y="695" on="0"/>
        <pt x="364" y="695" on="1"/>
        <pt x="390" y="695" on="0"/>
        <pt x="390" y="721" on="1"/>
        <pt x="410" y="721" on="1"/>
        <pt x="410" y="625" on="0"/>
        <pt x="342" y="625" on="1"/>
        <pt x="322" y="625" on="0"/>
        <pt x="270" y="657" on="0"/>
        <pt x="256" y="657" on="1"/>
        <pt x="232" y="657" on="0"/>
      </contour>
      <contour>
        <pt x="441" y="409" on="0"/>
        <pt x="372" y="552" on="0"/>
        <pt x="251" y="552" on="0"/>
        <pt x="181" y="408" on="0"/>
        <pt x="181" y="150" on="0"/>
        <pt x="248" y="10" on="0"/>
        <pt x="311" y="10" on="1"/>
        <pt x="441" y="10" on="0"/>
        <pt x="441" y="281" on="1"/>
      </contour>
      <contour>
        <pt x="602" y="138" on="0"/>
        <pt x="440" y="-10" on="0"/>
        <pt x="180" y="-10" on="0"/>
        <pt x="20" y="137" on="0"/>
        <pt x="20" y="412" on="0"/>
        <pt x="180" y="572" on="0"/>
        <pt x="445" y="572" on="0"/>
        <pt x="602" y="413" on="0"/>
      </contour>
    </TTGlyph>
    <TTGlyph name="P" xMin="40" yMin="0" xMax="533" yMax="574">
      <contour>
        <pt x="240" y="540" on="1"/>
        <pt x="240" y="214" on="1"/>
        <pt x="322" y="214" on="0"/>
        <pt x="382" y="285" on="0"/>
        <pt x="382" y="463" on="0"/>
        <pt x="322" y="540" on="0"/>
      </contour>
      <contour>
        <pt x="290" y="20" on="1"/>
        <pt x="290" y="0" on="1"/>
        <pt x="40" y="0" on="1"/>
        <pt x="40" y="20" on="1"/>
        <pt x="90" y="20" on="1"/>
        <pt x="90" y="540" on="1"/>
        <pt x="40" y="540" on="1"/>
        <pt x="40" y="560" on="1"/>
        <pt x="239" y="560" on="1"/>
        <pt x="533" y="574" on="0"/>
        <pt x="533" y="371" on="1"/>
        <pt x="533" y="281" on="0"/>
        <pt x="385" y="187" on="0"/>
        <pt x="240" y="194" on="1"/>
        <pt x="240" y="20" on="1"/>
      </contour>
    </TTGlyph>
    <TTGlyph name="Q" xMin="30" yMin="-262" xMax="702" yMax="570">
      <contour>
        <pt x="332" y="-68" on="0"/>
        <pt x="521" y="-113" on="0"/>
        <pt x="629" y="-113" on="0"/>
        <pt x="682" y="-67" on="0"/>
        <pt x="682" y="-32" on="1"/>
        <pt x="702" y="-32" on="1"/>
        <pt x="702" y="-147" on="0"/>
        <pt x="640" y="-262" on="0"/>
        <pt x="558" y="-262" on="1"/>
        <pt x="489" y="-262" on="0"/>
        <pt x="422" y="-202" on="1"/>
        <pt x="394" y="-177" on="0"/>
        <pt x="366" y="-152" on="1"/>
        <pt x="299" y="-92" on="0"/>
        <pt x="233" y="-92" on="1"/>
        <pt x="191" y="-92" on="0"/>
        <pt x="146" y="-127" on="1"/>
        <pt x="135" y="-109" on="1"/>
        <pt x="167" y="-81" on="0"/>
        <pt x="229" y="-56" on="0"/>
        <pt x="242" y="-52" on="1"/>
        <pt x="260" y="-45" on="0"/>
        <pt x="309" y="-33" on="1"/>
        <pt x="480" y="18" on="0"/>
        <pt x="480" y="276" on="1"/>
        <pt x="480" y="410" on="0"/>
        <pt x="395" y="550" on="0"/>
        <pt x="268" y="550" on="0"/>
        <pt x="192" y="409" on="0"/>
        <pt x="192" y="163" on="0"/>
        <pt x="257" y="28" on="0"/>
        <pt x="321" y="28" on="1"/>
        <pt x="321" y="8" on="1"/>
        <pt x="186" y="8" on="0"/>
        <pt x="30" y="142" on="0"/>
        <pt x="30" y="402" on="0"/>
        <pt x="196" y="570" on="0"/>
        <pt x="468" y="570" on="0"/>
        <pt x="642" y="402" on="0"/>
        <pt x="642" y="275" on="1"/>
        <pt x="642" y="201" on="0"/>
        <pt x="581" y="81" on="0"/>
        <pt x="526" y="40" on="1"/>
        <pt x="417" y="-41" on="0"/>
        <pt x="250" y="-69" on="1"/>
        <pt x="250" y="-73" on="1"/>
      </contour>
    </TTGlyph>
    <TTGlyph name="R" xMin="30" yMin="-10" xMax="623" yMax="560">
      <contour>
        <pt x="230" y="540" on="1"/>
        <pt x="230" y="282" on="1"/>
        <pt x="330" y="282" on="0"/>
        <pt x="398" y="340" on="0"/>
        <pt x="398" y="476" on="0"/>
        <pt x="328" y="540" on="0"/>
      </contour>
      <contour>
        <pt x="623" y="-10" on="1"/>
        <pt x="579" y="-10" on="1"/>
        <pt x="454" y="-10" on="0"/>
        <pt x="405" y="44" on="1"/>
        <pt x="366" y="86" on="0"/>
        <pt x="352" y="155" on="1"/>
        <pt x="346" y="184" on="0"/>
        <pt x="339" y="208" on="1"/>
        <pt x="323" y="262" on="0"/>
        <pt x="274" y="262" on="1"/>
        <pt x="230" y="262" on="1"/>
        <pt x="230" y="20" on="1"/>
        <pt x="280" y="20" on="1"/>
        <pt x="280" y="0" on="1"/>
        <pt x="30" y="0" on="1"/>
        <pt x="30" y="20" on="1"/>
        <pt x="80" y="20" on="1"/>
        <pt x="80" y="540" on="1"/>
        <pt x="30" y="540" on="1"/>
        <pt x="30" y="560" on="1"/>
        <pt x="293" y="560" on="1"/>
        <pt x="548" y="560" on="0"/>
        <pt x="548" y="411" on="1"/>
        <pt x="548" y="352" on="0"/>
        <pt x="462" y="278" on="0"/>
        <pt x="395" y="278" on="1"/>
        <pt x="395" y="271" on="1"/>
        <pt x="495" y="271" on="0"/>
        <pt x="534" y="139" on="1"/>
        <pt x="554" y="69" on="0"/>
        <pt x="595" y="10" on="0"/>
        <pt x="623" y="10" on="1"/>
      </contour>
    </TTGlyph>
    <TTGlyph name="Racute" xMin="30" yMin="-10" xMax="623" yMax="758">
      <contour>
        <pt x="268" y="609" on="1"/>
        <pt x="285" y="634" on="0"/>
        <pt x="294" y="708" on="0"/>
        <pt x="322" y="747" on="0"/>
        <pt x="364" y="758" on="0"/>
        <pt x="380" y="748" on="1"/>
        <pt x="401" y="739" on="0"/>
        <pt x="411" y="690" on="0"/>
        <pt x="381" y="648" on="0"/>
        <pt x="301" y="626" on="0"/>
        <pt x="282" y="599" on="1"/>
      </contour>
      <contour>
        <pt x="230" y="540" on="1"/>
        <pt x="230" y="282" on="1"/>
        <pt x="330" y="282" on="0"/>
        <pt x="398" y="340" on="0"/>
        <pt x="398" y="476" on="0"/>
        <pt x="328" y="540" on="0"/>
      </contour>
      <contour>
        <pt x="623" y="-10" on="1"/>
        <pt x="579" y="-10" on="1"/>
        <pt x="454" y="-10" on="0"/>
        <pt x="405" y="44" on="1"/>
        <pt x="366" y="86" on="0"/>
        <pt x="352" y="155" on="1"/>
        <pt x="346" y="184" on="0"/>
        <pt x="339" y="208" on="1"/>
        <pt x="323" y="262" on="0"/>
        <pt x="274" y="262" on="1"/>
        <pt x="230" y="262" on="1"/>
        <pt x="230" y="20" on="1"/>
        <pt x="280" y="20" on="1"/>
        <pt x="280" y="0" on="1"/>
        <pt x="30" y="0" on="1"/>
        <pt x="30" y="20" on="1"/>
        <pt x="80" y="20" on="1"/>
        <pt x="80" y="540" on="1"/>
        <pt x="30" y="540" on="1"/>
        <pt x="30" y="560" on="1"/>
        <pt x="293" y="560" on="1"/>
        <pt x="548" y="560" on="0"/>
        <pt x="548" y="411" on="1"/>
        <pt x="548" y="352" on="0"/>
        <pt x="462" y="278" on="0"/>
        <pt x="395" y="278" on="1"/>
        <pt x="395" y="271" on="1"/>
        <pt x="495" y="271" on="0"/>
        <pt x="534" y="139" on="1"/>
        <pt x="554" y="69" on="0"/>
        <pt x="595" y="10" on="0"/>
        <pt x="623" y="10" on="1"/>
      </contour>
    </TTGlyph>
    <TTGlyph name="Rcaron" xMin="30" yMin="-10" xMax="623" yMax="751">
      <contour>
        <pt x="199" y="751" on="1"/>
        <pt x="287" y="711" on="1"/>
        <pt x="375" y="751" on="1"/>
        <pt x="384" y="742" on="1"/>
        <pt x="296" y="614" on="1"/>
        <pt x="277" y="614" on="1"/>
        <pt x="190" y="742" on="1"/>
      </contour>
      <contour>
        <pt x="230" y="540" on="1"/>
        <pt x="230" y="282" on="1"/>
        <pt x="330" y="282" on="0"/>
        <pt x="398" y="340" on="0"/>
        <pt x="398" y="476" on="0"/>
        <pt x="328" y="540" on="0"/>
      </contour>
      <contour>
        <pt x="623" y="-10" on="1"/>
        <pt x="579" y="-10" on="1"/>
        <pt x="454" y="-10" on="0"/>
        <pt x="405" y="44" on="1"/>
        <pt x="366" y="86" on="0"/>
        <pt x="352" y="155" on="1"/>
        <pt x="346" y="184" on="0"/>
        <pt x="339" y="208" on="1"/>
        <pt x="323" y="262" on="0"/>
        <pt x="274" y="262" on="1"/>
        <pt x="230" y="262" on="1"/>
        <pt x="230" y="20" on="1"/>
        <pt x="280" y="20" on="1"/>
        <pt x="280" y="0" on="1"/>
        <pt x="30" y="0" on="1"/>
        <pt x="30" y="20" on="1"/>
        <pt x="80" y="20" on="1"/>
        <pt x="80" y="540" on="1"/>
        <pt x="30" y="540" on="1"/>
        <pt x="30" y="560" on="1"/>
        <pt x="293" y="560" on="1"/>
        <pt x="548" y="560" on="0"/>
        <pt x="548" y="411" on="1"/>
        <pt x="548" y="352" on="0"/>
        <pt x="462" y="278" on="0"/>
        <pt x="395" y="278" on="1"/>
        <pt x="395" y="271" on="1"/>
        <pt x="495" y="271" on="0"/>
        <pt x="534" y="139" on="1"/>
        <pt x="554" y="69" on="0"/>
        <pt x="595" y="10" on="0"/>
        <pt x="623" y="10" on="1"/>
      </contour>
    </TTGlyph>
    <TTGlyph name="S" xMin="60" yMin="-15" xMax="522" yMax="570">
      <contour>
        <pt x="80" y="0" on="1"/>
        <pt x="60" y="0" on="1"/>
        <pt x="60" y="233" on="1"/>
        <pt x="80" y="233" on="1"/>
        <pt x="80" y="139" on="0"/>
        <pt x="215" y="7" on="0"/>
        <pt x="312" y="7" on="1"/>
        <pt x="352" y="7" on="0"/>
        <pt x="401" y="54" on="0"/>
        <pt x="401" y="93" on="1"/>
        <pt x="401" y="137" on="0"/>
        <pt x="344" y="168" on="1"/>
        <pt x="313" y="184" on="0"/>
        <pt x="161" y="253" on="0"/>
        <pt x="130" y="277" on="1"/>
        <pt x="68" y="325" on="0"/>
        <pt x="83" y="483" on="0"/>
        <pt x="187" y="570" on="0"/>
        <pt x="318" y="570" on="0"/>
        <pt x="423" y="535" on="0"/>
        <pt x="430" y="535" on="1"/>
        <pt x="450" y="535" on="0"/>
        <pt x="450" y="570" on="1"/>
        <pt x="470" y="570" on="1"/>
        <pt x="470" y="387" on="1"/>
        <pt x="450" y="387" on="1"/>
        <pt x="450" y="459" on="0"/>
        <pt x="344" y="550" on="0"/>
        <pt x="261" y="550" on="1"/>
        <pt x="224" y="550" on="0"/>
        <pt x="182" y="507" on="0"/>
        <pt x="182" y="455" on="0"/>
        <pt x="196" y="427" on="0"/>
        <pt x="231" y="404" on="0"/>
        <pt x="257" y="390" on="0"/>
        <pt x="314" y="366" on="0"/>
        <pt x="325" y="361" on="1"/>
        <pt x="380" y="336" on="0"/>
        <pt x="400" y="327" on="0"/>
        <pt x="438" y="307" on="0"/>
        <pt x="457" y="291" on="0"/>
        <pt x="487" y="267" on="0"/>
        <pt x="501" y="242" on="0"/>
        <pt x="508" y="226" on="1"/>
        <pt x="522" y="194" on="0"/>
        <pt x="518" y="151" on="1"/>
        <pt x="510" y="70" on="0"/>
        <pt x="405" y="-15" on="0"/>
        <pt x="316" y="-15" on="1"/>
        <pt x="236" y="-15" on="0"/>
        <pt x="157" y="26" on="1"/>
        <pt x="130" y="40" on="0"/>
        <pt x="117" y="40" on="1"/>
        <pt x="80" y="40" on="0"/>
      </contour>
    </TTGlyph>
    <TTGlyph name="Sacute" xMin="60" yMin="-15" xMax="522" yMax="760">
      <contour>
        <pt x="242" y="601" on="1"/>
        <pt x="228" y="611" on="1"/>
        <pt x="245" y="636" on="0"/>
        <pt x="254" y="710" on="0"/>
        <pt x="282" y="749" on="0"/>
        <pt x="324" y="760" on="0"/>
        <pt x="340" y="750" on="1"/>
        <pt x="361" y="741" on="0"/>
        <pt x="371" y="692" on="0"/>
        <pt x="341" y="650" on="0"/>
        <pt x="261" y="628" on="0"/>
      </contour>
      <contour>
        <pt x="80" y="0" on="1"/>
        <pt x="60" y="0" on="1"/>
        <pt x="60" y="233" on="1"/>
        <pt x="80" y="233" on="1"/>
        <pt x="80" y="139" on="0"/>
        <pt x="215" y="7" on="0"/>
        <pt x="312" y="7" on="1"/>
        <pt x="352" y="7" on="0"/>
        <pt x="401" y="54" on="0"/>
        <pt x="401" y="93" on="1"/>
        <pt x="401" y="137" on="0"/>
        <pt x="344" y="168" on="1"/>
        <pt x="313" y="184" on="0"/>
        <pt x="161" y="253" on="0"/>
        <pt x="130" y="277" on="1"/>
        <pt x="68" y="325" on="0"/>
        <pt x="83" y="483" on="0"/>
        <pt x="187" y="570" on="0"/>
        <pt x="318" y="570" on="0"/>
        <pt x="423" y="535" on="0"/>
        <pt x="430" y="535" on="1"/>
        <pt x="450" y="535" on="0"/>
        <pt x="450" y="570" on="1"/>
        <pt x="470" y="570" on="1"/>
        <pt x="470" y="387" on="1"/>
        <pt x="450" y="387" on="1"/>
        <pt x="450" y="459" on="0"/>
        <pt x="344" y="550" on="0"/>
        <pt x="261" y="550" on="1"/>
        <pt x="224" y="550" on="0"/>
        <pt x="182" y="507" on="0"/>
        <pt x="182" y="455" on="0"/>
        <pt x="196" y="427" on="0"/>
        <pt x="231" y="404" on="0"/>
        <pt x="257" y="390" on="0"/>
        <pt x="314" y="366" on="0"/>
        <pt x="325" y="361" on="1"/>
        <pt x="380" y="336" on="0"/>
        <pt x="400" y="327" on="0"/>
        <pt x="438" y="307" on="0"/>
        <pt x="457" y="291" on="0"/>
        <pt x="487" y="267" on="0"/>
        <pt x="501" y="242" on="0"/>
        <pt x="508" y="226" on="1"/>
        <pt x="522" y="194" on="0"/>
        <pt x="518" y="151" on="1"/>
        <pt x="510" y="70" on="0"/>
        <pt x="405" y="-15" on="0"/>
        <pt x="316" y="-15" on="1"/>
        <pt x="236" y="-15" on="0"/>
        <pt x="157" y="26" on="1"/>
        <pt x="130" y="40" on="0"/>
        <pt x="117" y="40" on="1"/>
        <pt x="80" y="40" on="0"/>
      </contour>
    </TTGlyph>
    <TTGlyph name="Scaron" xMin="60" yMin="-15" xMax="522" yMax="751">
      <contour>
        <pt x="80" y="0" on="1"/>
        <pt x="60" y="0" on="1"/>
        <pt x="60" y="233" on="1"/>
        <pt x="80" y="233" on="1"/>
        <pt x="80" y="139" on="0"/>
        <pt x="215" y="7" on="0"/>
        <pt x="312" y="7" on="1"/>
        <pt x="352" y="7" on="0"/>
        <pt x="401" y="54" on="0"/>
        <pt x="401" y="93" on="1"/>
        <pt x="401" y="137" on="0"/>
        <pt x="344" y="168" on="1"/>
        <pt x="313" y="184" on="0"/>
        <pt x="161" y="253" on="0"/>
        <pt x="130" y="277" on="1"/>
        <pt x="68" y="325" on="0"/>
        <pt x="83" y="483" on="0"/>
        <pt x="187" y="570" on="0"/>
        <pt x="318" y="570" on="0"/>
        <pt x="423" y="535" on="0"/>
        <pt x="430" y="535" on="1"/>
        <pt x="450" y="535" on="0"/>
        <pt x="450" y="570" on="1"/>
        <pt x="470" y="570" on="1"/>
        <pt x="470" y="387" on="1"/>
        <pt x="450" y="387" on="1"/>
        <pt x="450" y="459" on="0"/>
        <pt x="344" y="550" on="0"/>
        <pt x="261" y="550" on="1"/>
        <pt x="224" y="550" on="0"/>
        <pt x="182" y="507" on="0"/>
        <pt x="182" y="455" on="0"/>
        <pt x="196" y="427" on="0"/>
        <pt x="231" y="404" on="0"/>
        <pt x="257" y="390" on="0"/>
        <pt x="314" y="366" on="0"/>
        <pt x="325" y="361" on="1"/>
        <pt x="380" y="336" on="0"/>
        <pt x="400" y="327" on="0"/>
        <pt x="438" y="307" on="0"/>
        <pt x="457" y="291" on="0"/>
        <pt x="487" y="267" on="0"/>
        <pt x="501" y="242" on="0"/>
        <pt x="508" y="226" on="1"/>
        <pt x="522" y="194" on="0"/>
        <pt x="518" y="151" on="1"/>
        <pt x="510" y="70" on="0"/>
        <pt x="405" y="-15" on="0"/>
        <pt x="316" y="-15" on="1"/>
        <pt x="236" y="-15" on="0"/>
        <pt x="157" y="26" on="1"/>
        <pt x="130" y="40" on="0"/>
        <pt x="117" y="40" on="1"/>
        <pt x="80" y="40" on="0"/>
      </contour>
      <contour>
        <pt x="181" y="751" on="1"/>
        <pt x="269" y="711" on="1"/>
        <pt x="357" y="751" on="1"/>
        <pt x="366" y="742" on="1"/>
        <pt x="278" y="614" on="1"/>
        <pt x="259" y="614" on="1"/>
        <pt x="172" y="742" on="1"/>
      </contour>
    </TTGlyph>
    <TTGlyph name="Scircumflex" xMin="60" yMin="-15" xMax="522" yMax="751">
      <contour>
        <pt x="80" y="0" on="1"/>
        <pt x="60" y="0" on="1"/>
        <pt x="60" y="233" on="1"/>
        <pt x="80" y="233" on="1"/>
        <pt x="80" y="139" on="0"/>
        <pt x="215" y="7" on="0"/>
        <pt x="312" y="7" on="1"/>
        <pt x="352" y="7" on="0"/>
        <pt x="401" y="54" on="0"/>
        <pt x="401" y="93" on="1"/>
        <pt x="401" y="137" on="0"/>
        <pt x="344" y="168" on="1"/>
        <pt x="313" y="184" on="0"/>
        <pt x="161" y="253" on="0"/>
        <pt x="130" y="277" on="1"/>
        <pt x="68" y="325" on="0"/>
        <pt x="83" y="483" on="0"/>
        <pt x="187" y="570" on="0"/>
        <pt x="318" y="570" on="0"/>
        <pt x="423" y="535" on="0"/>
        <pt x="430" y="535" on="1"/>
        <pt x="450" y="535" on="0"/>
        <pt x="450" y="570" on="1"/>
        <pt x="470" y="570" on="1"/>
        <pt x="470" y="387" on="1"/>
        <pt x="450" y="387" on="1"/>
        <pt x="450" y="459" on="0"/>
        <pt x="344" y="550" on="0"/>
        <pt x="261" y="550" on="1"/>
        <pt x="224" y="550" on="0"/>
        <pt x="182" y="507" on="0"/>
        <pt x="182" y="455" on="0"/>
        <pt x="196" y="427" on="0"/>
        <pt x="231" y="404" on="0"/>
        <pt x="257" y="390" on="0"/>
        <pt x="314" y="366" on="0"/>
        <pt x="325" y="361" on="1"/>
        <pt x="380" y="336" on="0"/>
        <pt x="400" y="327" on="0"/>
        <pt x="438" y="307" on="0"/>
        <pt x="457" y="291" on="0"/>
        <pt x="487" y="267" on="0"/>
        <pt x="501" y="242" on="0"/>
        <pt x="508" y="226" on="1"/>
        <pt x="522" y="194" on="0"/>
        <pt x="518" y="151" on="1"/>
        <pt x="510" y="70" on="0"/>
        <pt x="405" y="-15" on="0"/>
        <pt x="316" y="-15" on="1"/>
        <pt x="236" y="-15" on="0"/>
        <pt x="157" y="26" on="1"/>
        <pt x="130" y="40" on="0"/>
        <pt x="117" y="40" on="1"/>
        <pt x="80" y="40" on="0"/>
      </contour>
      <contour>
        <pt x="191" y="614" on="1"/>
        <pt x="182" y="623" on="1"/>
        <pt x="269" y="751" on="1"/>
        <pt x="288" y="751" on="1"/>
        <pt x="376" y="623" on="1"/>
        <pt x="367" y="614" on="1"/>
        <pt x="279" y="654" on="1"/>
      </contour>
    </TTGlyph>
    <TTGlyph name="T" xMin="20" yMin="0" xMax="549" yMax="560">
      <contour>
        <pt x="529" y="390" on="1"/>
        <pt x="529" y="479" on="0"/>
        <pt x="470" y="540" on="0"/>
        <pt x="389" y="540" on="1"/>
        <pt x="359" y="540" on="1"/>
        <pt x="359" y="20" on="1"/>
        <pt x="429" y="20" on="1"/>
        <pt x="429" y="0" on="1"/>
        <pt x="139" y="0" on="1"/>
        <pt x="139" y="20" on="1"/>
        <pt x="209" y="20" on="1"/>
        <pt x="209" y="540" on="1"/>
        <pt x="179" y="540" on="1"/>
        <pt x="99" y="540" on="0"/>
        <pt x="40" y="479" on="0"/>
        <pt x="40" y="390" on="1"/>
        <pt x="20" y="390" on="1"/>
        <pt x="20" y="560" on="1"/>
        <pt x="549" y="560" on="1"/>
        <pt x="549" y="390" on="1"/>
      </contour>
    </TTGlyph>
    <TTGlyph name="Tbar" xMin="10" yMin="0" xMax="539" yMax="560">
      <contour>
        <pt x="419" y="20" on="1"/>
        <pt x="419" y="0" on="1"/>
        <pt x="129" y="0" on="1"/>
        <pt x="129" y="20" on="1"/>
        <pt x="199" y="20" on="1"/>
        <pt x="199" y="270" on="1"/>
        <pt x="79" y="270" on="1"/>
        <pt x="79" y="290" on="1"/>
        <pt x="199" y="290" on="1"/>
        <pt x="199" y="540" on="1"/>
        <pt x="106" y="540" on="0"/>
        <pt x="30" y="480" on="0"/>
        <pt x="30" y="390" on="1"/>
        <pt x="10" y="390" on="1"/>
        <pt x="10" y="560" on="1"/>
        <pt x="539" y="560" on="1"/>
        <pt x="539" y="390" on="1"/>
        <pt x="519" y="390" on="1"/>
        <pt x="519" y="480" on="0"/>
        <pt x="442" y="540" on="0"/>
        <pt x="349" y="540" on="1"/>
        <pt x="349" y="290" on="1"/>
        <pt x="469" y="290" on="1"/>
        <pt x="469" y="270" on="1"/>
        <pt x="349" y="270" on="1"/>
        <pt x="349" y="20" on="1"/>
      </contour>
    </TTGlyph>
    <TTGlyph name="Tcaron" xMin="20" yMin="0" xMax="549" yMax="751">
      <contour>
        <pt x="203" y="751" on="1"/>
        <pt x="291" y="711" on="1"/>
        <pt x="379" y="751" on="1"/>
        <pt x="388" y="742" on="1"/>
        <pt x="300" y="614" on="1"/>
        <pt x="281" y="614" on="1"/>
        <pt x="194" y="742" on="1"/>
      </contour>
      <contour>
        <pt x="529" y="390" on="1"/>
        <pt x="529" y="479" on="0"/>
        <pt x="470" y="540" on="0"/>
        <pt x="389" y="540" on="1"/>
        <pt x="359" y="540" on="1"/>
        <pt x="359" y="20" on="1"/>
        <pt x="429" y="20" on="1"/>
        <pt x="429" y="0" on="1"/>
        <pt x="139" y="0" on="1"/>
        <pt x="139" y="20" on="1"/>
        <pt x="209" y="20" on="1"/>
        <pt x="209" y="540" on="1"/>
        <pt x="179" y="540" on="1"/>
        <pt x="99" y="540" on="0"/>
        <pt x="40" y="479" on="0"/>
        <pt x="40" y="390" on="1"/>
        <pt x="20" y="390" on="1"/>
        <pt x="20" y="560" on="1"/>
        <pt x="549" y="560" on="1"/>
        <pt x="549" y="390" on="1"/>
      </contour>
    </TTGlyph>
    <TTGlyph name="Thorn" xMin="40" yMin="0" xMax="533" yMax="560">
      <contour>
        <pt x="240" y="117" on="1"/>
        <pt x="322" y="117" on="0"/>
        <pt x="382" y="188" on="0"/>
        <pt x="382" y="366" on="0"/>
        <pt x="322" y="443" on="0"/>
        <pt x="240" y="443" on="1"/>
      </contour>
      <contour>
        <pt x="533" y="274" on="1"/>
        <pt x="533" y="184" on="0"/>
        <pt x="385" y="90" on="0"/>
        <pt x="240" y="97" on="1"/>
        <pt x="240" y="20" on="1"/>
        <pt x="290" y="20" on="1"/>
        <pt x="290" y="0" on="1"/>
        <pt x="40" y="0" on="1"/>
        <pt x="40" y="20" on="1"/>
        <pt x="90" y="20" on="1"/>
        <pt x="90" y="540" on="1"/>
        <pt x="40" y="540" on="1"/>
        <pt x="40" y="560" on="1"/>
        <pt x="290" y="560" on="1"/>
        <pt x="290" y="540" on="1"/>
        <pt x="240" y="540" on="1"/>
        <pt x="240" y="463" on="1"/>
        <pt x="533" y="477" on="0"/>
      </contour>
    </TTGlyph>
    <TTGlyph name="U" xMin="20" yMin="-15" xMax="595" yMax="560">
      <contour>
        <pt x="545" y="244" on="1"/>
        <pt x="545" y="-15" on="0"/>
        <pt x="327" y="-15" on="1"/>
        <pt x="206" y="-15" on="0"/>
        <pt x="70" y="109" on="0"/>
        <pt x="70" y="234" on="1"/>
        <pt x="70" y="540" on="1"/>
        <pt x="20" y="540" on="1"/>
        <pt x="20" y="560" on="1"/>
        <pt x="280" y="560" on="1"/>
        <pt x="280" y="540" on="1"/>
        <pt x="230" y="540" on="1"/>
        <pt x="230" y="223" on="1"/>
        <pt x="230" y="14" on="0"/>
        <pt x="370" y="14" on="1"/>
        <pt x="427" y="14" on="0"/>
        <pt x="520" y="127" on="0"/>
        <pt x="520" y="224" on="1"/>
        <pt x="520" y="540" on="1"/>
        <pt x="441" y="540" on="1"/>
        <pt x="441" y="560" on="1"/>
        <pt x="595" y="560" on="1"/>
        <pt x="595" y="540" on="1"/>
        <pt x="545" y="540" on="1"/>
      </contour>
    </TTGlyph>
    <TTGlyph name="Uacute" xMin="20" yMin="-15" xMax="595" yMax="760">
      <contour>
        <pt x="338" y="611" on="1"/>
        <pt x="355" y="636" on="0"/>
        <pt x="364" y="710" on="0"/>
        <pt x="392" y="749" on="0"/>
        <pt x="434" y="760" on="0"/>
        <pt x="450" y="750" on="1"/>
        <pt x="471" y="741" on="0"/>
        <pt x="481" y="692" on="0"/>
        <pt x="451" y="650" on="0"/>
        <pt x="371" y="628" on="0"/>
        <pt x="352" y="601" on="1"/>
      </contour>
      <contour>
        <pt x="545" y="244" on="1"/>
        <pt x="545" y="-15" on="0"/>
        <pt x="327" y="-15" on="1"/>
        <pt x="206" y="-15" on="0"/>
        <pt x="70" y="109" on="0"/>
        <pt x="70" y="234" on="1"/>
        <pt x="70" y="540" on="1"/>
        <pt x="20" y="540" on="1"/>
        <pt x="20" y="560" on="1"/>
        <pt x="280" y="560" on="1"/>
        <pt x="280" y="540" on="1"/>
        <pt x="230" y="540" on="1"/>
        <pt x="230" y="223" on="1"/>
        <pt x="230" y="14" on="0"/>
        <pt x="370" y="14" on="1"/>
        <pt x="427" y="14" on="0"/>
        <pt x="520" y="127" on="0"/>
        <pt x="520" y="224" on="1"/>
        <pt x="520" y="540" on="1"/>
        <pt x="441" y="540" on="1"/>
        <pt x="441" y="560" on="1"/>
        <pt x="595" y="560" on="1"/>
        <pt x="595" y="540" on="1"/>
        <pt x="545" y="540" on="1"/>
      </contour>
    </TTGlyph>
    <TTGlyph name="Ubreve" xMin="20" yMin="-15" xMax="595" yMax="745">
      <contour>
        <pt x="286" y="745" on="1"/>
        <pt x="286" y="696" on="0"/>
        <pt x="430" y="696" on="0"/>
        <pt x="430" y="745" on="1"/>
        <pt x="450" y="745" on="1"/>
        <pt x="450" y="685" on="0"/>
        <pt x="409" y="620" on="0"/>
        <pt x="359" y="620" on="1"/>
        <pt x="266" y="620" on="0"/>
        <pt x="266" y="745" on="1"/>
      </contour>
      <contour>
        <pt x="545" y="244" on="1"/>
        <pt x="545" y="-15" on="0"/>
        <pt x="327" y="-15" on="1"/>
        <pt x="206" y="-15" on="0"/>
        <pt x="70" y="109" on="0"/>
        <pt x="70" y="234" on="1"/>
        <pt x="70" y="540" on="1"/>
        <pt x="20" y="540" on="1"/>
        <pt x="20" y="560" on="1"/>
        <pt x="280" y="560" on="1"/>
        <pt x="280" y="540" on="1"/>
        <pt x="230" y="540" on="1"/>
        <pt x="230" y="223" on="1"/>
        <pt x="230" y="14" on="0"/>
        <pt x="370" y="14" on="1"/>
        <pt x="427" y="14" on="0"/>
        <pt x="520" y="127" on="0"/>
        <pt x="520" y="224" on="1"/>
        <pt x="520" y="540" on="1"/>
        <pt x="441" y="540" on="1"/>
        <pt x="441" y="560" on="1"/>
        <pt x="595" y="560" on="1"/>
        <pt x="595" y="540" on="1"/>
        <pt x="545" y="540" on="1"/>
      </contour>
    </TTGlyph>
    <TTGlyph name="Ucircumflex" xMin="20" yMin="-15" xMax="595" yMax="751">
      <contour>
        <pt x="269" y="614" on="1"/>
        <pt x="260" y="623" on="1"/>
        <pt x="347" y="751" on="1"/>
        <pt x="366" y="751" on="1"/>
        <pt x="454" y="623" on="1"/>
        <pt x="445" y="614" on="1"/>
        <pt x="357" y="654" on="1"/>
      </contour>
      <contour>
        <pt x="545" y="244" on="1"/>
        <pt x="545" y="-15" on="0"/>
        <pt x="327" y="-15" on="1"/>
        <pt x="206" y="-15" on="0"/>
        <pt x="70" y="109" on="0"/>
        <pt x="70" y="234" on="1"/>
        <pt x="70" y="540" on="1"/>
        <pt x="20" y="540" on="1"/>
        <pt x="20" y="560" on="1"/>
        <pt x="280" y="560" on="1"/>
        <pt x="280" y="540" on="1"/>
        <pt x="230" y="540" on="1"/>
        <pt x="230" y="223" on="1"/>
        <pt x="230" y="14" on="0"/>
        <pt x="370" y="14" on="1"/>
        <pt x="427" y="14" on="0"/>
        <pt x="520" y="127" on="0"/>
        <pt x="520" y="224" on="1"/>
        <pt x="520" y="540" on="1"/>
        <pt x="441" y="540" on="1"/>
        <pt x="441" y="560" on="1"/>
        <pt x="595" y="560" on="1"/>
        <pt x="595" y="540" on="1"/>
        <pt x="545" y="540" on="1"/>
      </contour>
    </TTGlyph>
    <TTGlyph name="Udieresis" xMin="20" yMin="-15" xMax="595" yMax="745">
      <contour>
        <pt x="304" y="745" on="0"/>
        <pt x="340" y="708" on="0"/>
        <pt x="340" y="657" on="0"/>
        <pt x="304" y="621" on="0"/>
        <pt x="253" y="621" on="0"/>
        <pt x="215" y="657" on="0"/>
        <pt x="215" y="708" on="0"/>
        <pt x="253" y="745" on="0"/>
      </contour>
      <contour>
        <pt x="476" y="745" on="0"/>
        <pt x="511" y="709" on="0"/>
        <pt x="511" y="656" on="0"/>
        <pt x="476" y="621" on="0"/>
        <pt x="424" y="621" on="0"/>
        <pt x="388" y="657" on="0"/>
        <pt x="388" y="708" on="0"/>
        <pt x="424" y="745" on="0"/>
      </contour>
      <contour>
        <pt x="545" y="244" on="1"/>
        <pt x="545" y="-15" on="0"/>
        <pt x="327" y="-15" on="1"/>
        <pt x="206" y="-15" on="0"/>
        <pt x="70" y="109" on="0"/>
        <pt x="70" y="234" on="1"/>
        <pt x="70" y="540" on="1"/>
        <pt x="20" y="540" on="1"/>
        <pt x="20" y="560" on="1"/>
        <pt x="280" y="560" on="1"/>
        <pt x="280" y="540" on="1"/>
        <pt x="230" y="540" on="1"/>
        <pt x="230" y="223" on="1"/>
        <pt x="230" y="14" on="0"/>
        <pt x="370" y="14" on="1"/>
        <pt x="427" y="14" on="0"/>
        <pt x="520" y="127" on="0"/>
        <pt x="520" y="224" on="1"/>
        <pt x="520" y="540" on="1"/>
        <pt x="441" y="540" on="1"/>
        <pt x="441" y="560" on="1"/>
        <pt x="595" y="560" on="1"/>
        <pt x="595" y="540" on="1"/>
        <pt x="545" y="540" on="1"/>
      </contour>
    </TTGlyph>
    <TTGlyph name="Ugrave" xMin="20" yMin="-15" xMax="595" yMax="760">
      <contour>
        <pt x="396" y="611" on="1"/>
        <pt x="382" y="601" on="1"/>
        <pt x="363" y="628" on="0"/>
        <pt x="283" y="650" on="0"/>
        <pt x="253" y="692" on="0"/>
        <pt x="263" y="741" on="0"/>
        <pt x="284" y="750" on="1"/>
        <pt x="300" y="760" on="0"/>
        <pt x="342" y="749" on="0"/>
        <pt x="370" y="710" on="0"/>
        <pt x="379" y="636" on="0"/>
      </contour>
      <contour>
        <pt x="545" y="244" on="1"/>
        <pt x="545" y="-15" on="0"/>
        <pt x="327" y="-15" on="1"/>
        <pt x="206" y="-15" on="0"/>
        <pt x="70" y="109" on="0"/>
        <pt x="70" y="234" on="1"/>
        <pt x="70" y="540" on="1"/>
        <pt x="20" y="540" on="1"/>
        <pt x="20" y="560" on="1"/>
        <pt x="280" y="560" on="1"/>
        <pt x="280" y="540" on="1"/>
        <pt x="230" y="540" on="1"/>
        <pt x="230" y="223" on="1"/>
        <pt x="230" y="14" on="0"/>
        <pt x="370" y="14" on="1"/>
        <pt x="427" y="14" on="0"/>
        <pt x="520" y="127" on="0"/>
        <pt x="520" y="224" on="1"/>
        <pt x="520" y="540" on="1"/>
        <pt x="441" y="540" on="1"/>
        <pt x="441" y="560" on="1"/>
        <pt x="595" y="560" on="1"/>
        <pt x="595" y="540" on="1"/>
        <pt x="545" y="540" on="1"/>
      </contour>
    </TTGlyph>
    <TTGlyph name="Uhungarumlaut" xMin="20" yMin="-15" xMax="595" yMax="769">
      <contour>
        <pt x="270" y="600" on="1"/>
        <pt x="280" y="628" on="0"/>
        <pt x="269" y="703" on="0"/>
        <pt x="287" y="747" on="0"/>
        <pt x="324" y="769" on="0"/>
        <pt x="342" y="764" on="1"/>
        <pt x="365" y="760" on="0"/>
        <pt x="387" y="715" on="0"/>
        <pt x="369" y="667" on="0"/>
        <pt x="297" y="625" on="0"/>
        <pt x="286" y="594" on="1"/>
      </contour>
      <contour>
        <pt x="420" y="600" on="1"/>
        <pt x="430" y="628" on="0"/>
        <pt x="419" y="703" on="0"/>
        <pt x="437" y="747" on="0"/>
        <pt x="474" y="769" on="0"/>
        <pt x="492" y="764" on="1"/>
        <pt x="515" y="760" on="0"/>
        <pt x="537" y="715" on="0"/>
        <pt x="519" y="667" on="0"/>
        <pt x="447" y="625" on="0"/>
        <pt x="436" y="594" on="1"/>
      </contour>
      <contour>
        <pt x="545" y="244" on="1"/>
        <pt x="545" y="-15" on="0"/>
        <pt x="327" y="-15" on="1"/>
        <pt x="206" y="-15" on="0"/>
        <pt x="70" y="109" on="0"/>
        <pt x="70" y="234" on="1"/>
        <pt x="70" y="540" on="1"/>
        <pt x="20" y="540" on="1"/>
        <pt x="20" y="560" on="1"/>
        <pt x="280" y="560" on="1"/>
        <pt x="280" y="540" on="1"/>
        <pt x="230" y="540" on="1"/>
        <pt x="230" y="223" on="1"/>
        <pt x="230" y="14" on="0"/>
        <pt x="370" y="14" on="1"/>
        <pt x="427" y="14" on="0"/>
        <pt x="520" y="127" on="0"/>
        <pt x="520" y="224" on="1"/>
        <pt x="520" y="540" on="1"/>
        <pt x="441" y="540" on="1"/>
        <pt x="441" y="560" on="1"/>
        <pt x="595" y="560" on="1"/>
        <pt x="595" y="540" on="1"/>
        <pt x="545" y="540" on="1"/>
      </contour>
    </TTGlyph>
    <TTGlyph name="Umacron" xMin="20" yMin="-15" xMax="595" yMax="707">
      <contour>
        <pt x="459" y="707" on="1"/>
        <pt x="459" y="657" on="1"/>
        <pt x="259" y="657" on="1"/>
        <pt x="259" y="707" on="1"/>
      </contour>
      <contour>
        <pt x="545" y="244" on="1"/>
        <pt x="545" y="-15" on="0"/>
        <pt x="327" y="-15" on="1"/>
        <pt x="206" y="-15" on="0"/>
        <pt x="70" y="109" on="0"/>
        <pt x="70" y="234" on="1"/>
        <pt x="70" y="540" on="1"/>
        <pt x="20" y="540" on="1"/>
        <pt x="20" y="560" on="1"/>
        <pt x="280" y="560" on="1"/>
        <pt x="280" y="540" on="1"/>
        <pt x="230" y="540" on="1"/>
        <pt x="230" y="223" on="1"/>
        <pt x="230" y="14" on="0"/>
        <pt x="370" y="14" on="1"/>
        <pt x="427" y="14" on="0"/>
        <pt x="520" y="127" on="0"/>
        <pt x="520" y="224" on="1"/>
        <pt x="520" y="540" on="1"/>
        <pt x="441" y="540" on="1"/>
        <pt x="441" y="560" on="1"/>
        <pt x="595" y="560" on="1"/>
        <pt x="595" y="540" on="1"/>
        <pt x="545" y="540" on="1"/>
      </contour>
    </TTGlyph>
    <TTGlyph name="Uogonek" xMin="20" yMin="-177" xMax="595" yMax="560">
      <contour>
        <pt x="441" y="560" on="1"/>
        <pt x="595" y="560" on="1"/>
        <pt x="595" y="540" on="1"/>
        <pt x="545" y="540" on="1"/>
        <pt x="545" y="244" on="1"/>
        <pt x="545" y="8" on="0"/>
        <pt x="363" y="-13" on="1"/>
        <pt x="312" y="-91" on="0"/>
        <pt x="352" y="-121" on="1"/>
        <pt x="383" y="-142" on="0"/>
        <pt x="408" y="-119" on="1"/>
        <pt x="418" y="-131" on="1"/>
        <pt x="382" y="-177" on="0"/>
        <pt x="336" y="-177" on="1"/>
        <pt x="297" y="-177" on="0"/>
        <pt x="279" y="-150" on="1"/>
        <pt x="247" y="-102" on="0"/>
        <pt x="331" y="-15" on="1"/>
        <pt x="327" y="-15" on="1"/>
        <pt x="206" y="-15" on="0"/>
        <pt x="70" y="109" on="0"/>
        <pt x="70" y="234" on="1"/>
        <pt x="70" y="540" on="1"/>
        <pt x="20" y="540" on="1"/>
        <pt x="20" y="560" on="1"/>
        <pt x="280" y="560" on="1"/>
        <pt x="280" y="540" on="1"/>
        <pt x="230" y="540" on="1"/>
        <pt x="230" y="223" on="1"/>
        <pt x="230" y="14" on="0"/>
        <pt x="370" y="14" on="1"/>
        <pt x="427" y="14" on="0"/>
        <pt x="520" y="127" on="0"/>
        <pt x="520" y="224" on="1"/>
        <pt x="520" y="540" on="1"/>
        <pt x="441" y="540" on="1"/>
      </contour>
    </TTGlyph>
    <TTGlyph name="Uring" xMin="20" yMin="-15" xMax="595" yMax="767">
      <contour>
        <pt x="445" y="648" on="0"/>
        <pt x="395" y="598" on="0"/>
        <pt x="326" y="598" on="0"/>
        <pt x="277" y="647" on="0"/>
        <pt x="277" y="717" on="0"/>
        <pt x="326" y="767" on="0"/>
        <pt x="394" y="767" on="0"/>
        <pt x="445" y="716" on="0"/>
      </contour>
      <contour>
        <pt x="342" y="635" on="0"/>
        <pt x="378" y="635" on="0"/>
        <pt x="404" y="664" on="0"/>
        <pt x="404" y="701" on="0"/>
        <pt x="379" y="727" on="0"/>
        <pt x="341" y="727" on="0"/>
        <pt x="317" y="701" on="0"/>
        <pt x="317" y="664" on="0"/>
      </contour>
      <contour>
        <pt x="545" y="244" on="1"/>
        <pt x="545" y="-15" on="0"/>
        <pt x="327" y="-15" on="1"/>
        <pt x="206" y="-15" on="0"/>
        <pt x="70" y="109" on="0"/>
        <pt x="70" y="234" on="1"/>
        <pt x="70" y="540" on="1"/>
        <pt x="20" y="540" on="1"/>
        <pt x="20" y="560" on="1"/>
        <pt x="280" y="560" on="1"/>
        <pt x="280" y="540" on="1"/>
        <pt x="230" y="540" on="1"/>
        <pt x="230" y="223" on="1"/>
        <pt x="230" y="14" on="0"/>
        <pt x="370" y="14" on="1"/>
        <pt x="427" y="14" on="0"/>
        <pt x="520" y="127" on="0"/>
        <pt x="520" y="224" on="1"/>
        <pt x="520" y="540" on="1"/>
        <pt x="441" y="540" on="1"/>
        <pt x="441" y="560" on="1"/>
        <pt x="595" y="560" on="1"/>
        <pt x="595" y="540" on="1"/>
        <pt x="545" y="540" on="1"/>
      </contour>
    </TTGlyph>
    <TTGlyph name="Utilde" xMin="20" yMin="-15" xMax="595" yMax="726">
      <contour>
        <pt x="287" y="630" on="1"/>
        <pt x="267" y="630" on="1"/>
        <pt x="267" y="726" on="0"/>
        <pt x="334" y="726" on="1"/>
        <pt x="353" y="726" on="0"/>
        <pt x="405" y="695" on="0"/>
        <pt x="419" y="695" on="1"/>
        <pt x="445" y="695" on="0"/>
        <pt x="445" y="721" on="1"/>
        <pt x="465" y="721" on="1"/>
        <pt x="465" y="625" on="0"/>
        <pt x="397" y="625" on="1"/>
        <pt x="377" y="625" on="0"/>
        <pt x="325" y="657" on="0"/>
        <pt x="311" y="657" on="1"/>
        <pt x="287" y="657" on="0"/>
      </contour>
      <contour>
        <pt x="545" y="244" on="1"/>
        <pt x="545" y="-15" on="0"/>
        <pt x="327" y="-15" on="1"/>
        <pt x="206" y="-15" on="0"/>
        <pt x="70" y="109" on="0"/>
        <pt x="70" y="234" on="1"/>
        <pt x="70" y="540" on="1"/>
        <pt x="20" y="540" on="1"/>
        <pt x="20" y="560" on="1"/>
        <pt x="280" y="560" on="1"/>
        <pt x="280" y="540" on="1"/>
        <pt x="230" y="540" on="1"/>
        <pt x="230" y="223" on="1"/>
        <pt x="230" y="14" on="0"/>
        <pt x="370" y="14" on="1"/>
        <pt x="427" y="14" on="0"/>
        <pt x="520" y="127" on="0"/>
        <pt x="520" y="224" on="1"/>
        <pt x="520" y="540" on="1"/>
        <pt x="441" y="540" on="1"/>
        <pt x="441" y="560" on="1"/>
        <pt x="595" y="560" on="1"/>
        <pt x="595" y="540" on="1"/>
        <pt x="545" y="540" on="1"/>
      </contour>
    </TTGlyph>
    <TTGlyph name="V" xMin="10" yMin="0" xMax="616" yMax="560">
      <contour>
        <pt x="616" y="560" on="1"/>
        <pt x="616" y="540" on="1"/>
        <pt x="548" y="540" on="1"/>
        <pt x="335" y="0" on="1"/>
        <pt x="309" y="0" on="1"/>
        <pt x="58" y="540" on="1"/>
        <pt x="10" y="540" on="1"/>
        <pt x="10" y="560" on="1"/>
        <pt x="293" y="560" on="1"/>
        <pt x="293" y="540" on="1"/>
        <pt x="244" y="540" on="1"/>
        <pt x="390" y="205" on="1"/>
        <pt x="522" y="540" on="1"/>
        <pt x="442" y="540" on="1"/>
        <pt x="442" y="560" on="1"/>
      </contour>
    </TTGlyph>
    <TTGlyph name="W" xMin="10" yMin="0" xMax="909" yMax="560">
      <contour>
        <pt x="10" y="540" on="1"/>
        <pt x="10" y="560" on="1"/>
        <pt x="303" y="560" on="1"/>
        <pt x="303" y="540" on="1"/>
        <pt x="254" y="540" on="1"/>
        <pt x="391" y="231" on="1"/>
        <pt x="455" y="390" on="1"/>
        <pt x="388" y="540" on="1"/>
        <pt x="350" y="540" on="1"/>
        <pt x="350" y="560" on="1"/>
        <pt x="624" y="560" on="1"/>
        <pt x="624" y="540" on="1"/>
        <pt x="577" y="540" on="1"/>
        <pt x="711" y="235" on="1"/>
        <pt x="817" y="540" on="1"/>
        <pt x="737" y="540" on="1"/>
        <pt x="737" y="560" on="1"/>
        <pt x="909" y="560" on="1"/>
        <pt x="909" y="540" on="1"/>
        <pt x="841" y="540" on="1"/>
        <pt x="654" y="0" on="1"/>
        <pt x="630" y="0" on="1"/>
        <pt x="634" y="11" on="1"/>
        <pt x="629" y="0" on="1"/>
        <pt x="468" y="362" on="1"/>
        <pt x="323" y="0" on="1"/>
        <pt x="299" y="0" on="1"/>
        <pt x="58" y="540" on="1"/>
      </contour>
    </TTGlyph>
    <TTGlyph name="Wacute" xMin="10" yMin="0" xMax="909" yMax="742">
      <contour>
        <pt x="446" y="593" on="1"/>
        <pt x="463" y="618" on="0"/>
        <pt x="472" y="692" on="0"/>
        <pt x="500" y="731" on="0"/>
        <pt x="542" y="742" on="0"/>
        <pt x="558" y="732" on="1"/>
        <pt x="579" y="723" on="0"/>
        <pt x="589" y="674" on="0"/>
        <pt x="559" y="632" on="0"/>
        <pt x="479" y="610" on="0"/>
        <pt x="460" y="583" on="1"/>
      </contour>
      <contour>
        <pt x="10" y="540" on="1"/>
        <pt x="10" y="560" on="1"/>
        <pt x="303" y="560" on="1"/>
        <pt x="303" y="540" on="1"/>
        <pt x="254" y="540" on="1"/>
        <pt x="391" y="231" on="1"/>
        <pt x="455" y="390" on="1"/>
        <pt x="388" y="540" on="1"/>
        <pt x="350" y="540" on="1"/>
        <pt x="350" y="560" on="1"/>
        <pt x="624" y="560" on="1"/>
        <pt x="624" y="540" on="1"/>
        <pt x="577" y="540" on="1"/>
        <pt x="711" y="235" on="1"/>
        <pt x="817" y="540" on="1"/>
        <pt x="737" y="540" on="1"/>
        <pt x="737" y="560" on="1"/>
        <pt x="909" y="560" on="1"/>
        <pt x="909" y="540" on="1"/>
        <pt x="841" y="540" on="1"/>
        <pt x="654" y="0" on="1"/>
        <pt x="630" y="0" on="1"/>
        <pt x="634" y="11" on="1"/>
        <pt x="629" y="0" on="1"/>
        <pt x="468" y="362" on="1"/>
        <pt x="323" y="0" on="1"/>
        <pt x="299" y="0" on="1"/>
        <pt x="58" y="540" on="1"/>
      </contour>
    </TTGlyph>
    <TTGlyph name="Wcircumflex" xMin="10" yMin="0" xMax="909" yMax="751">
      <contour>
        <pt x="397" y="614" on="1"/>
        <pt x="388" y="623" on="1"/>
        <pt x="475" y="751" on="1"/>
        <pt x="494" y="751" on="1"/>
        <pt x="582" y="623" on="1"/>
        <pt x="573" y="614" on="1"/>
        <pt x="485" y="654" on="1"/>
      </contour>
      <contour>
        <pt x="10" y="540" on="1"/>
        <pt x="10" y="560" on="1"/>
        <pt x="303" y="560" on="1"/>
        <pt x="303" y="540" on="1"/>
        <pt x="254" y="540" on="1"/>
        <pt x="391" y="231" on="1"/>
        <pt x="455" y="390" on="1"/>
        <pt x="388" y="540" on="1"/>
        <pt x="350" y="540" on="1"/>
        <pt x="350" y="560" on="1"/>
        <pt x="624" y="560" on="1"/>
        <pt x="624" y="540" on="1"/>
        <pt x="577" y="540" on="1"/>
        <pt x="711" y="235" on="1"/>
        <pt x="817" y="540" on="1"/>
        <pt x="737" y="540" on="1"/>
        <pt x="737" y="560" on="1"/>
        <pt x="909" y="560" on="1"/>
        <pt x="909" y="540" on="1"/>
        <pt x="841" y="540" on="1"/>
        <pt x="654" y="0" on="1"/>
        <pt x="630" y="0" on="1"/>
        <pt x="634" y="11" on="1"/>
        <pt x="629" y="0" on="1"/>
        <pt x="468" y="362" on="1"/>
        <pt x="323" y="0" on="1"/>
        <pt x="299" y="0" on="1"/>
        <pt x="58" y="540" on="1"/>
      </contour>
    </TTGlyph>
    <TTGlyph name="Wdieresis" xMin="10" yMin="0" xMax="909" yMax="745">
      <contour>
        <pt x="428" y="745" on="0"/>
        <pt x="464" y="708" on="0"/>
        <pt x="464" y="657" on="0"/>
        <pt x="428" y="621" on="0"/>
        <pt x="377" y="621" on="0"/>
        <pt x="339" y="657" on="0"/>
        <pt x="339" y="708" on="0"/>
        <pt x="377" y="745" on="0"/>
      </contour>
      <contour>
        <pt x="600" y="745" on="0"/>
        <pt x="635" y="709" on="0"/>
        <pt x="635" y="656" on="0"/>
        <pt x="600" y="621" on="0"/>
        <pt x="548" y="621" on="0"/>
        <pt x="512" y="657" on="0"/>
        <pt x="512" y="708" on="0"/>
        <pt x="548" y="745" on="0"/>
      </contour>
      <contour>
        <pt x="10" y="540" on="1"/>
        <pt x="10" y="560" on="1"/>
        <pt x="303" y="560" on="1"/>
        <pt x="303" y="540" on="1"/>
        <pt x="254" y="540" on="1"/>
        <pt x="391" y="231" on="1"/>
        <pt x="455" y="390" on="1"/>
        <pt x="388" y="540" on="1"/>
        <pt x="350" y="540" on="1"/>
        <pt x="350" y="560" on="1"/>
        <pt x="624" y="560" on="1"/>
        <pt x="624" y="540" on="1"/>
        <pt x="577" y="540" on="1"/>
        <pt x="711" y="235" on="1"/>
        <pt x="817" y="540" on="1"/>
        <pt x="737" y="540" on="1"/>
        <pt x="737" y="560" on="1"/>
        <pt x="909" y="560" on="1"/>
        <pt x="909" y="540" on="1"/>
        <pt x="841" y="540" on="1"/>
        <pt x="654" y="0" on="1"/>
        <pt x="630" y="0" on="1"/>
        <pt x="634" y="11" on="1"/>
        <pt x="629" y="0" on="1"/>
        <pt x="468" y="362" on="1"/>
        <pt x="323" y="0" on="1"/>
        <pt x="299" y="0" on="1"/>
        <pt x="58" y="540" on="1"/>
      </contour>
    </TTGlyph>
    <TTGlyph name="Wgrave" xMin="10" yMin="0" xMax="909" yMax="760">
      <contour>
        <pt x="499" y="611" on="1"/>
        <pt x="485" y="601" on="1"/>
        <pt x="466" y="628" on="0"/>
        <pt x="386" y="650" on="0"/>
        <pt x="356" y="692" on="0"/>
        <pt x="366" y="741" on="0"/>
        <pt x="387" y="750" on="1"/>
        <pt x="403" y="760" on="0"/>
        <pt x="445" y="749" on="0"/>
        <pt x="473" y="710" on="0"/>
        <pt x="482" y="636" on="0"/>
      </contour>
      <contour>
        <pt x="10" y="540" on="1"/>
        <pt x="10" y="560" on="1"/>
        <pt x="303" y="560" on="1"/>
        <pt x="303" y="540" on="1"/>
        <pt x="254" y="540" on="1"/>
        <pt x="391" y="231" on="1"/>
        <pt x="455" y="390" on="1"/>
        <pt x="388" y="540" on="1"/>
        <pt x="350" y="540" on="1"/>
        <pt x="350" y="560" on="1"/>
        <pt x="624" y="560" on="1"/>
        <pt x="624" y="540" on="1"/>
        <pt x="577" y="540" on="1"/>
        <pt x="711" y="235" on="1"/>
        <pt x="817" y="540" on="1"/>
        <pt x="737" y="540" on="1"/>
        <pt x="737" y="560" on="1"/>
        <pt x="909" y="560" on="1"/>
        <pt x="909" y="540" on="1"/>
        <pt x="841" y="540" on="1"/>
        <pt x="654" y="0" on="1"/>
        <pt x="630" y="0" on="1"/>
        <pt x="634" y="11" on="1"/>
        <pt x="629" y="0" on="1"/>
        <pt x="468" y="362" on="1"/>
        <pt x="323" y="0" on="1"/>
        <pt x="299" y="0" on="1"/>
        <pt x="58" y="540" on="1"/>
      </contour>
    </TTGlyph>
    <TTGlyph name="X" xMin="10" yMin="0" xMax="615" yMax="560">
      <contour>
        <pt x="615" y="20" on="1"/>
        <pt x="615" y="0" on="1"/>
        <pt x="340" y="0" on="1"/>
        <pt x="340" y="20" on="1"/>
        <pt x="390" y="20" on="1"/>
        <pt x="251" y="248" on="1"/>
        <pt x="109" y="20" on="1"/>
        <pt x="190" y="20" on="1"/>
        <pt x="190" y="0" on="1"/>
        <pt x="10" y="0" on="1"/>
        <pt x="10" y="20" on="1"/>
        <pt x="82" y="20" on="1"/>
        <pt x="238" y="270" on="1"/>
        <pt x="74" y="540" on="1"/>
        <pt x="21" y="540" on="1"/>
        <pt x="21" y="560" on="1"/>
        <pt x="300" y="560" on="1"/>
        <pt x="300" y="540" on="1"/>
        <pt x="254" y="540" on="1"/>
        <pt x="361" y="363" on="1"/>
        <pt x="480" y="540" on="1"/>
        <pt x="400" y="540" on="1"/>
        <pt x="400" y="560" on="1"/>
        <pt x="580" y="560" on="1"/>
        <pt x="580" y="540" on="1"/>
        <pt x="507" y="540" on="1"/>
        <pt x="373" y="342" on="1"/>
        <pt x="567" y="20" on="1"/>
      </contour>
    </TTGlyph>
    <TTGlyph name="Y" xMin="10" yMin="0" xMax="606" yMax="560">
      <contour>
        <pt x="431" y="0" on="1"/>
        <pt x="201" y="0" on="1"/>
        <pt x="201" y="20" on="1"/>
        <pt x="241" y="20" on="1"/>
        <pt x="241" y="231" on="1"/>
        <pt x="62" y="540" on="1"/>
        <pt x="10" y="540" on="1"/>
        <pt x="10" y="560" on="1"/>
        <pt x="290" y="560" on="1"/>
        <pt x="290" y="540" on="1"/>
        <pt x="241" y="540" on="1"/>
        <pt x="381" y="288" on="1"/>
        <pt x="511" y="540" on="1"/>
        <pt x="431" y="540" on="1"/>
        <pt x="431" y="560" on="1"/>
        <pt x="606" y="560" on="1"/>
        <pt x="606" y="540" on="1"/>
        <pt x="536" y="540" on="1"/>
        <pt x="391" y="258" on="1"/>
        <pt x="391" y="20" on="1"/>
        <pt x="431" y="20" on="1"/>
      </contour>
    </TTGlyph>
    <TTGlyph name="Yacute" xMin="10" yMin="0" xMax="606" yMax="760">
      <contour>
        <pt x="319" y="611" on="1"/>
        <pt x="336" y="636" on="0"/>
        <pt x="345" y="710" on="0"/>
        <pt x="373" y="749" on="0"/>
        <pt x="415" y="760" on="0"/>
        <pt x="431" y="750" on="1"/>
        <pt x="452" y="741" on="0"/>
        <pt x="462" y="692" on="0"/>
        <pt x="432" y="650" on="0"/>
        <pt x="352" y="628" on="0"/>
        <pt x="333" y="601" on="1"/>
      </contour>
      <contour>
        <pt x="431" y="0" on="1"/>
        <pt x="201" y="0" on="1"/>
        <pt x="201" y="20" on="1"/>
        <pt x="241" y="20" on="1"/>
        <pt x="241" y="231" on="1"/>
        <pt x="62" y="540" on="1"/>
        <pt x="10" y="540" on="1"/>
        <pt x="10" y="560" on="1"/>
        <pt x="290" y="560" on="1"/>
        <pt x="290" y="540" on="1"/>
        <pt x="241" y="540" on="1"/>
        <pt x="381" y="288" on="1"/>
        <pt x="511" y="540" on="1"/>
        <pt x="431" y="540" on="1"/>
        <pt x="431" y="560" on="1"/>
        <pt x="606" y="560" on="1"/>
        <pt x="606" y="540" on="1"/>
        <pt x="536" y="540" on="1"/>
        <pt x="391" y="258" on="1"/>
        <pt x="391" y="20" on="1"/>
        <pt x="431" y="20" on="1"/>
      </contour>
    </TTGlyph>
    <TTGlyph name="Ycircumflex" xMin="10" yMin="0" xMax="606" yMax="751">
      <contour>
        <pt x="241" y="614" on="1"/>
        <pt x="232" y="623" on="1"/>
        <pt x="319" y="751" on="1"/>
        <pt x="338" y="751" on="1"/>
        <pt x="426" y="623" on="1"/>
        <pt x="417" y="614" on="1"/>
        <pt x="329" y="654" on="1"/>
      </contour>
      <contour>
        <pt x="431" y="0" on="1"/>
        <pt x="201" y="0" on="1"/>
        <pt x="201" y="20" on="1"/>
        <pt x="241" y="20" on="1"/>
        <pt x="241" y="231" on="1"/>
        <pt x="62" y="540" on="1"/>
        <pt x="10" y="540" on="1"/>
        <pt x="10" y="560" on="1"/>
        <pt x="290" y="560" on="1"/>
        <pt x="290" y="540" on="1"/>
        <pt x="241" y="540" on="1"/>
        <pt x="381" y="288" on="1"/>
        <pt x="511" y="540" on="1"/>
        <pt x="431" y="540" on="1"/>
        <pt x="431" y="560" on="1"/>
        <pt x="606" y="560" on="1"/>
        <pt x="606" y="540" on="1"/>
        <pt x="536" y="540" on="1"/>
        <pt x="391" y="258" on="1"/>
        <pt x="391" y="20" on="1"/>
        <pt x="431" y="20" on="1"/>
      </contour>
    </TTGlyph>
    <TTGlyph name="Ydieresis" xMin="10" yMin="0" xMax="606" yMax="745">
      <contour>
        <pt x="301" y="745" on="0"/>
        <pt x="337" y="708" on="0"/>
        <pt x="337" y="657" on="0"/>
        <pt x="301" y="621" on="0"/>
        <pt x="250" y="621" on="0"/>
        <pt x="212" y="657" on="0"/>
        <pt x="212" y="708" on="0"/>
        <pt x="250" y="745" on="0"/>
      </contour>
      <contour>
        <pt x="473" y="745" on="0"/>
        <pt x="508" y="709" on="0"/>
        <pt x="508" y="656" on="0"/>
        <pt x="473" y="621" on="0"/>
        <pt x="421" y="621" on="0"/>
        <pt x="385" y="657" on="0"/>
        <pt x="385" y="708" on="0"/>
        <pt x="421" y="745" on="0"/>
      </contour>
      <contour>
        <pt x="431" y="0" on="1"/>
        <pt x="201" y="0" on="1"/>
        <pt x="201" y="20" on="1"/>
        <pt x="241" y="20" on="1"/>
        <pt x="241" y="231" on="1"/>
        <pt x="62" y="540" on="1"/>
        <pt x="10" y="540" on="1"/>
        <pt x="10" y="560" on="1"/>
        <pt x="290" y="560" on="1"/>
        <pt x="290" y="540" on="1"/>
        <pt x="241" y="540" on="1"/>
        <pt x="381" y="288" on="1"/>
        <pt x="511" y="540" on="1"/>
        <pt x="431" y="540" on="1"/>
        <pt x="431" y="560" on="1"/>
        <pt x="606" y="560" on="1"/>
        <pt x="606" y="540" on="1"/>
        <pt x="536" y="540" on="1"/>
        <pt x="391" y="258" on="1"/>
        <pt x="391" y="20" on="1"/>
        <pt x="431" y="20" on="1"/>
      </contour>
    </TTGlyph>
    <TTGlyph name="Ygrave" xMin="10" yMin="0" xMax="606" yMax="760">
      <contour>
        <pt x="379" y="611" on="1"/>
        <pt x="365" y="601" on="1"/>
        <pt x="346" y="628" on="0"/>
        <pt x="266" y="650" on="0"/>
        <pt x="236" y="692" on="0"/>
        <pt x="246" y="741" on="0"/>
        <pt x="267" y="750" on="1"/>
        <pt x="283" y="760" on="0"/>
        <pt x="325" y="749" on="0"/>
        <pt x="353" y="710" on="0"/>
        <pt x="362" y="636" on="0"/>
      </contour>
      <contour>
        <pt x="431" y="0" on="1"/>
        <pt x="201" y="0" on="1"/>
        <pt x="201" y="20" on="1"/>
        <pt x="241" y="20" on="1"/>
        <pt x="241" y="231" on="1"/>
        <pt x="62" y="540" on="1"/>
        <pt x="10" y="540" on="1"/>
        <pt x="10" y="560" on="1"/>
        <pt x="290" y="560" on="1"/>
        <pt x="290" y="540" on="1"/>
        <pt x="241" y="540" on="1"/>
        <pt x="381" y="288" on="1"/>
        <pt x="511" y="540" on="1"/>
        <pt x="431" y="540" on="1"/>
        <pt x="431" y="560" on="1"/>
        <pt x="606" y="560" on="1"/>
        <pt x="606" y="540" on="1"/>
        <pt x="536" y="540" on="1"/>
        <pt x="391" y="258" on="1"/>
        <pt x="391" y="20" on="1"/>
        <pt x="431" y="20" on="1"/>
      </contour>
    </TTGlyph>
    <TTGlyph name="Z" xMin="30" yMin="0" xMax="489" yMax="560">
      <contour>
        <pt x="469" y="210" on="1"/>
        <pt x="489" y="210" on="1"/>
        <pt x="489" y="0" on="1"/>
        <pt x="30" y="0" on="1"/>
        <pt x="30" y="20" on="1"/>
        <pt x="313" y="540" on="1"/>
        <pt x="249" y="540" on="1"/>
        <pt x="156" y="540" on="0"/>
        <pt x="80" y="474" on="0"/>
        <pt x="80" y="370" on="1"/>
        <pt x="60" y="370" on="1"/>
        <pt x="60" y="560" on="1"/>
        <pt x="482" y="560" on="1"/>
        <pt x="482" y="540" on="1"/>
        <pt x="195" y="20" on="1"/>
        <pt x="300" y="20" on="1"/>
        <pt x="347" y="20" on="0"/>
        <pt x="405" y="33" on="0"/>
        <pt x="428" y="52" on="1"/>
        <pt x="469" y="88" on="0"/>
      </contour>
    </TTGlyph>
    <TTGlyph name="Zacute" xMin="30" yMin="0" xMax="489" yMax="760">
      <contour>
        <pt x="469" y="210" on="1"/>
        <pt x="489" y="210" on="1"/>
        <pt x="489" y="0" on="1"/>
        <pt x="30" y="0" on="1"/>
        <pt x="30" y="20" on="1"/>
        <pt x="313" y="540" on="1"/>
        <pt x="249" y="540" on="1"/>
        <pt x="156" y="540" on="0"/>
        <pt x="80" y="474" on="0"/>
        <pt x="80" y="370" on="1"/>
        <pt x="60" y="370" on="1"/>
        <pt x="60" y="560" on="1"/>
        <pt x="482" y="560" on="1"/>
        <pt x="482" y="540" on="1"/>
        <pt x="195" y="20" on="1"/>
        <pt x="300" y="20" on="1"/>
        <pt x="347" y="20" on="0"/>
        <pt x="405" y="33" on="0"/>
        <pt x="428" y="52" on="1"/>
        <pt x="469" y="88" on="0"/>
      </contour>
      <contour>
        <pt x="262" y="601" on="1"/>
        <pt x="248" y="611" on="1"/>
        <pt x="265" y="636" on="0"/>
        <pt x="274" y="710" on="0"/>
        <pt x="302" y="749" on="0"/>
        <pt x="344" y="760" on="0"/>
        <pt x="360" y="750" on="1"/>
        <pt x="381" y="741" on="0"/>
        <pt x="391" y="692" on="0"/>
        <pt x="361" y="650" on="0"/>
        <pt x="281" y="628" on="0"/>
      </contour>
    </TTGlyph>
    <TTGlyph name="Zcaron" xMin="30" yMin="0" xMax="489" yMax="751">
      <contour>
        <pt x="469" y="210" on="1"/>
        <pt x="489" y="210" on="1"/>
        <pt x="489" y="0" on="1"/>
        <pt x="30" y="0" on="1"/>
        <pt x="30" y="20" on="1"/>
        <pt x="313" y="540" on="1"/>
        <pt x="249" y="540" on="1"/>
        <pt x="156" y="540" on="0"/>
        <pt x="80" y="474" on="0"/>
        <pt x="80" y="370" on="1"/>
        <pt x="60" y="370" on="1"/>
        <pt x="60" y="560" on="1"/>
        <pt x="482" y="560" on="1"/>
        <pt x="482" y="540" on="1"/>
        <pt x="195" y="20" on="1"/>
        <pt x="300" y="20" on="1"/>
        <pt x="347" y="20" on="0"/>
        <pt x="405" y="33" on="0"/>
        <pt x="428" y="52" on="1"/>
        <pt x="469" y="88" on="0"/>
      </contour>
      <contour>
        <pt x="281" y="614" on="1"/>
        <pt x="262" y="614" on="1"/>
        <pt x="175" y="742" on="1"/>
        <pt x="184" y="751" on="1"/>
        <pt x="272" y="711" on="1"/>
        <pt x="360" y="751" on="1"/>
        <pt x="369" y="742" on="1"/>
      </contour>
    </TTGlyph>
    <TTGlyph name="Zdotaccent" xMin="30" yMin="0" xMax="489" yMax="745">
      <contour>
        <pt x="469" y="210" on="1"/>
        <pt x="489" y="210" on="1"/>
        <pt x="489" y="0" on="1"/>
        <pt x="30" y="0" on="1"/>
        <pt x="30" y="20" on="1"/>
        <pt x="313" y="540" on="1"/>
        <pt x="249" y="540" on="1"/>
        <pt x="156" y="540" on="0"/>
        <pt x="80" y="474" on="0"/>
        <pt x="80" y="370" on="1"/>
        <pt x="60" y="370" on="1"/>
        <pt x="60" y="560" on="1"/>
        <pt x="482" y="560" on="1"/>
        <pt x="482" y="540" on="1"/>
        <pt x="195" y="20" on="1"/>
        <pt x="300" y="20" on="1"/>
        <pt x="347" y="20" on="0"/>
        <pt x="405" y="33" on="0"/>
        <pt x="428" y="52" on="1"/>
        <pt x="469" y="88" on="0"/>
      </contour>
      <contour>
        <pt x="333" y="657" on="0"/>
        <pt x="297" y="621" on="0"/>
        <pt x="246" y="621" on="0"/>
        <pt x="208" y="657" on="0"/>
        <pt x="208" y="708" on="0"/>
        <pt x="246" y="745" on="0"/>
        <pt x="297" y="745" on="0"/>
        <pt x="333" y="708" on="0"/>
      </contour>
    </TTGlyph>
    <TTGlyph name="a" xMin="40" yMin="-8" xMax="525" yMax="468">
      <contour>
        <pt x="515" y="10" on="0"/>
        <pt x="459" y="-5" on="0"/>
        <pt x="422" y="-5" on="1"/>
        <pt x="340" y="-5" on="0"/>
        <pt x="319" y="44" on="1"/>
        <pt x="269" y="-8" on="0"/>
        <pt x="166" y="-8" on="1"/>
        <pt x="111" y="-8" on="0"/>
        <pt x="40" y="43" on="0"/>
        <pt x="40" y="93" on="1"/>
        <pt x="40" y="160" on="0"/>
        <pt x="144" y="233" on="0"/>
        <pt x="274" y="248" on="1"/>
        <pt x="314" y="253" on="1"/>
        <pt x="314" y="302" on="1"/>
        <pt x="314" y="389" on="0"/>
        <pt x="288" y="449" on="0"/>
        <pt x="211" y="449" on="0"/>
        <pt x="189" y="428" on="0"/>
        <pt x="195" y="401" on="0"/>
        <pt x="209" y="357" on="0"/>
        <pt x="209" y="344" on="1"/>
        <pt x="209" y="313" on="0"/>
        <pt x="166" y="270" on="0"/>
        <pt x="105" y="270" on="0"/>
        <pt x="61" y="313" on="0"/>
        <pt x="61" y="344" on="1"/>
        <pt x="61" y="395" on="0"/>
        <pt x="166" y="468" on="0"/>
        <pt x="375" y="468" on="0"/>
        <pt x="464" y="386" on="0"/>
        <pt x="464" y="282" on="1"/>
        <pt x="464" y="102" on="1"/>
        <pt x="464" y="49" on="0"/>
        <pt x="490" y="22" on="0"/>
        <pt x="525" y="30" on="1"/>
        <pt x="525" y="20" on="1"/>
      </contour>
      <contour>
        <pt x="184" y="75" on="0"/>
        <pt x="230" y="34" on="0"/>
        <pt x="291" y="34" on="0"/>
        <pt x="314" y="64" on="1"/>
        <pt x="314" y="234" on="1"/>
        <pt x="278" y="229" on="1"/>
        <pt x="232" y="223" on="0"/>
        <pt x="175" y="165" on="0"/>
        <pt x="179" y="113" on="1"/>
      </contour>
    </TTGlyph>
    <TTGlyph name="aacute" xMin="40" yMin="-8" xMax="525" yMax="660">
      <contour>
        <pt x="220" y="511" on="1"/>
        <pt x="237" y="536" on="0"/>
        <pt x="246" y="610" on="0"/>
        <pt x="274" y="649" on="0"/>
        <pt x="316" y="660" on="0"/>
        <pt x="332" y="650" on="1"/>
        <pt x="353" y="641" on="0"/>
        <pt x="363" y="592" on="0"/>
        <pt x="333" y="550" on="0"/>
        <pt x="253" y="528" on="0"/>
        <pt x="234" y="501" on="1"/>
      </contour>
      <contour>
        <pt x="515" y="10" on="0"/>
        <pt x="459" y="-5" on="0"/>
        <pt x="422" y="-5" on="1"/>
        <pt x="340" y="-5" on="0"/>
        <pt x="319" y="44" on="1"/>
        <pt x="269" y="-8" on="0"/>
        <pt x="166" y="-8" on="1"/>
        <pt x="111" y="-8" on="0"/>
        <pt x="40" y="43" on="0"/>
        <pt x="40" y="93" on="1"/>
        <pt x="40" y="160" on="0"/>
        <pt x="144" y="233" on="0"/>
        <pt x="274" y="248" on="1"/>
        <pt x="314" y="253" on="1"/>
        <pt x="314" y="302" on="1"/>
        <pt x="314" y="389" on="0"/>
        <pt x="288" y="449" on="0"/>
        <pt x="211" y="449" on="0"/>
        <pt x="189" y="428" on="0"/>
        <pt x="195" y="401" on="0"/>
        <pt x="209" y="357" on="0"/>
        <pt x="209" y="344" on="1"/>
        <pt x="209" y="313" on="0"/>
        <pt x="166" y="270" on="0"/>
        <pt x="105" y="270" on="0"/>
        <pt x="61" y="313" on="0"/>
        <pt x="61" y="344" on="1"/>
        <pt x="61" y="395" on="0"/>
        <pt x="166" y="468" on="0"/>
        <pt x="375" y="468" on="0"/>
        <pt x="464" y="386" on="0"/>
        <pt x="464" y="282" on="1"/>
        <pt x="464" y="102" on="1"/>
        <pt x="464" y="49" on="0"/>
        <pt x="490" y="22" on="0"/>
        <pt x="525" y="30" on="1"/>
        <pt x="525" y="20" on="1"/>
      </contour>
      <contour>
        <pt x="184" y="75" on="0"/>
        <pt x="230" y="34" on="0"/>
        <pt x="291" y="34" on="0"/>
        <pt x="314" y="64" on="1"/>
        <pt x="314" y="234" on="1"/>
        <pt x="278" y="229" on="1"/>
        <pt x="232" y="223" on="0"/>
        <pt x="175" y="165" on="0"/>
        <pt x="179" y="113" on="1"/>
      </contour>
    </TTGlyph>
    <TTGlyph name="abreve" xMin="40" yMin="-8" xMax="525" yMax="645">
      <contour>
        <pt x="190" y="645" on="1"/>
        <pt x="190" y="596" on="0"/>
        <pt x="334" y="596" on="0"/>
        <pt x="334" y="645" on="1"/>
        <pt x="354" y="645" on="1"/>
        <pt x="354" y="585" on="0"/>
        <pt x="313" y="520" on="0"/>
        <pt x="263" y="520" on="1"/>
        <pt x="170" y="520" on="0"/>
        <pt x="170" y="645" on="1"/>
      </contour>
      <contour>
        <pt x="515" y="10" on="0"/>
        <pt x="459" y="-5" on="0"/>
        <pt x="422" y="-5" on="1"/>
        <pt x="340" y="-5" on="0"/>
        <pt x="319" y="44" on="1"/>
        <pt x="269" y="-8" on="0"/>
        <pt x="166" y="-8" on="1"/>
        <pt x="111" y="-8" on="0"/>
        <pt x="40" y="43" on="0"/>
        <pt x="40" y="93" on="1"/>
        <pt x="40" y="160" on="0"/>
        <pt x="144" y="233" on="0"/>
        <pt x="274" y="248" on="1"/>
        <pt x="314" y="253" on="1"/>
        <pt x="314" y="302" on="1"/>
        <pt x="314" y="389" on="0"/>
        <pt x="288" y="449" on="0"/>
        <pt x="211" y="449" on="0"/>
        <pt x="189" y="428" on="0"/>
        <pt x="195" y="401" on="0"/>
        <pt x="209" y="357" on="0"/>
        <pt x="209" y="344" on="1"/>
        <pt x="209" y="313" on="0"/>
        <pt x="166" y="270" on="0"/>
        <pt x="105" y="270" on="0"/>
        <pt x="61" y="313" on="0"/>
        <pt x="61" y="344" on="1"/>
        <pt x="61" y="395" on="0"/>
        <pt x="166" y="468" on="0"/>
        <pt x="375" y="468" on="0"/>
        <pt x="464" y="386" on="0"/>
        <pt x="464" y="282" on="1"/>
        <pt x="464" y="102" on="1"/>
        <pt x="464" y="49" on="0"/>
        <pt x="490" y="22" on="0"/>
        <pt x="525" y="30" on="1"/>
        <pt x="525" y="20" on="1"/>
      </contour>
      <contour>
        <pt x="184" y="75" on="0"/>
        <pt x="230" y="34" on="0"/>
        <pt x="291" y="34" on="0"/>
        <pt x="314" y="64" on="1"/>
        <pt x="314" y="234" on="1"/>
        <pt x="278" y="229" on="1"/>
        <pt x="232" y="223" on="0"/>
        <pt x="175" y="165" on="0"/>
        <pt x="179" y="113" on="1"/>
      </contour>
    </TTGlyph>
    <TTGlyph name="acircumflex" xMin="40" yMin="-8" xMax="525" yMax="651">
      <contour>
        <pt x="184" y="514" on="1"/>
        <pt x="175" y="523" on="1"/>
        <pt x="262" y="651" on="1"/>
        <pt x="281" y="651" on="1"/>
        <pt x="369" y="523" on="1"/>
        <pt x="360" y="514" on="1"/>
        <pt x="272" y="554" on="1"/>
      </contour>
      <contour>
        <pt x="515" y="10" on="0"/>
        <pt x="459" y="-5" on="0"/>
        <pt x="422" y="-5" on="1"/>
        <pt x="340" y="-5" on="0"/>
        <pt x="319" y="44" on="1"/>
        <pt x="269" y="-8" on="0"/>
        <pt x="166" y="-8" on="1"/>
        <pt x="111" y="-8" on="0"/>
        <pt x="40" y="43" on="0"/>
        <pt x="40" y="93" on="1"/>
        <pt x="40" y="160" on="0"/>
        <pt x="144" y="233" on="0"/>
        <pt x="274" y="248" on="1"/>
        <pt x="314" y="253" on="1"/>
        <pt x="314" y="302" on="1"/>
        <pt x="314" y="389" on="0"/>
        <pt x="288" y="449" on="0"/>
        <pt x="211" y="449" on="0"/>
        <pt x="189" y="428" on="0"/>
        <pt x="195" y="401" on="0"/>
        <pt x="209" y="357" on="0"/>
        <pt x="209" y="344" on="1"/>
        <pt x="209" y="313" on="0"/>
        <pt x="166" y="270" on="0"/>
        <pt x="105" y="270" on="0"/>
        <pt x="61" y="313" on="0"/>
        <pt x="61" y="344" on="1"/>
        <pt x="61" y="395" on="0"/>
        <pt x="166" y="468" on="0"/>
        <pt x="375" y="468" on="0"/>
        <pt x="464" y="386" on="0"/>
        <pt x="464" y="282" on="1"/>
        <pt x="464" y="102" on="1"/>
        <pt x="464" y="49" on="0"/>
        <pt x="490" y="22" on="0"/>
        <pt x="525" y="30" on="1"/>
        <pt x="525" y="20" on="1"/>
      </contour>
      <contour>
        <pt x="184" y="75" on="0"/>
        <pt x="230" y="34" on="0"/>
        <pt x="291" y="34" on="0"/>
        <pt x="314" y="64" on="1"/>
        <pt x="314" y="234" on="1"/>
        <pt x="278" y="229" on="1"/>
        <pt x="232" y="223" on="0"/>
        <pt x="175" y="165" on="0"/>
        <pt x="179" y="113" on="1"/>
      </contour>
    </TTGlyph>
    <TTGlyph name="acute" xMin="200" yMin="501" xMax="343" yMax="660">
      <contour>
        <pt x="200" y="511" on="1"/>
        <pt x="217" y="536" on="0"/>
        <pt x="226" y="610" on="0"/>
        <pt x="254" y="649" on="0"/>
        <pt x="296" y="660" on="0"/>
        <pt x="312" y="650" on="1"/>
        <pt x="333" y="641" on="0"/>
        <pt x="343" y="592" on="0"/>
        <pt x="313" y="550" on="0"/>
        <pt x="233" y="528" on="0"/>
        <pt x="214" y="501" on="1"/>
      </contour>
    </TTGlyph>
    <TTGlyph name="acute.cap" xMin="198" yMin="601" xMax="341" yMax="760">
      <contour>
        <pt x="198" y="611" on="1"/>
        <pt x="215" y="636" on="0"/>
        <pt x="224" y="710" on="0"/>
        <pt x="252" y="749" on="0"/>
        <pt x="294" y="760" on="0"/>
        <pt x="310" y="750" on="1"/>
        <pt x="331" y="741" on="0"/>
        <pt x="341" y="692" on="0"/>
        <pt x="311" y="650" on="0"/>
        <pt x="231" y="628" on="0"/>
        <pt x="212" y="601" on="1"/>
      </contour>
    </TTGlyph>
    <TTGlyph name="adieresis" xMin="40" yMin="-8" xMax="525" yMax="645">
      <contour>
        <pt x="373" y="645" on="0"/>
        <pt x="408" y="609" on="0"/>
        <pt x="408" y="556" on="0"/>
        <pt x="373" y="521" on="0"/>
        <pt x="321" y="521" on="0"/>
        <pt x="285" y="557" on="0"/>
        <pt x="285" y="608" on="0"/>
        <pt x="321" y="645" on="0"/>
      </contour>
      <contour>
        <pt x="201" y="645" on="0"/>
        <pt x="237" y="608" on="0"/>
        <pt x="237" y="557" on="0"/>
        <pt x="201" y="521" on="0"/>
        <pt x="150" y="521" on="0"/>
        <pt x="112" y="557" on="0"/>
        <pt x="112" y="608" on="0"/>
        <pt x="150" y="645" on="0"/>
      </contour>
      <contour>
        <pt x="515" y="10" on="0"/>
        <pt x="459" y="-5" on="0"/>
        <pt x="422" y="-5" on="1"/>
        <pt x="340" y="-5" on="0"/>
        <pt x="319" y="44" on="1"/>
        <pt x="269" y="-8" on="0"/>
        <pt x="166" y="-8" on="1"/>
        <pt x="111" y="-8" on="0"/>
        <pt x="40" y="43" on="0"/>
        <pt x="40" y="93" on="1"/>
        <pt x="40" y="160" on="0"/>
        <pt x="144" y="233" on="0"/>
        <pt x="274" y="248" on="1"/>
        <pt x="314" y="253" on="1"/>
        <pt x="314" y="302" on="1"/>
        <pt x="314" y="389" on="0"/>
        <pt x="288" y="449" on="0"/>
        <pt x="211" y="449" on="0"/>
        <pt x="189" y="428" on="0"/>
        <pt x="195" y="401" on="0"/>
        <pt x="209" y="357" on="0"/>
        <pt x="209" y="344" on="1"/>
        <pt x="209" y="313" on="0"/>
        <pt x="166" y="270" on="0"/>
        <pt x="105" y="270" on="0"/>
        <pt x="61" y="313" on="0"/>
        <pt x="61" y="344" on="1"/>
        <pt x="61" y="395" on="0"/>
        <pt x="166" y="468" on="0"/>
        <pt x="375" y="468" on="0"/>
        <pt x="464" y="386" on="0"/>
        <pt x="464" y="282" on="1"/>
        <pt x="464" y="102" on="1"/>
        <pt x="464" y="49" on="0"/>
        <pt x="490" y="22" on="0"/>
        <pt x="525" y="30" on="1"/>
        <pt x="525" y="20" on="1"/>
      </contour>
      <contour>
        <pt x="184" y="75" on="0"/>
        <pt x="230" y="34" on="0"/>
        <pt x="291" y="34" on="0"/>
        <pt x="314" y="64" on="1"/>
        <pt x="314" y="234" on="1"/>
        <pt x="278" y="229" on="1"/>
        <pt x="232" y="223" on="0"/>
        <pt x="175" y="165" on="0"/>
        <pt x="179" y="113" on="1"/>
      </contour>
    </TTGlyph>
    <TTGlyph name="ae" xMin="23" yMin="-10" xMax="760" yMax="470">
      <contour>
        <pt x="455" y="220" on="1"/>
        <pt x="617" y="220" on="1"/>
        <pt x="617" y="312" on="0"/>
        <pt x="578" y="450" on="0"/>
        <pt x="535" y="450" on="1"/>
        <pt x="497" y="450" on="0"/>
        <pt x="459" y="345" on="0"/>
        <pt x="455" y="270" on="1"/>
      </contour>
      <contour>
        <pt x="245" y="34" on="1"/>
        <pt x="297" y="34" on="0"/>
        <pt x="336" y="56" on="1"/>
        <pt x="337" y="57" on="0"/>
        <pt x="343" y="60" on="0"/>
        <pt x="344" y="61" on="1"/>
        <pt x="305" y="121" on="0"/>
        <pt x="305" y="234" on="1"/>
        <pt x="269" y="229" on="1"/>
        <pt x="223" y="223" on="0"/>
        <pt x="166" y="165" on="0"/>
        <pt x="170" y="113" on="1"/>
        <pt x="175" y="75" on="0"/>
        <pt x="221" y="34" on="0"/>
      </contour>
      <contour>
        <pt x="565" y="-10" on="1"/>
        <pt x="407" y="-10" on="0"/>
        <pt x="356" y="46" on="1"/>
        <pt x="303" y="-8" on="0"/>
        <pt x="187" y="-8" on="1"/>
        <pt x="44" y="-8" on="0"/>
        <pt x="31" y="93" on="1"/>
        <pt x="23" y="158" on="0"/>
        <pt x="132" y="232" on="0"/>
        <pt x="265" y="248" on="1"/>
        <pt x="305" y="253" on="1"/>
        <pt x="305" y="302" on="1"/>
        <pt x="305" y="389" on="0"/>
        <pt x="279" y="449" on="0"/>
        <pt x="234" y="449" on="1"/>
        <pt x="210" y="449" on="0"/>
        <pt x="194" y="441" on="1"/>
        <pt x="166" y="426" on="0"/>
        <pt x="181" y="403" on="1"/>
        <pt x="200" y="382" on="0"/>
        <pt x="200" y="313" on="0"/>
        <pt x="157" y="270" on="0"/>
        <pt x="95" y="270" on="0"/>
        <pt x="52" y="311" on="0"/>
        <pt x="52" y="380" on="0"/>
        <pt x="80" y="410" on="1"/>
        <pt x="136" y="468" on="0"/>
        <pt x="260" y="468" on="1"/>
        <pt x="354" y="468" on="0"/>
        <pt x="401" y="421" on="1"/>
        <pt x="424" y="444" on="0"/>
        <pt x="504" y="470" on="0"/>
        <pt x="543" y="470" on="1"/>
        <pt x="634" y="470" on="0"/>
        <pt x="760" y="341" on="0"/>
        <pt x="760" y="200" on="1"/>
        <pt x="455" y="200" on="1"/>
        <pt x="455" y="188" on="1"/>
        <pt x="459" y="95" on="0"/>
        <pt x="521" y="24" on="0"/>
        <pt x="592" y="24" on="1"/>
        <pt x="626" y="24" on="0"/>
        <pt x="713" y="56" on="0"/>
        <pt x="733" y="85" on="1"/>
        <pt x="747" y="75" on="1"/>
        <pt x="725" y="38" on="0"/>
        <pt x="619" y="-10" on="0"/>
      </contour>
    </TTGlyph>
    <TTGlyph name="aeacute" xMin="23" yMin="-10" xMax="760" yMax="660">
      <contour>
        <pt x="455" y="220" on="1"/>
        <pt x="617" y="220" on="1"/>
        <pt x="617" y="312" on="0"/>
        <pt x="578" y="450" on="0"/>
        <pt x="535" y="450" on="1"/>
        <pt x="497" y="450" on="0"/>
        <pt x="459" y="345" on="0"/>
        <pt x="455" y="270" on="1"/>
      </contour>
      <contour>
        <pt x="245" y="34" on="1"/>
        <pt x="297" y="34" on="0"/>
        <pt x="336" y="56" on="1"/>
        <pt x="337" y="57" on="0"/>
        <pt x="343" y="60" on="0"/>
        <pt x="344" y="61" on="1"/>
        <pt x="305" y="121" on="0"/>
        <pt x="305" y="234" on="1"/>
        <pt x="269" y="229" on="1"/>
        <pt x="223" y="223" on="0"/>
        <pt x="166" y="165" on="0"/>
        <pt x="170" y="113" on="1"/>
        <pt x="175" y="75" on="0"/>
        <pt x="221" y="34" on="0"/>
      </contour>
      <contour>
        <pt x="565" y="-10" on="1"/>
        <pt x="407" y="-10" on="0"/>
        <pt x="356" y="46" on="1"/>
        <pt x="303" y="-8" on="0"/>
        <pt x="187" y="-8" on="1"/>
        <pt x="44" y="-8" on="0"/>
        <pt x="31" y="93" on="1"/>
        <pt x="23" y="158" on="0"/>
        <pt x="132" y="232" on="0"/>
        <pt x="265" y="248" on="1"/>
        <pt x="305" y="253" on="1"/>
        <pt x="305" y="302" on="1"/>
        <pt x="305" y="389" on="0"/>
        <pt x="279" y="449" on="0"/>
        <pt x="234" y="449" on="1"/>
        <pt x="210" y="449" on="0"/>
        <pt x="194" y="441" on="1"/>
        <pt x="166" y="426" on="0"/>
        <pt x="181" y="403" on="1"/>
        <pt x="200" y="382" on="0"/>
        <pt x="200" y="313" on="0"/>
        <pt x="157" y="270" on="0"/>
        <pt x="95" y="270" on="0"/>
        <pt x="52" y="311" on="0"/>
        <pt x="52" y="380" on="0"/>
        <pt x="80" y="410" on="1"/>
        <pt x="136" y="468" on="0"/>
        <pt x="260" y="468" on="1"/>
        <pt x="354" y="468" on="0"/>
        <pt x="401" y="421" on="1"/>
        <pt x="424" y="444" on="0"/>
        <pt x="504" y="470" on="0"/>
        <pt x="543" y="470" on="1"/>
        <pt x="634" y="470" on="0"/>
        <pt x="760" y="341" on="0"/>
        <pt x="760" y="200" on="1"/>
        <pt x="455" y="200" on="1"/>
        <pt x="455" y="188" on="1"/>
        <pt x="459" y="95" on="0"/>
        <pt x="521" y="24" on="0"/>
        <pt x="592" y="24" on="1"/>
        <pt x="626" y="24" on="0"/>
        <pt x="713" y="56" on="0"/>
        <pt x="733" y="85" on="1"/>
        <pt x="747" y="75" on="1"/>
        <pt x="725" y="38" on="0"/>
        <pt x="619" y="-10" on="0"/>
      </contour>
      <contour>
        <pt x="394" y="501" on="1"/>
        <pt x="380" y="511" on="1"/>
        <pt x="397" y="536" on="0"/>
        <pt x="406" y="610" on="0"/>
        <pt x="434" y="649" on="0"/>
        <pt x="476" y="660" on="0"/>
        <pt x="492" y="650" on="1"/>
        <pt x="513" y="641" on="0"/>
        <pt x="523" y="592" on="0"/>
        <pt x="493" y="550" on="0"/>
        <pt x="413" y="528" on="0"/>
      </contour>
    </TTGlyph>
    <TTGlyph name="agrave" xMin="40" yMin="-8" xMax="525" yMax="660">
      <contour>
        <pt x="307" y="511" on="1"/>
        <pt x="293" y="501" on="1"/>
        <pt x="274" y="528" on="0"/>
        <pt x="194" y="550" on="0"/>
        <pt x="164" y="592" on="0"/>
        <pt x="174" y="641" on="0"/>
        <pt x="195" y="650" on="1"/>
        <pt x="211" y="660" on="0"/>
        <pt x="253" y="649" on="0"/>
        <pt x="281" y="610" on="0"/>
        <pt x="290" y="536" on="0"/>
      </contour>
      <contour>
        <pt x="515" y="10" on="0"/>
        <pt x="459" y="-5" on="0"/>
        <pt x="422" y="-5" on="1"/>
        <pt x="340" y="-5" on="0"/>
        <pt x="319" y="44" on="1"/>
        <pt x="269" y="-8" on="0"/>
        <pt x="166" y="-8" on="1"/>
        <pt x="111" y="-8" on="0"/>
        <pt x="40" y="43" on="0"/>
        <pt x="40" y="93" on="1"/>
        <pt x="40" y="160" on="0"/>
        <pt x="144" y="233" on="0"/>
        <pt x="274" y="248" on="1"/>
        <pt x="314" y="253" on="1"/>
        <pt x="314" y="302" on="1"/>
        <pt x="314" y="389" on="0"/>
        <pt x="288" y="449" on="0"/>
        <pt x="211" y="449" on="0"/>
        <pt x="189" y="428" on="0"/>
        <pt x="195" y="401" on="0"/>
        <pt x="209" y="357" on="0"/>
        <pt x="209" y="344" on="1"/>
        <pt x="209" y="313" on="0"/>
        <pt x="166" y="270" on="0"/>
        <pt x="105" y="270" on="0"/>
        <pt x="61" y="313" on="0"/>
        <pt x="61" y="344" on="1"/>
        <pt x="61" y="395" on="0"/>
        <pt x="166" y="468" on="0"/>
        <pt x="375" y="468" on="0"/>
        <pt x="464" y="386" on="0"/>
        <pt x="464" y="282" on="1"/>
        <pt x="464" y="102" on="1"/>
        <pt x="464" y="49" on="0"/>
        <pt x="490" y="22" on="0"/>
        <pt x="525" y="30" on="1"/>
        <pt x="525" y="20" on="1"/>
      </contour>
      <contour>
        <pt x="184" y="75" on="0"/>
        <pt x="230" y="34" on="0"/>
        <pt x="291" y="34" on="0"/>
        <pt x="314" y="64" on="1"/>
        <pt x="314" y="234" on="1"/>
        <pt x="278" y="229" on="1"/>
        <pt x="232" y="223" on="0"/>
        <pt x="175" y="165" on="0"/>
        <pt x="179" y="113" on="1"/>
      </contour>
    </TTGlyph>
    <TTGlyph name="amacron" xMin="40" yMin="-8" xMax="525" yMax="607">
      <contour>
        <pt x="364" y="607" on="1"/>
        <pt x="364" y="557" on="1"/>
        <pt x="164" y="557" on="1"/>
        <pt x="164" y="607" on="1"/>
      </contour>
      <contour>
        <pt x="515" y="10" on="0"/>
        <pt x="459" y="-5" on="0"/>
        <pt x="422" y="-5" on="1"/>
        <pt x="340" y="-5" on="0"/>
        <pt x="319" y="44" on="1"/>
        <pt x="269" y="-8" on="0"/>
        <pt x="166" y="-8" on="1"/>
        <pt x="111" y="-8" on="0"/>
        <pt x="40" y="43" on="0"/>
        <pt x="40" y="93" on="1"/>
        <pt x="40" y="160" on="0"/>
        <pt x="144" y="233" on="0"/>
        <pt x="274" y="248" on="1"/>
        <pt x="314" y="253" on="1"/>
        <pt x="314" y="302" on="1"/>
        <pt x="314" y="389" on="0"/>
        <pt x="288" y="449" on="0"/>
        <pt x="211" y="449" on="0"/>
        <pt x="189" y="428" on="0"/>
        <pt x="195" y="401" on="0"/>
        <pt x="209" y="357" on="0"/>
        <pt x="209" y="344" on="1"/>
        <pt x="209" y="313" on="0"/>
        <pt x="166" y="270" on="0"/>
        <pt x="105" y="270" on="0"/>
        <pt x="61" y="313" on="0"/>
        <pt x="61" y="344" on="1"/>
        <pt x="61" y="395" on="0"/>
        <pt x="166" y="468" on="0"/>
        <pt x="375" y="468" on="0"/>
        <pt x="464" y="386" on="0"/>
        <pt x="464" y="282" on="1"/>
        <pt x="464" y="102" on="1"/>
        <pt x="464" y="49" on="0"/>
        <pt x="490" y="22" on="0"/>
        <pt x="525" y="30" on="1"/>
        <pt x="525" y="20" on="1"/>
      </contour>
      <contour>
        <pt x="184" y="75" on="0"/>
        <pt x="230" y="34" on="0"/>
        <pt x="291" y="34" on="0"/>
        <pt x="314" y="64" on="1"/>
        <pt x="314" y="234" on="1"/>
        <pt x="278" y="229" on="1"/>
        <pt x="232" y="223" on="0"/>
        <pt x="175" y="165" on="0"/>
        <pt x="179" y="113" on="1"/>
      </contour>
    </TTGlyph>
    <TTGlyph name="ampersand" xMin="26" yMin="-10" xMax="846" yMax="606">
      <contour>
        <pt x="846" y="216" on="1"/>
        <pt x="846" y="203" on="1"/>
        <pt x="846" y="139" on="0"/>
        <pt x="812" y="79" on="1"/>
        <pt x="798" y="53" on="0"/>
        <pt x="758" y="16" on="0"/>
        <pt x="690" y="-10" on="0"/>
        <pt x="648" y="-10" on="1"/>
        <pt x="538" y="-10" on="0"/>
        <pt x="443" y="60" on="1"/>
        <pt x="412" y="20" on="0"/>
        <pt x="321" y="-9" on="0"/>
        <pt x="195" y="-9" on="0"/>
        <pt x="102" y="31" on="0"/>
        <pt x="49" y="94" on="0"/>
        <pt x="26" y="173" on="0"/>
        <pt x="37" y="249" on="0"/>
        <pt x="83" y="318" on="0"/>
        <pt x="167" y="366" on="0"/>
        <pt x="227" y="369" on="1"/>
        <pt x="222" y="396" on="0"/>
        <pt x="222" y="418" on="1"/>
        <pt x="222" y="500" on="0"/>
        <pt x="340" y="606" on="0"/>
        <pt x="531" y="606" on="0"/>
        <pt x="624" y="520" on="0"/>
        <pt x="624" y="406" on="0"/>
        <pt x="535" y="329" on="0"/>
        <pt x="461" y="329" on="1"/>
        <pt x="456" y="345" on="1"/>
        <pt x="481" y="354" on="0"/>
        <pt x="511" y="430" on="0"/>
        <pt x="511" y="478" on="1"/>
        <pt x="511" y="586" on="0"/>
        <pt x="433" y="586" on="1"/>
        <pt x="399" y="586" on="0"/>
        <pt x="357" y="533" on="0"/>
        <pt x="357" y="442" on="0"/>
        <pt x="385" y="372" on="1"/>
        <pt x="419" y="286" on="0"/>
        <pt x="496" y="209" on="1"/>
        <pt x="534" y="296" on="0"/>
        <pt x="661" y="357" on="0"/>
        <pt x="730" y="334" on="1"/>
        <pt x="765" y="322" on="0"/>
        <pt x="803" y="258" on="0"/>
        <pt x="775" y="190" on="0"/>
        <pt x="719" y="167" on="0"/>
        <pt x="665" y="189" on="0"/>
        <pt x="644" y="226" on="0"/>
        <pt x="644" y="242" on="1"/>
        <pt x="644" y="286" on="0"/>
        <pt x="626" y="294" on="1"/>
        <pt x="599" y="305" on="0"/>
        <pt x="540" y="249" on="0"/>
        <pt x="515" y="190" on="1"/>
        <pt x="605" y="105" on="0"/>
        <pt x="692" y="105" on="1"/>
        <pt x="727" y="105" on="0"/>
        <pt x="780" y="128" on="0"/>
        <pt x="793" y="144" on="1"/>
        <pt x="821" y="179" on="0"/>
        <pt x="824" y="204" on="1"/>
        <pt x="826" y="216" on="1"/>
      </contour>
      <contour>
        <pt x="191" y="161" on="1"/>
        <pt x="210" y="119" on="0"/>
        <pt x="295" y="49" on="0"/>
        <pt x="388" y="36" on="0"/>
        <pt x="423" y="76" on="1"/>
        <pt x="382" y="109" on="0"/>
        <pt x="343" y="154" on="1"/>
        <pt x="256" y="251" on="0"/>
        <pt x="231" y="350" on="1"/>
        <pt x="192" y="326" on="0"/>
        <pt x="166" y="223" on="0"/>
      </contour>
    </TTGlyph>
    <TTGlyph name="aogonek" xMin="40" yMin="-177" xMax="525" yMax="468">
      <contour>
        <pt x="515" y="10" on="0"/>
        <pt x="459" y="-5" on="0"/>
        <pt x="416" y="-5" on="0"/>
        <pt x="390" y="-3" on="1"/>
        <pt x="328" y="-89" on="0"/>
        <pt x="372" y="-121" on="1"/>
        <pt x="403" y="-142" on="0"/>
        <pt x="428" y="-119" on="1"/>
        <pt x="438" y="-131" on="1"/>
        <pt x="402" y="-177" on="0"/>
        <pt x="356" y="-177" on="1"/>
        <pt x="314" y="-177" on="0"/>
        <pt x="298" y="-148" on="1"/>
        <pt x="267" y="-94" on="0"/>
        <pt x="368" y="2" on="1"/>
        <pt x="333" y="13" on="0"/>
        <pt x="319" y="44" on="1"/>
        <pt x="269" y="-8" on="0"/>
        <pt x="166" y="-8" on="1"/>
        <pt x="111" y="-8" on="0"/>
        <pt x="40" y="43" on="0"/>
        <pt x="40" y="93" on="1"/>
        <pt x="40" y="160" on="0"/>
        <pt x="144" y="233" on="0"/>
        <pt x="274" y="248" on="1"/>
        <pt x="314" y="253" on="1"/>
        <pt x="314" y="302" on="1"/>
        <pt x="314" y="389" on="0"/>
        <pt x="288" y="449" on="0"/>
        <pt x="211" y="449" on="0"/>
        <pt x="189" y="428" on="0"/>
        <pt x="195" y="401" on="0"/>
        <pt x="209" y="357" on="0"/>
        <pt x="209" y="344" on="1"/>
        <pt x="209" y="313" on="0"/>
        <pt x="166" y="270" on="0"/>
        <pt x="105" y="270" on="0"/>
        <pt x="61" y="313" on="0"/>
        <pt x="61" y="344" on="1"/>
        <pt x="61" y="395" on="0"/>
        <pt x="166" y="468" on="0"/>
        <pt x="375" y="468" on="0"/>
        <pt x="464" y="386" on="0"/>
        <pt x="464" y="282" on="1"/>
        <pt x="464" y="102" on="1"/>
        <pt x="464" y="49" on="0"/>
        <pt x="490" y="22" on="0"/>
        <pt x="525" y="30" on="1"/>
        <pt x="525" y="20" on="1"/>
      </contour>
      <contour>
        <pt x="184" y="75" on="0"/>
        <pt x="230" y="34" on="0"/>
        <pt x="291" y="34" on="0"/>
        <pt x="314" y="64" on="1"/>
        <pt x="314" y="234" on="1"/>
        <pt x="278" y="229" on="1"/>
        <pt x="232" y="223" on="0"/>
        <pt x="175" y="165" on="0"/>
        <pt x="179" y="113" on="1"/>
      </contour>
    </TTGlyph>
    <TTGlyph name="approxequal" xMin="30" yMin="136" xMax="435" yMax="365">
      <contour>
        <pt x="435" y="341" on="1"/>
        <pt x="435" y="315" on="1"/>
        <pt x="364" y="266" on="0"/>
        <pt x="271" y="299" on="1"/>
        <pt x="232" y="313" on="0"/>
        <pt x="154" y="339" on="0"/>
        <pt x="68" y="329" on="0"/>
        <pt x="30" y="296" on="1"/>
        <pt x="30" y="322" on="1"/>
        <pt x="68" y="355" on="0"/>
        <pt x="154" y="365" on="0"/>
        <pt x="232" y="339" on="0"/>
        <pt x="271" y="325" on="1"/>
        <pt x="364" y="292" on="0"/>
      </contour>
      <contour>
        <pt x="435" y="211" on="1"/>
        <pt x="435" y="185" on="1"/>
        <pt x="364" y="136" on="0"/>
        <pt x="271" y="169" on="1"/>
        <pt x="232" y="183" on="0"/>
        <pt x="154" y="209" on="0"/>
        <pt x="68" y="199" on="0"/>
        <pt x="30" y="166" on="1"/>
        <pt x="30" y="192" on="1"/>
        <pt x="68" y="225" on="0"/>
        <pt x="154" y="235" on="0"/>
        <pt x="232" y="209" on="0"/>
        <pt x="271" y="195" on="1"/>
        <pt x="364" y="162" on="0"/>
      </contour>
    </TTGlyph>
    <TTGlyph name="aring" xMin="40" yMin="-8" xMax="525" yMax="667">
      <contour>
        <pt x="349" y="548" on="0"/>
        <pt x="299" y="498" on="0"/>
        <pt x="230" y="498" on="0"/>
        <pt x="181" y="547" on="0"/>
        <pt x="181" y="617" on="0"/>
        <pt x="230" y="667" on="0"/>
        <pt x="298" y="667" on="0"/>
        <pt x="349" y="616" on="0"/>
      </contour>
      <contour>
        <pt x="246" y="535" on="0"/>
        <pt x="282" y="535" on="0"/>
        <pt x="308" y="564" on="0"/>
        <pt x="308" y="601" on="0"/>
        <pt x="283" y="627" on="0"/>
        <pt x="245" y="627" on="0"/>
        <pt x="221" y="601" on="0"/>
        <pt x="221" y="564" on="0"/>
      </contour>
      <contour>
        <pt x="515" y="10" on="0"/>
        <pt x="459" y="-5" on="0"/>
        <pt x="422" y="-5" on="1"/>
        <pt x="340" y="-5" on="0"/>
        <pt x="319" y="44" on="1"/>
        <pt x="269" y="-8" on="0"/>
        <pt x="166" y="-8" on="1"/>
        <pt x="111" y="-8" on="0"/>
        <pt x="40" y="43" on="0"/>
        <pt x="40" y="93" on="1"/>
        <pt x="40" y="160" on="0"/>
        <pt x="144" y="233" on="0"/>
        <pt x="274" y="248" on="1"/>
        <pt x="314" y="253" on="1"/>
        <pt x="314" y="302" on="1"/>
        <pt x="314" y="389" on="0"/>
        <pt x="288" y="449" on="0"/>
        <pt x="211" y="449" on="0"/>
        <pt x="189" y="428" on="0"/>
        <pt x="195" y="401" on="0"/>
        <pt x="209" y="357" on="0"/>
        <pt x="209" y="344" on="1"/>
        <pt x="209" y="313" on="0"/>
        <pt x="166" y="270" on="0"/>
        <pt x="105" y="270" on="0"/>
        <pt x="61" y="313" on="0"/>
        <pt x="61" y="344" on="1"/>
        <pt x="61" y="395" on="0"/>
        <pt x="166" y="468" on="0"/>
        <pt x="375" y="468" on="0"/>
        <pt x="464" y="386" on="0"/>
        <pt x="464" y="282" on="1"/>
        <pt x="464" y="102" on="1"/>
        <pt x="464" y="49" on="0"/>
        <pt x="490" y="22" on="0"/>
        <pt x="525" y="30" on="1"/>
        <pt x="525" y="20" on="1"/>
      </contour>
      <contour>
        <pt x="184" y="75" on="0"/>
        <pt x="230" y="34" on="0"/>
        <pt x="291" y="34" on="0"/>
        <pt x="314" y="64" on="1"/>
        <pt x="314" y="234" on="1"/>
        <pt x="278" y="229" on="1"/>
        <pt x="232" y="223" on="0"/>
        <pt x="175" y="165" on="0"/>
        <pt x="179" y="113" on="1"/>
      </contour>
    </TTGlyph>
    <TTGlyph name="asciicircum" xMin="30" yMin="198" xMax="312" yMax="489">
      <contour>
        <pt x="171" y="455" on="1"/>
        <pt x="47" y="198" on="1"/>
        <pt x="30" y="206" on="1"/>
        <pt x="165" y="489" on="1"/>
        <pt x="177" y="489" on="1"/>
        <pt x="312" y="206" on="1"/>
        <pt x="294" y="198" on="1"/>
      </contour>
    </TTGlyph>
    <TTGlyph name="asciitilde" xMin="30" yMin="148" xMax="454" yMax="324">
      <contour>
        <pt x="30" y="193" on="1"/>
        <pt x="30" y="244" on="0"/>
        <pt x="108" y="315" on="0"/>
        <pt x="208" y="315" on="0"/>
        <pt x="347" y="257" on="0"/>
        <pt x="408" y="257" on="0"/>
        <pt x="432" y="285" on="0"/>
        <pt x="432" y="306" on="1"/>
        <pt x="431" y="324" on="1"/>
        <pt x="447" y="324" on="1"/>
        <pt x="454" y="305" on="0"/>
        <pt x="454" y="279" on="1"/>
        <pt x="454" y="229" on="0"/>
        <pt x="375" y="157" on="0"/>
        <pt x="274" y="157" on="0"/>
        <pt x="135" y="215" on="0"/>
        <pt x="77" y="215" on="0"/>
        <pt x="52" y="187" on="0"/>
        <pt x="52" y="166" on="1"/>
        <pt x="53" y="148" on="1"/>
        <pt x="37" y="148" on="1"/>
        <pt x="30" y="170" on="0"/>
      </contour>
    </TTGlyph>
    <TTGlyph name="asterisk" xMin="5" yMin="291" xMax="324" yMax="605">
      <contour>
        <pt x="208" y="342" on="1"/>
        <pt x="208" y="291" on="0"/>
        <pt x="119" y="291" on="0"/>
        <pt x="119" y="342" on="1"/>
        <pt x="119" y="359" on="0"/>
        <pt x="158" y="412" on="0"/>
        <pt x="158" y="439" on="1"/>
        <pt x="135" y="426" on="0"/>
        <pt x="109" y="365" on="0"/>
        <pt x="93" y="356" on="1"/>
        <pt x="49" y="331" on="0"/>
        <pt x="26" y="370" on="1"/>
        <pt x="5" y="409" on="0"/>
        <pt x="48" y="433" on="1"/>
        <pt x="63" y="442" on="0"/>
        <pt x="129" y="435" on="0"/>
        <pt x="151" y="448" on="1"/>
        <pt x="129" y="461" on="0"/>
        <pt x="63" y="454" on="0"/>
        <pt x="48" y="463" on="1"/>
        <pt x="5" y="487" on="0"/>
        <pt x="26" y="526" on="1"/>
        <pt x="49" y="565" on="0"/>
        <pt x="93" y="540" on="1"/>
        <pt x="109" y="531" on="0"/>
        <pt x="135" y="470" on="0"/>
        <pt x="158" y="457" on="1"/>
        <pt x="158" y="484" on="0"/>
        <pt x="119" y="536" on="0"/>
        <pt x="119" y="554" on="1"/>
        <pt x="119" y="605" on="0"/>
        <pt x="208" y="605" on="0"/>
        <pt x="208" y="554" on="1"/>
        <pt x="208" y="536" on="0"/>
        <pt x="169" y="483" on="0"/>
        <pt x="169" y="457" on="1"/>
        <pt x="191" y="470" on="0"/>
        <pt x="218" y="531" on="0"/>
        <pt x="235" y="540" on="1"/>
        <pt x="279" y="565" on="0"/>
        <pt x="324" y="487" on="0"/>
        <pt x="279" y="463" on="1"/>
        <pt x="264" y="454" on="0"/>
        <pt x="199" y="461" on="0"/>
        <pt x="176" y="448" on="1"/>
        <pt x="199" y="435" on="0"/>
        <pt x="265" y="442" on="0"/>
        <pt x="279" y="433" on="1"/>
        <pt x="324" y="409" on="0"/>
        <pt x="279" y="331" on="0"/>
        <pt x="235" y="356" on="1"/>
        <pt x="218" y="365" on="0"/>
        <pt x="191" y="426" on="0"/>
        <pt x="169" y="439" on="1"/>
        <pt x="169" y="413" on="0"/>
        <pt x="208" y="360" on="0"/>
      </contour>
    </TTGlyph>
    <TTGlyph name="at" xMin="127" yMin="-99" xMax="818" yMax="575">
      <contour>
        <pt x="654" y="117" on="1"/>
        <pt x="654" y="70" on="0"/>
        <pt x="701" y="70" on="1"/>
        <pt x="736" y="70" on="0"/>
        <pt x="792" y="186" on="0"/>
        <pt x="792" y="248" on="1"/>
        <pt x="792" y="386" on="0"/>
        <pt x="629" y="550" on="0"/>
        <pt x="332" y="550" on="0"/>
        <pt x="153" y="372" on="0"/>
        <pt x="153" y="89" on="0"/>
        <pt x="332" y="-73" on="0"/>
        <pt x="471" y="-73" on="1"/>
        <pt x="496" y="-73" on="0"/>
        <pt x="526" y="-68" on="1"/>
        <pt x="526" y="-95" on="1"/>
        <pt x="503" y="-99" on="0"/>
        <pt x="472" y="-99" on="1"/>
        <pt x="322" y="-99" on="0"/>
        <pt x="127" y="78" on="0"/>
        <pt x="127" y="382" on="0"/>
        <pt x="322" y="575" on="0"/>
        <pt x="640" y="575" on="0"/>
        <pt x="818" y="396" on="0"/>
        <pt x="818" y="248" on="1"/>
        <pt x="818" y="193" on="0"/>
        <pt x="789" y="109" on="0"/>
        <pt x="754" y="61" on="0"/>
        <pt x="691" y="28" on="0"/>
        <pt x="623" y="28" on="0"/>
        <pt x="579" y="40" on="0"/>
        <pt x="567" y="48" on="1"/>
        <pt x="543" y="66" on="0"/>
        <pt x="533" y="85" on="1"/>
        <pt x="504" y="38" on="0"/>
        <pt x="361" y="38" on="0"/>
        <pt x="268" y="137" on="0"/>
        <pt x="268" y="330" on="0"/>
        <pt x="364" y="442" on="0"/>
        <pt x="506" y="442" on="0"/>
        <pt x="533" y="387" on="1"/>
        <pt x="534" y="434" on="1"/>
        <pt x="694" y="434" on="1"/>
        <pt x="694" y="418" on="1"/>
        <pt x="654" y="418" on="1"/>
      </contour>
      <contour>
        <pt x="533" y="145" on="1"/>
        <pt x="533" y="353" on="1"/>
        <pt x="512" y="397" on="0"/>
        <pt x="442" y="397" on="0"/>
        <pt x="391" y="313" on="0"/>
        <pt x="391" y="239" on="1"/>
        <pt x="391" y="90" on="0"/>
        <pt x="477" y="90" on="1"/>
        <pt x="499" y="90" on="0"/>
        <pt x="533" y="117" on="0"/>
      </contour>
    </TTGlyph>
    <TTGlyph name="atilde" xMin="40" yMin="-8" xMax="525" yMax="633">
      <contour>
        <pt x="183" y="537" on="1"/>
        <pt x="163" y="537" on="1"/>
        <pt x="163" y="633" on="0"/>
        <pt x="230" y="633" on="1"/>
        <pt x="249" y="633" on="0"/>
        <pt x="301" y="602" on="0"/>
        <pt x="315" y="602" on="1"/>
        <pt x="341" y="602" on="0"/>
        <pt x="341" y="628" on="1"/>
        <pt x="361" y="628" on="1"/>
        <pt x="361" y="532" on="0"/>
        <pt x="293" y="532" on="1"/>
        <pt x="273" y="532" on="0"/>
        <pt x="221" y="564" on="0"/>
        <pt x="207" y="564" on="1"/>
        <pt x="183" y="564" on="0"/>
      </contour>
      <contour>
        <pt x="515" y="10" on="0"/>
        <pt x="459" y="-5" on="0"/>
        <pt x="422" y="-5" on="1"/>
        <pt x="340" y="-5" on="0"/>
        <pt x="319" y="44" on="1"/>
        <pt x="269" y="-8" on="0"/>
        <pt x="166" y="-8" on="1"/>
        <pt x="111" y="-8" on="0"/>
        <pt x="40" y="43" on="0"/>
        <pt x="40" y="93" on="1"/>
        <pt x="40" y="160" on="0"/>
        <pt x="144" y="233" on="0"/>
        <pt x="274" y="248" on="1"/>
        <pt x="314" y="253" on="1"/>
        <pt x="314" y="302" on="1"/>
        <pt x="314" y="389" on="0"/>
        <pt x="288" y="449" on="0"/>
        <pt x="211" y="449" on="0"/>
        <pt x="189" y="428" on="0"/>
        <pt x="195" y="401" on="0"/>
        <pt x="209" y="357" on="0"/>
        <pt x="209" y="344" on="1"/>
        <pt x="209" y="313" on="0"/>
        <pt x="166" y="270" on="0"/>
        <pt x="105" y="270" on="0"/>
        <pt x="61" y="313" on="0"/>
        <pt x="61" y="344" on="1"/>
        <pt x="61" y="395" on="0"/>
        <pt x="166" y="468" on="0"/>
        <pt x="375" y="468" on="0"/>
        <pt x="464" y="386" on="0"/>
        <pt x="464" y="282" on="1"/>
        <pt x="464" y="102" on="1"/>
        <pt x="464" y="49" on="0"/>
        <pt x="490" y="22" on="0"/>
        <pt x="525" y="30" on="1"/>
        <pt x="525" y="20" on="1"/>
      </contour>
      <contour>
        <pt x="184" y="75" on="0"/>
        <pt x="230" y="34" on="0"/>
        <pt x="291" y="34" on="0"/>
        <pt x="314" y="64" on="1"/>
        <pt x="314" y="234" on="1"/>
        <pt x="278" y="229" on="1"/>
        <pt x="232" y="223" on="0"/>
        <pt x="175" y="165" on="0"/>
        <pt x="179" y="113" on="1"/>
      </contour>
    </TTGlyph>
</ttFont>
